<svg width="60.000000" height="60.000000" viewBox="0 0 60 60" fill="none" xmlns="http://www.w3.org/2000/svg" xmlns:xlink="http://www.w3.org/1999/xlink">
	<desc>
			Created with Pixso.
	</desc>
	<defs>
		<clipPath id="clip3_454">
			<rect id="Problem" width="60.000000" height="60.000000" fill="white" fill-opacity="0"/>
		</clipPath>
	</defs>
	<rect id="Problem" width="60.000000" height="60.000000" fill="#FFFFFF" fill-opacity="0"/>
	<g clip-path="url(#clip3_454)">
		<path id="Vector" d="M30 0C24.0665 0 18.2664 1.75952 13.3329 5.05591C8.39941 8.35229 4.5542 13.0376 2.28357 18.5195C0.0129395 24.0012 -0.581055 30.0332 0.576416 35.8528C1.73401 41.6721 4.59119 47.0176 8.78687 51.2131C12.9824 55.4087 18.3279 58.2661 24.1473 59.4236C29.9668 60.5811 35.9988 59.9871 41.4805 57.7163C46.9623 55.4458 51.6477 51.6006 54.9441 46.667C58.2406 41.7336 60 35.9333 60 30C59.9915 22.0461 56.828 14.4204 51.2037 8.79639C45.5795 3.17212 37.9539 0.00854492 30 0ZM30 55C25.0555 55 20.222 53.5337 16.1107 50.7866C11.9995 48.0398 8.79517 44.1353 6.90308 39.5671C5.01086 34.999 4.51575 29.9722 5.48035 25.1228C6.44507 20.2732 8.82605 15.8186 12.3224 12.3223C15.8186 8.82593 20.2732 6.44507 25.1228 5.48047C29.9723 4.51562 34.9989 5.01074 39.5671 6.90308C44.1353 8.79517 48.0397 11.9995 50.7867 16.1108C53.5338 20.2219 55 25.0554 55 30C54.9927 36.6282 52.3564 42.9829 47.6697 47.6697C42.9828 52.3564 36.6282 54.9927 30 55Z" fill="#9CBBFF" fill-opacity="1.000000" fill-rule="nonzero"/>
		<path id="Vector" d="M30 12.5C29.3369 12.5 28.701 12.7634 28.2322 13.2322C27.7634 13.7012 27.5 14.3369 27.5 15L27.5 35C27.5 35.6631 27.7634 36.2988 28.2322 36.7678C28.701 37.2366 29.3369 37.5 30 37.5C30.6631 37.5 31.299 37.2366 31.7678 36.7678C32.2366 36.2988 32.5 35.6631 32.5 35L32.5 15C32.5 14.3369 32.2366 13.7012 31.7678 13.2322C31.299 12.7634 30.6631 12.5 30 12.5Z" fill="#9CBBFF" fill-opacity="1.000000" fill-rule="nonzero"/>
		<path id="Vector" d="M30 42.5C31.3807 42.5 32.5 43.6194 32.5 45C32.5 46.3806 31.3807 47.5 30 47.5C28.6193 47.5 27.5 46.3806 27.5 45C27.5 43.6194 28.6193 42.5 30 42.5Z" fill="#9CBBFF" fill-opacity="1.000000" fill-rule="evenodd"/>
	</g>
</svg>
