<svg width="60.000000" height="60.000000" viewBox="0 0 60 60" fill="none" xmlns="http://www.w3.org/2000/svg" xmlns:xlink="http://www.w3.org/1999/xlink">
	<desc>
			Created with Pixso.
	</desc>
	<defs>
		<clipPath id="clip3_452">
			<rect id="About" width="60.000000" height="60.000000" fill="white" fill-opacity="0"/>
		</clipPath>
	</defs>
	<rect id="About" width="60.000000" height="60.000000" fill="#FFFFFF" fill-opacity="0"/>
	<g clip-path="url(#clip3_452)">
		<path id="Vector" d="M30 0C24.0665 0 18.2664 1.75952 13.3329 5.05591C8.39941 8.35229 4.5542 13.0376 2.28357 18.5195C0.0129395 24.0012 -0.581055 30.0332 0.576416 35.8528C1.73401 41.6721 4.59119 47.0176 8.78687 51.2131C12.9824 55.4087 18.3279 58.2661 24.1473 59.4236C29.9668 60.5811 35.9988 59.9871 41.4805 57.7163C46.9623 55.4458 51.6477 51.6006 54.9441 46.667C58.2406 41.7336 60 35.9333 60 30C59.9915 22.0461 56.828 14.4204 51.2037 8.79639C45.5795 3.17212 37.9539 0.00854492 30 0ZM30 55C25.0555 55 20.222 53.5337 16.1107 50.7866C11.9995 48.0398 8.79517 44.1353 6.90308 39.5671C5.01086 34.999 4.51575 29.9722 5.48035 25.1228C6.44507 20.2732 8.82605 15.8186 12.3224 12.3223C15.8186 8.82593 20.2732 6.44507 25.1228 5.48047C29.9723 4.51562 34.9989 5.01074 39.5671 6.90308C44.1353 8.79517 48.0397 11.9995 50.7867 16.1108C53.5338 20.2219 55 25.0554 55 30C54.9927 36.6282 52.3564 42.9829 47.6697 47.6697C42.9828 52.3564 36.6282 54.9927 30 55Z" fill="#9CBBFF" fill-opacity="1.000000" fill-rule="nonzero"/>
		<path id="Vector" d="M31.7925 12.6575C30.3508 12.3948 28.869 12.4524 27.452 12.8257C26.0349 13.199 24.7173 13.8794 23.5923 14.8184C22.4672 15.7573 21.5623 16.9321 20.9415 18.2595C20.3208 19.5869 19.9994 21.0347 20 22.5C20 23.1631 20.2634 23.7991 20.7322 24.2678C21.201 24.7366 21.8369 25 22.5 25C23.1631 25 23.799 24.7366 24.2678 24.2678C24.7366 23.7991 25 23.1631 25 22.5C24.9994 21.7644 25.161 21.0378 25.4735 20.3721C25.7859 19.7061 26.2415 19.1172 26.8075 18.6477C27.3737 18.178 28.0364 17.8391 28.7485 17.655C29.4607 17.4709 30.2047 17.446 30.9275 17.5825C31.9152 17.7742 32.8231 18.2561 33.5356 18.9663C34.2482 19.6765 34.7327 20.583 34.9275 21.5701C35.1243 22.606 34.9884 23.6777 34.5394 24.6318C34.0903 25.5862 33.3512 26.3738 32.4275 26.8826C30.8979 27.7688 29.6339 29.0488 28.7673 30.5896C27.9006 32.1304 27.463 33.8752 27.5 35.6426L27.5 37.5C27.5 38.1631 27.7634 38.7991 28.2322 39.2678C28.701 39.7366 29.3369 40 30 40C30.6631 40 31.299 39.7366 31.7678 39.2678C32.2366 38.7991 32.5 38.1631 32.5 37.5L32.5 35.6426C32.4686 34.7727 32.667 33.9097 33.0752 33.1409C33.4833 32.3718 34.0869 31.7241 34.825 31.2625C36.6362 30.2678 38.0948 28.7363 39.0002 26.8787C39.9055 25.021 40.2131 22.9285 39.8807 20.8889C39.5482 18.8494 38.5922 16.9629 37.1438 15.4888C35.6954 14.0149 33.8259 13.0256 31.7925 12.6575Z" fill="#9CBBFF" fill-opacity="1.000000" fill-rule="nonzero"/>
		<path id="Vector" d="M30 42.5C31.3807 42.5 32.5 43.6194 32.5 45C32.5 46.3806 31.3807 47.5 30 47.5C28.6193 47.5 27.5 46.3806 27.5 45C27.5 43.6194 28.6193 42.5 30 42.5Z" fill="#9CBBFF" fill-opacity="1.000000" fill-rule="evenodd"/>
	</g>
</svg>
