<svg width="60.000000" height="60.000000" viewBox="0 0 60 60" fill="none" xmlns="http://www.w3.org/2000/svg" xmlns:xlink="http://www.w3.org/1999/xlink">
	<desc>
			Created with Pixso.
	</desc>
	<defs>
		<clipPath id="clip3_459">
			<rect id="Settings" width="60.000000" height="60.000000" fill="white" fill-opacity="0"/>
		</clipPath>
	</defs>
	<rect id="Settings" width="60.000000" height="60.000000" fill="#FFFFFF" fill-opacity="0"/>
	<g clip-path="url(#clip3_459)">
		<path id="Vector" d="M30 20C28.0222 20 26.0887 20.5864 24.4443 21.6853C22.7998 22.7842 21.5181 24.3459 20.7612 26.1731C20.0043 28.0005 19.8063 30.011 20.1921 31.9509C20.578 33.8906 21.5304 35.6726 22.929 37.071C24.3275 38.4695 26.1093 39.4221 28.0491 39.8079C29.9889 40.1936 31.9996 39.9956 33.8268 39.2388C35.6541 38.4819 37.2159 37.2002 38.3147 35.5557C39.4136 33.9111 40 31.9778 40 30C40 27.3479 38.9464 24.8042 37.071 22.929C35.1957 21.0535 32.6522 20 30 20ZM30 35C29.0111 35 28.0444 34.7068 27.2222 34.1572C26.3999 33.6079 25.759 32.8271 25.3806 31.9133C25.0022 30.9998 24.9032 29.9944 25.0961 29.0247C25.2891 28.0547 25.7653 27.1638 26.4645 26.4644C27.1637 25.7651 28.0547 25.2891 29.0245 25.0962C29.9945 24.9031 30.9998 25.0022 31.9135 25.3806C32.827 25.759 33.6079 26.3999 34.1573 27.2222C34.7068 28.0444 35 29.011 35 30C35 31.3262 34.4733 32.5979 33.5355 33.5356C32.5979 34.4731 31.326 35 30 35Z" fill="#9CBBFF" fill-opacity="1.000000" fill-rule="nonzero"/>
		<path id="Vector" d="M53.235 34.75L52.125 34.1101C52.6248 31.3911 52.6248 28.604 52.125 25.885L53.235 25.2451C54.0886 24.7524 54.8368 24.0967 55.437 23.3152C56.0371 22.5334 56.4774 21.6414 56.7328 20.6895C56.9882 19.7378 57.0536 18.7449 56.9253 17.7678C56.797 16.7908 56.4774 15.8486 55.985 14.9951C55.4926 14.1414 54.8368 13.3931 54.0552 12.793C53.2736 12.1929 52.3813 11.7524 51.4296 11.4971C50.4778 11.2417 49.485 11.1765 48.5079 11.3047C47.5308 11.4331 46.5886 11.7524 45.735 12.2451L44.6224 12.8875C42.5214 11.0923 40.1067 9.70068 37.5 8.78247L37.5 7.5C37.5 5.51099 36.7098 3.60327 35.3033 2.19678C33.8967 0.790283 31.9891 0 30 0C28.0109 0 26.1031 0.790283 24.6967 2.19678C23.2902 3.60327 22.5 5.51099 22.5 7.5L22.5 8.78247C19.8934 9.70386 17.4796 11.0991 15.38 12.8975L14.2625 12.25C12.5386 11.2554 10.4902 10.9863 8.56799 11.5022C6.64575 12.0178 5.00708 13.2761 4.01245 15C3.01794 16.7239 2.7489 18.7722 3.26465 20.6946C3.7804 22.6167 5.03857 24.2554 6.76245 25.25L7.87244 25.8899C7.3728 28.6089 7.3728 31.396 7.87244 34.115L6.76245 34.7549C5.03857 35.7495 3.7804 37.3882 3.26465 39.3105C2.7489 41.2327 3.01794 43.281 4.01245 45.0049C5.00708 46.729 6.64575 47.9871 8.56799 48.5029C10.4902 49.0186 12.5386 48.7495 14.2625 47.7549L15.375 47.1125C17.4769 48.908 19.8925 50.2996 22.5 51.2175L22.5 52.5C22.5 54.489 23.2902 56.3967 24.6967 57.8032C26.1031 59.2097 28.0109 60 30 60C31.9891 60 33.8967 59.2097 35.3033 57.8032C36.7098 56.3967 37.5 54.489 37.5 52.5L37.5 51.2175C40.1066 50.2961 42.5204 48.9009 44.62 47.1025L45.7375 47.7476C47.4614 48.7422 49.5098 49.011 51.432 48.4954C53.3542 47.9797 54.9929 46.7214 55.9875 44.9976C56.9821 43.2737 57.2511 41.2251 56.7354 39.303C56.2196 37.3806 54.9614 35.7419 53.2375 34.7476L53.235 34.75ZM46.865 25.3101C47.7115 28.3777 47.7115 31.6174 46.865 34.6851C46.7172 35.219 46.7509 35.7869 46.9608 36.2996C47.1708 36.8123 47.5452 37.2407 48.025 37.5176L50.735 39.0825C51.3096 39.4141 51.7288 39.9602 51.9006 40.6008C52.0725 41.2415 51.9828 41.9243 51.6512 42.4988C51.3197 43.0732 50.7736 43.4927 50.1328 43.6643C49.4922 43.8362 48.8096 43.7466 48.235 43.415L45.52 41.845C45.0397 41.5669 44.4806 41.4563 43.9305 41.531C43.3806 41.6057 42.8712 41.8613 42.4825 42.2576C40.2573 44.5291 37.454 46.1499 34.375 46.9451C33.8375 47.0833 33.3613 47.3962 33.0215 47.8347C32.6815 48.2734 32.4972 48.8125 32.4974 49.3674L32.4974 52.5C32.4974 53.1631 32.2341 53.7988 31.7653 54.2678C31.2964 54.7366 30.6605 55 29.9974 55C29.3345 55 28.6986 54.7366 28.2297 54.2678C27.7609 53.7988 27.4974 53.1631 27.4974 52.5L27.4974 49.3701C27.4978 48.8152 27.3135 48.2759 26.9735 47.8374C26.6335 47.3987 26.1573 47.0857 25.62 46.9475C22.5409 46.1492 19.7383 44.5249 17.515 42.25C17.1263 41.8538 16.6168 41.5984 16.0669 41.5237C15.517 41.449 14.9578 41.5593 14.4775 41.8374L11.7675 43.405C11.483 43.5718 11.1685 43.6807 10.8418 43.7253C10.5151 43.77 10.1829 43.7495 9.86414 43.6653C9.54541 43.5811 9.24646 43.4346 8.9845 43.2341C8.72266 43.0339 8.50293 42.7839 8.33813 42.4983C8.17322 42.2129 8.06653 41.8975 8.02393 41.5706C7.98145 41.2437 8.00403 40.9114 8.09045 40.5933C8.17688 40.2751 8.32532 39.9771 8.52734 39.7166C8.72937 39.4561 8.98083 39.238 9.26746 39.075L11.9775 37.51C12.4574 37.2332 12.8317 36.8047 13.0416 36.292C13.2516 35.7793 13.2853 35.2114 13.1375 34.6775C12.2909 31.6099 12.2909 28.3701 13.1375 25.3025C13.2826 24.7698 13.2473 24.2039 13.037 23.6931C12.8267 23.1826 12.4532 22.7561 11.975 22.48L9.26501 20.915C8.69043 20.5835 8.27112 20.0374 8.09937 19.3967C7.92749 18.7559 8.01721 18.0732 8.34875 17.4988C8.6803 16.9243 9.22644 16.5049 9.86707 16.333C10.5078 16.1614 11.1904 16.251 11.765 16.5825L14.48 18.1526C14.959 18.4314 15.517 18.543 16.0663 18.4702C16.6157 18.3972 17.1252 18.144 17.515 17.75C19.7402 15.4783 22.5436 13.8577 25.6224 13.0625C26.1616 12.9238 26.639 12.6094 26.9791 12.1687C27.3192 11.728 27.5024 11.1865 27.5 10.6299L27.5 7.5C27.5 6.83691 27.7634 6.20117 28.2322 5.73218C28.701 5.26343 29.3369 5 30 5C30.6631 5 31.299 5.26343 31.7677 5.73218C32.2366 6.20117 32.5 6.83691 32.5 7.5L32.5 10.6299C32.4998 11.1848 32.6841 11.7241 33.0239 12.1626C33.3639 12.6013 33.8401 12.9143 34.3774 13.0525C37.4575 13.8503 40.261 15.4746 42.485 17.75C42.8737 18.1462 43.3832 18.4016 43.9331 18.4763C44.483 18.551 45.0422 18.4407 45.5225 18.1626L48.2325 16.595C48.517 16.4282 48.8315 16.3193 49.1582 16.2747C49.4849 16.23 49.8171 16.2505 50.1359 16.3347C50.4546 16.4189 50.7535 16.5654 51.0154 16.7659C51.2773 16.9661 51.4971 17.2161 51.6619 17.5017C51.8268 17.7871 51.9335 18.1025 51.976 18.4294C52.0184 18.7563 51.9958 19.0886 51.9095 19.4067C51.8231 19.7249 51.6747 20.0229 51.4727 20.2834C51.2706 20.5439 51.019 20.762 50.7324 20.925L48.0225 22.49C47.5452 22.7668 47.1727 23.1936 46.9634 23.7043C46.7539 24.2148 46.7194 24.7803 46.865 25.3125L46.865 25.3101Z" fill="#9CBBFF" fill-opacity="1.000000" fill-rule="nonzero"/>
	</g>
</svg>
