<svg width="20" height="20" viewBox="0 0 20 20" fill="none" xmlns="http://www.w3.org/2000/svg">
<g clip-path="url(#clip0_13960_1781)">
<path fill-rule="evenodd" clip-rule="evenodd" d="M4.52626 9.895C7.44126 8.625 9.38626 7.7875 10.3588 7.3825C13.135 6.2275 13.7138 6.02625 14.0888 6.02C14.2269 6.01706 14.3625 6.05774 14.4763 6.13625C14.5561 6.20557 14.607 6.3024 14.6188 6.4075C14.6387 6.53775 14.6442 6.6698 14.635 6.80125C14.485 8.3825 13.8338 12.2188 13.5025 13.99C13.3625 14.74 13.0863 14.99 12.8188 15.015C12.36 15.0575 11.9863 14.7925 11.5725 14.4975C11.5608 14.4892 11.5491 14.4808 11.5374 14.4724C11.4396 14.4026 11.3388 14.3307 11.235 14.2638C10.775 13.9613 10.42 13.72 10.065 13.4775C9.73876 13.255 9.41126 13.0338 9.00251 12.7638C8.15376 12.2038 8.50876 11.8613 8.98376 11.4038C9.06335 11.3275 9.14169 11.25 9.21876 11.1713C9.23196 11.1576 9.26454 11.1265 9.31294 11.081C9.35167 11.0446 9.40054 10.9989 9.45771 10.9456C9.48307 10.922 9.51007 10.8968 9.53855 10.8703L9.53937 10.8695C9.57896 10.8326 9.6214 10.7931 9.66626 10.7512L9.70724 10.7131C10.4916 9.98331 11.9369 8.63845 11.9738 8.48C11.98 8.45375 11.9863 8.355 11.9275 8.30375C11.87 8.25125 11.7825 8.26875 11.72 8.28375C11.6325 8.30375 10.2263 9.2325 7.50251 11.0713C7.10376 11.3463 6.74251 11.4788 6.41751 11.4713C6.06126 11.4638 5.37376 11.27 4.86376 11.1038L4.64501 11.035C4.12626 10.8713 3.74501 10.7513 3.78251 10.4475C3.80501 10.2675 4.05376 10.0825 4.52626 9.895Z" fill="#A0A4AD"/>
<path fill-rule="evenodd" clip-rule="evenodd" d="M9.45771 10.9456C9.40054 10.9989 9.35167 11.0446 9.31294 11.081C9.36886 11.0284 9.44588 10.9566 9.53855 10.8703L9.53937 10.8695C9.51059 10.8964 9.48331 10.9218 9.45771 10.9456Z" fill="#A0A4AD"/>
<path d="M10 0C8.02219 0 6.08879 0.58649 4.4443 1.6853C2.79981 2.78412 1.51809 4.34591 0.761209 6.17317C0.00433286 8.00043 -0.193701 10.0111 0.192152 11.9509C0.578004 13.8907 1.53041 15.6725 2.92894 17.0711C4.32746 18.4696 6.10929 19.422 8.0491 19.8079C9.98891 20.1937 11.9996 19.9957 13.8268 19.2388C15.6541 18.4819 17.2159 17.2002 18.3147 15.5557C19.4135 13.9112 20 11.9778 20 10C19.9971 7.34872 18.9426 4.80684 17.0679 2.9321C15.1932 1.05736 12.6513 0.00286757 10 0ZM10 18.3333C8.35183 18.3333 6.74066 17.8446 5.37025 16.9289C3.99984 16.0132 2.93174 14.7117 2.30101 13.189C1.67028 11.6663 1.50525 9.99076 1.82679 8.37425C2.14834 6.75774 2.94201 5.27288 4.10745 4.10744C5.27289 2.94201 6.75774 2.14833 8.37425 1.82679C9.99076 1.50525 11.6663 1.67027 13.189 2.301C14.7118 2.93173 16.0132 3.99984 16.9289 5.37025C17.8446 6.74066 18.3333 8.35182 18.3333 10C18.3309 12.2094 17.4522 14.3276 15.8899 15.8899C14.3276 17.4522 12.2094 18.3309 10 18.3333Z" fill="#A0A4AD"/>
</g>
<defs>
<clipPath id="clip0_13960_1781">
<rect width="20" height="20" fill="white"/>
</clipPath>
</defs>
</svg>
