<svg width="3055" height="1110" viewBox="0 0 3055 1110" fill="none" xmlns="http://www.w3.org/2000/svg">
<rect width="3055" height="1110" fill="#1E1E1E"/>
<g id="Corpus N (BS)">
<rect width="7680" height="4320" transform="translate(-290 -1595)" fill="#1E1E1E"/>
<g id="N-1">
<rect width="3055" height="1105" transform="translate(0 5)" fill="#1E1E1E"/>
<g id="Spaces">
<rect id="!n-2-5" x="1740" y="155" width="110" height="110" fill="#3B3C41"/>
<rect id="!n-2-4" x="1630" y="155" width="110" height="110" fill="#3B3C41"/>
<rect id="!n-2-3" x="530" y="155" width="100" height="110" fill="#3B3C41"/>
<rect id="!n-2-2" x="430" y="155" width="100" height="110" fill="#3B3C41"/>
<path id="n-2-stair-1" opacity="0.2" d="M2740 10H3050V175H2820V265H2740V10Z" fill="#9CD9BC"/>
<path id="n-2-stair-2" opacity="0.2" d="M1530 10H1690H1850V155H1630V265H1530V10Z" fill="#9CD9BC"/>
<path id="n-2-stair-3" opacity="0.2" d="M330 10H630V155H430V265H330V10Z" fill="#9CD9BC"/>
<rect id="n-2-lift-3" opacity="0.2" x="2973" y="175" width="77" height="90" fill="#A091F8"/>
<rect id="n-2-lift-2" opacity="0.2" x="2897" y="175" width="76" height="90" fill="#A091F8"/>
<rect id="n-2-lift-1" opacity="0.2" x="2820" y="175" width="77" height="90" fill="#A091F8"/>
<rect id="n-116" x="2450" y="465" width="600" height="640" fill="#3B3C41"/>
<rect id="n-115" x="2300" y="10" width="440" height="325" fill="#3B3C41"/>
<rect id="n-114" x="2150" y="465" width="300" height="640" fill="#3B3C41"/>
<rect id="n-113" x="1850" y="10" width="450" height="325" fill="#3B3C41"/>
<rect id="n-112" x="1850" y="465" width="300" height="640" fill="#3B3C41"/>
<path id="n-111" d="M1761 465H1851L1850 1105H1270V615H1760L1761 465Z" fill="#3B3C41"/>
<rect id="n-110" x="1660" y="465" width="100" height="150" fill="#3B3C41"/>
<rect id="n-109" x="1560" y="465" width="100" height="150" fill="#3B3C41"/>
<rect id="n-108" x="1460" y="465" width="100" height="150" fill="#3B3C41"/>
<rect id="n-107" x="1370" y="465" width="90" height="150" fill="#3B3C41"/>
<rect id="n-106" x="1270" y="465" width="100" height="150" fill="#3B3C41"/>
<rect id="n-105" x="1080" y="10" width="450" height="325" fill="#3B3C41"/>
<rect id="n-104" x="630" y="10" width="450" height="325" fill="#3B3C41"/>
<rect id="n-103k" x="850" y="465" width="300" height="230" fill="#3B3C41"/>
<path id="n-103" d="M5 465H850V695H1150V465H1270V1105H5V465Z" fill="#3B3C41"/>
<rect id="n-102" x="5" y="265" width="325" height="200" fill="#3B3C41"/>
<rect id="n-101" x="5" y="10" width="325" height="255" fill="#3B3C41"/>
</g>
<g id="Walls">
<path id="Subtract" fill-rule="evenodd" clip-rule="evenodd" d="M1623 615V842H1638L1638 848H1620H1617V845V615H1623ZM1684 848H1850V842H1684V848Z" fill="#A5A5A7"/>
<path id="Vector 297" d="M1080 305V10" stroke="#D9D9D9" stroke-width="10"/>
<path id="Vector 146" d="M1080 335V10" stroke="#D9D9D9" stroke-width="10"/>
<path id="Vector 304" d="M1560 615L1560 465" stroke="#D9D9D9" stroke-width="10"/>
<path id="Vector 305" d="M1460 615L1460 465" stroke="#D9D9D9" stroke-width="10"/>
<path id="Vector 306" d="M1370 610L1370 460" stroke="#D9D9D9" stroke-width="10"/>
<path id="Vector 307" d="M1760 610L1760 460" stroke="#D9D9D9" stroke-width="10"/>
<path id="Vector 308" d="M1660 615L1660 465" stroke="#D9D9D9" stroke-width="10"/>
<path id="Vector 301" d="M1270 1105V465" stroke="#D9D9D9" stroke-width="10"/>
<path id="Vector 312" d="M1010 1105L1010 695" stroke="#A5A5A7" stroke-width="6"/>
<path id="Vector 302" d="M1850 1105V465" stroke="#D9D9D9" stroke-width="10"/>
<path id="Vector 310" d="M2150 1105V465" stroke="#D9D9D9" stroke-width="10"/>
<path id="Vector 311" d="M2450 1105V465" stroke="#D9D9D9" stroke-width="10"/>
<path id="Vector 300" d="M2300 335V10" stroke="#D9D9D9" stroke-width="10"/>
<path id="Vector 296" d="M1850 335V10" stroke="#D9D9D9" stroke-width="10"/>
<path id="Vector 295" d="M1530 335L1530 10" stroke="#D9D9D9" stroke-width="10"/>
<path id="Vector 149" d="M1740 155V265" stroke="#D9D9D9" stroke-width="10"/>
<path id="Subtract_2" fill-rule="evenodd" clip-rule="evenodd" d="M1850 150H1630H1625V155L1625 265V270H1630H1661V260H1635L1635 160H1850V150ZM1707 260V270H1774V260H1707ZM1845 270H1820V260H1845V245H1855V265V275H1845V270Z" fill="#D9D9D9"/>
<path id="Vector 206" d="M630 10L630 335" stroke="#D9D9D9" stroke-width="10"/>
<path id="Vector 214" d="M530 155L530 265" stroke="#D9D9D9" stroke-width="10"/>
<path id="Vector 293" d="M850 465L850 695L1150 695L1150 465" stroke="#D9D9D9" stroke-width="10"/>
<path id="Vector 227" d="M2973 175V265" stroke="#D9D9D9" stroke-width="10"/>
<path id="Vector 226" d="M2897 175V265" stroke="#D9D9D9" stroke-width="10"/>
<path id="Subtract_3" fill-rule="evenodd" clip-rule="evenodd" d="M2820 170L2815 170V175V265V270H2820H2836L2836 260H2825V180L3050 180V170L2820 170ZM2882 260V270H2912V260H2882ZM2958 270H2988V260H2958V270ZM3050 270H3034V260H3050V270Z" fill="#D9D9D9"/>
<path id="Subtract_4" fill-rule="evenodd" clip-rule="evenodd" d="M425 150H430H630V160H435V260H457L457 270H430H425V265V155V150ZM557 270H503V260H557V270ZM603 270H630V260H603V270Z" fill="#D9D9D9"/>
<path id="Subtract_5" fill-rule="evenodd" clip-rule="evenodd" d="M1540 270L1540 260H1530V270H1540ZM1620 270H1630V260H1620V270Z" fill="#D9D9D9"/>
<path id="Vector 285" d="M2740 265H2750" stroke="#D9D9D9" stroke-width="10"/>
<path id="Vector 286" d="M2810 265H2820" stroke="#D9D9D9" stroke-width="10"/>
<path id="Vector 283" d="M5 265L330 265" stroke="#D9D9D9" stroke-width="10"/>
<path id="Subtract_6" fill-rule="evenodd" clip-rule="evenodd" d="M340 270L340 260H330V270H340ZM420 270H430V260H420V270Z" fill="#D9D9D9"/>
<path id="Subtract_7" fill-rule="evenodd" clip-rule="evenodd" d="M2758 470V460H2220V470H2758ZM2804 470H3050V460H2804V470ZM2174 460V470H1920V460H2174ZM1874 470V460H1828V470H1874ZM1782 460V470H1733V460H1782ZM1687 470V460H1633V470H1687ZM1587 460V470H1533V460H1587ZM1487 470V460H1438V470H1487ZM1392 460V470H1343V460H1392ZM1297 470V460H1230V470H1297ZM1184 460V470H1110V460H1184ZM1064 470V460H403V470H1064ZM357 460V470H5V460H357Z" fill="#D9D9D9"/>
<path id="Subtract_8" fill-rule="evenodd" clip-rule="evenodd" d="M1782 620V610L1343 610V620L1782 620ZM1828 620L1850 620V610L1828 610V620ZM1297 610L1297 620L1270 620V610L1297 610Z" fill="#D9D9D9"/>
<path id="Subtract_9" fill-rule="evenodd" clip-rule="evenodd" d="M1274 340V330H880V340H1274ZM1320 340H1535V330H1320V340ZM834 330V340H625V330H834Z" fill="#D9D9D9"/>
<path id="Subtract_10" fill-rule="evenodd" clip-rule="evenodd" d="M1994 340V330L1845 330V340L1994 340ZM2040 340L2745 340V330L2040 330V340Z" fill="#D9D9D9"/>
<path id="Subtract_11" fill-rule="evenodd" clip-rule="evenodd" d="M2745 279L2745 10H2735L2735 279H2745ZM2745 325H2735L2735 335H2745V325Z" fill="#D9D9D9"/>
<path id="Subtract_12" fill-rule="evenodd" clip-rule="evenodd" d="M325 465L325 435H335L335 465H325ZM335 389H325L325 160H335L335 389ZM335 114H325L325 10H335L335 114Z" fill="#D9D9D9"/>
<path id="Subtract_13" fill-rule="evenodd" clip-rule="evenodd" d="M1554 15V5H400V15H1554ZM1600 15H2764V5H1600V15ZM5 5H354V15H10V1100H3045V15H2810V5H3050H3055V10V1105V1110H3050H5H0V1105V10V5H5Z" fill="#D9D9D9"/>
</g>
<g id="Textes">
<path id="b_n_116" d="M2727.91 793V775.528H2731.12V782.704H2735.59V775.528H2738.8V793H2735.59V785.728H2731.12V793H2727.91ZM2748.29 793V778.816L2746.03 779.488L2745.75 776.512L2749.25 775.408H2751.51V793H2748.29ZM2756.24 793V778.816L2753.98 779.488L2753.69 776.512L2757.2 775.408H2759.45V793H2756.24ZM2767.45 793.264C2766.03 793.264 2764.9 792.808 2764.04 791.92C2762.84 790.72 2762.07 788.776 2762.07 785.032V784.792C2762.07 778.192 2764.47 775.264 2768.24 775.264C2769.58 775.264 2770.78 775.672 2771.93 776.512L2770.54 779.176C2770.09 778.768 2769.2 778.24 2768.21 778.24C2766.49 778.24 2765.43 779.8 2765.31 782.752C2766.1 782.104 2767.01 781.744 2768.19 781.744C2770.42 781.744 2772.65 783.424 2772.65 787.192V787.264C2772.65 790.84 2770.35 793.264 2767.45 793.264ZM2767.42 790.384C2768.77 790.384 2769.53 789.256 2769.53 787.432V787.408C2769.53 785.584 2768.74 784.48 2767.42 784.48C2766.1 784.48 2765.31 785.584 2765.31 787.408V787.432C2765.31 789.256 2766.08 790.384 2767.42 790.384Z" fill="#D9D9D9"/>
<path id="b_n_115" d="M2498.9 181V163.528H2502.12V170.704H2506.58V163.528H2509.8V181H2506.58V173.728H2502.12V181H2498.9ZM2519.28 181V166.816L2517.03 167.488L2516.74 164.512L2520.24 163.408H2522.5V181H2519.28ZM2527.23 181V166.816L2524.97 167.488L2524.68 164.512L2528.19 163.408H2530.44V181H2527.23ZM2537.17 181.264C2535.53 181.264 2533.95 180.664 2532.7 179.536L2534.31 177.016C2535.17 177.784 2535.94 178.24 2537.07 178.24C2538.53 178.24 2539.52 177.16 2539.52 175.432V175.408C2539.52 173.68 2538.39 172.744 2536.95 172.744C2536.25 172.744 2535.65 172.936 2535.1 173.2L2533.37 172.072L2533.85 163.528H2542.01V166.528H2536.45L2536.23 170.032C2536.69 169.912 2537.14 169.816 2537.84 169.816C2540.33 169.816 2542.71 171.352 2542.71 175.264V175.336C2542.71 179.056 2540.33 181.264 2537.17 181.264Z" fill="#D9D9D9"/>
<path id="b_n_114" d="M2277.73 793V775.528H2280.95V782.704H2285.41V775.528H2288.63V793H2285.41V785.728H2280.95V793H2277.73ZM2298.11 793V778.816L2295.86 779.488L2295.57 776.512L2299.07 775.408H2301.33V793H2298.11ZM2306.06 793V778.816L2303.8 779.488L2303.52 776.512L2307.02 775.408H2309.28V793H2306.06ZM2318.18 793V789.544H2311.77L2311.51 787.168L2318.21 775.456H2321.18V786.784H2323.03V789.544H2321.18V793H2318.18ZM2314.73 786.784H2318.18V780.64L2314.73 786.784Z" fill="#D9D9D9"/>
<path id="b_n_113" d="M2053.48 181V163.528H2056.7V170.704H2061.16V163.528H2064.38V181H2061.16V173.728H2056.7V181H2053.48ZM2073.86 181V166.816L2071.61 167.488L2071.32 164.512L2074.82 163.408H2077.08V181H2073.86ZM2081.81 181V166.816L2079.55 167.488L2079.27 164.512L2082.77 163.408H2085.03V181H2081.81ZM2091.63 181.264C2089.78 181.264 2088.22 180.592 2087.09 179.536L2088.68 177.04C2089.23 177.592 2090.12 178.288 2091.44 178.288C2092.85 178.288 2093.88 177.328 2093.88 175.768V175.72C2093.88 174.064 2092.59 173.104 2090.19 173.104H2089.83L2089.59 171.016L2093.09 166.528H2087.86V163.528H2096.86V166.216L2093.12 170.8C2095.2 171.304 2097.08 172.792 2097.08 175.624V175.72C2097.08 179.08 2094.7 181.264 2091.63 181.264Z" fill="#D9D9D9"/>
<path id="b_n_112" d="M1978.85 793V775.528H1982.07V782.704H1986.53V775.528H1989.75V793H1986.53V785.728H1982.07V793H1978.85ZM1999.24 793V778.816L1996.98 779.488L1996.69 776.512L2000.2 775.408H2002.45V793H1999.24ZM2007.18 793V778.816L2004.93 779.488L2004.64 776.512L2008.14 775.408H2010.4V793H2007.18ZM2013.06 793V790.336L2017.5 784.36C2018.99 782.344 2019.47 781.384 2019.47 780.28C2019.47 779.056 2018.61 778.336 2017.55 778.336C2016.49 778.336 2015.7 778.984 2014.77 780.136L2012.89 777.904C2014.21 776.176 2016.04 775.264 2017.86 775.264C2020.62 775.264 2022.71 776.968 2022.71 779.992V780.04C2022.71 782.008 2022.04 783.256 2020 785.944L2016.93 789.976H2022.59V793H2013.06Z" fill="#D9D9D9"/>
<path id="b_n_111" d="M1785.65 548V530.528H1788.86V537.704H1793.33V530.528H1796.54V548H1793.33V540.728H1788.86V548H1785.65ZM1806.03 548V533.816L1803.77 534.488L1803.49 531.512L1806.99 530.408H1809.25V548H1806.03ZM1813.97 548V533.816L1811.72 534.488L1811.43 531.512L1814.93 530.408H1817.19V548H1813.97ZM1821.92 548V533.816L1819.66 534.488L1819.38 531.512L1822.88 530.408H1825.14V548H1821.92Z" fill="#D9D9D9"/>
<path id="b_n_110" d="M1687.46 548V530.528H1690.68V537.704H1695.14V530.528H1698.36V548H1695.14V540.728H1690.68V548H1687.46ZM1707.85 548V533.816L1705.59 534.488L1705.3 531.512L1708.81 530.408H1711.06V548H1707.85ZM1715.79 548V533.816L1713.53 534.488L1713.25 531.512L1716.75 530.408H1719.01V548H1715.79ZM1727.31 548.264C1723.74 548.264 1721.62 545.264 1721.62 539.576V538.976C1721.62 533.24 1723.78 530.264 1727.34 530.264C1730.86 530.264 1733 533.264 1733 538.952V539.552C1733 545.288 1730.86 548.264 1727.31 548.264ZM1727.34 545.288C1728.75 545.288 1729.76 543.752 1729.76 539.48V539.072C1729.76 534.8 1728.68 533.24 1727.31 533.24C1725.9 533.24 1724.89 534.776 1724.89 539.048V539.456C1724.89 543.728 1725.94 545.288 1727.34 545.288Z" fill="#D9D9D9"/>
<path id="b_n_109" d="M1585.75 548V530.528H1588.96V537.704H1593.43V530.528H1596.64V548H1593.43V540.728H1588.96V548H1585.75ZM1606.13 548V533.816L1603.87 534.488L1603.59 531.512L1607.09 530.408H1609.35V548H1606.13ZM1617.65 548.264C1614.08 548.264 1611.96 545.264 1611.96 539.576V538.976C1611.96 533.24 1614.12 530.264 1617.68 530.264C1621.2 530.264 1623.34 533.264 1623.34 538.952V539.552C1623.34 545.288 1621.2 548.264 1617.65 548.264ZM1617.68 545.288C1619.09 545.288 1620.1 543.752 1620.1 539.48V539.072C1620.1 534.8 1619.02 533.24 1617.65 533.24C1616.24 533.24 1615.23 534.776 1615.23 539.048V539.456C1615.23 543.728 1616.28 545.288 1617.68 545.288ZM1629.62 545.288C1631.32 545.288 1632.38 543.776 1632.5 541.016C1631.71 541.664 1630.8 541.976 1629.67 541.976C1627.39 541.976 1625.18 540.272 1625.18 536.432V536.36C1625.18 532.712 1627.51 530.264 1630.39 530.264C1631.8 530.264 1632.93 530.72 1633.8 531.608C1635 532.88 1635.76 534.704 1635.76 538.496V538.736C1635.76 545.336 1633.36 548.264 1629.6 548.264C1628.25 548.264 1626.98 547.856 1625.64 546.824L1627.03 544.16C1627.77 544.76 1628.66 545.288 1629.62 545.288ZM1630.41 539.24C1631.76 539.24 1632.55 538.136 1632.55 536.216V536.192C1632.55 534.272 1631.76 533.144 1630.41 533.144C1629.07 533.144 1628.3 534.272 1628.3 536.192V536.216C1628.3 538.136 1629.09 539.24 1630.41 539.24Z" fill="#D9D9D9"/>
<path id="b_n_108" d="M1485.82 548V530.528H1489.03V537.704H1493.5V530.528H1496.71V548H1493.5V540.728H1489.03V548H1485.82ZM1506.2 548V533.816L1503.94 534.488L1503.66 531.512L1507.16 530.408H1509.42V548H1506.2ZM1517.72 548.264C1514.15 548.264 1512.03 545.264 1512.03 539.576V538.976C1512.03 533.24 1514.19 530.264 1517.75 530.264C1521.27 530.264 1523.41 533.264 1523.41 538.952V539.552C1523.41 545.288 1521.27 548.264 1517.72 548.264ZM1517.75 545.288C1519.16 545.288 1520.17 543.752 1520.17 539.48V539.072C1520.17 534.8 1519.09 533.24 1517.72 533.24C1516.31 533.24 1515.3 534.776 1515.3 539.048V539.456C1515.3 543.728 1516.35 545.288 1517.75 545.288ZM1530.51 548.264C1527.43 548.264 1525.2 546.344 1525.2 543.272V543.152C1525.2 540.92 1526.28 539.696 1527.63 538.952C1526.4 538.208 1525.59 536.888 1525.59 535.088V534.968C1525.59 532.208 1527.63 530.264 1530.51 530.264C1533.39 530.264 1535.43 532.208 1535.43 534.968V535.088C1535.43 536.888 1534.59 538.208 1533.41 538.952C1534.75 539.696 1535.83 540.92 1535.83 543.152V543.272C1535.83 546.344 1533.58 548.264 1530.51 548.264ZM1530.51 537.68C1531.56 537.68 1532.43 536.744 1532.43 535.232V535.208C1532.43 533.672 1531.54 532.88 1530.51 532.88C1529.47 532.88 1528.59 533.672 1528.59 535.208V535.232C1528.59 536.744 1529.45 537.68 1530.51 537.68ZM1530.51 545.624C1531.73 545.624 1532.71 544.688 1532.71 542.984V542.936C1532.71 541.304 1531.75 540.344 1530.51 540.344C1529.26 540.344 1528.32 541.304 1528.32 542.936V542.984C1528.32 544.688 1529.28 545.624 1530.51 545.624Z" fill="#D9D9D9"/>
<path id="b_n_107" d="M1391.5 548V530.528H1394.71V537.704H1399.18V530.528H1402.39V548H1399.18V540.728H1394.71V548H1391.5ZM1411.88 548V533.816L1409.62 534.488L1409.34 531.512L1412.84 530.408H1415.1V548H1411.88ZM1423.4 548.264C1419.83 548.264 1417.71 545.264 1417.71 539.576V538.976C1417.71 533.24 1419.87 530.264 1423.43 530.264C1426.95 530.264 1429.09 533.264 1429.09 538.952V539.552C1429.09 545.288 1426.95 548.264 1423.4 548.264ZM1423.43 545.288C1424.84 545.288 1425.85 543.752 1425.85 539.48V539.072C1425.85 534.8 1424.77 533.24 1423.4 533.24C1421.99 533.24 1420.98 534.776 1420.98 539.048V539.456C1420.98 543.728 1422.03 545.288 1423.43 545.288ZM1431.3 548L1436.75 533.624H1430.6V530.528H1440.06V532.904L1434.68 548H1431.3Z" fill="#D9D9D9"/>
<path id="b_n_106" d="M1295.73 548V530.528H1298.94V537.704H1303.41V530.528H1306.62V548H1303.41V540.728H1298.94V548H1295.73ZM1316.11 548V533.816L1313.85 534.488L1313.56 531.512L1317.07 530.408H1319.32V548H1316.11ZM1327.63 548.264C1324.05 548.264 1321.94 545.264 1321.94 539.576V538.976C1321.94 533.24 1324.1 530.264 1327.65 530.264C1331.18 530.264 1333.32 533.264 1333.32 538.952V539.552C1333.32 545.288 1331.18 548.264 1327.63 548.264ZM1327.65 545.288C1329.07 545.288 1330.08 543.752 1330.08 539.48V539.072C1330.08 534.8 1329 533.24 1327.63 533.24C1326.21 533.24 1325.2 534.776 1325.2 539.048V539.456C1325.2 543.728 1326.26 545.288 1327.65 545.288ZM1340.63 548.264C1339.21 548.264 1338.08 547.808 1337.22 546.92C1336.02 545.72 1335.25 543.776 1335.25 540.032V539.792C1335.25 533.192 1337.65 530.264 1341.42 530.264C1342.76 530.264 1343.96 530.672 1345.12 531.512L1343.72 534.176C1343.27 533.768 1342.38 533.24 1341.4 533.24C1339.67 533.24 1338.61 534.8 1338.49 537.752C1339.28 537.104 1340.2 536.744 1341.37 536.744C1343.6 536.744 1345.84 538.424 1345.84 542.192V542.264C1345.84 545.84 1343.53 548.264 1340.63 548.264ZM1340.6 545.384C1341.95 545.384 1342.72 544.256 1342.72 542.432V542.408C1342.72 540.584 1341.92 539.48 1340.6 539.48C1339.28 539.48 1338.49 540.584 1338.49 542.408V542.432C1338.49 544.256 1339.26 545.384 1340.6 545.384Z" fill="#D9D9D9"/>
<path id="b_n_105" d="M1280.72 181V163.528H1283.93V170.704H1288.4V163.528H1291.61V181H1288.4V173.728H1283.93V181H1280.72ZM1301.1 181V166.816L1298.84 167.488L1298.56 164.512L1302.06 163.408H1304.32V181H1301.1ZM1312.62 181.264C1309.04 181.264 1306.93 178.264 1306.93 172.576V171.976C1306.93 166.24 1309.09 163.264 1312.64 163.264C1316.17 163.264 1318.31 166.264 1318.31 171.952V172.552C1318.31 178.288 1316.17 181.264 1312.62 181.264ZM1312.64 178.288C1314.06 178.288 1315.07 176.752 1315.07 172.48V172.072C1315.07 167.8 1313.99 166.24 1312.62 166.24C1311.2 166.24 1310.2 167.776 1310.2 172.048V172.456C1310.2 176.728 1311.25 178.288 1312.64 178.288ZM1324.35 181.264C1322.72 181.264 1321.13 180.664 1319.89 179.536L1321.49 177.016C1322.36 177.784 1323.13 178.24 1324.25 178.24C1325.72 178.24 1326.7 177.16 1326.7 175.432V175.408C1326.7 173.68 1325.57 172.744 1324.13 172.744C1323.44 172.744 1322.84 172.936 1322.29 173.2L1320.56 172.072L1321.04 163.528H1329.2V166.528H1323.63L1323.41 170.032C1323.87 169.912 1324.33 169.816 1325.02 169.816C1327.52 169.816 1329.89 171.352 1329.89 175.264V175.336C1329.89 179.056 1327.52 181.264 1324.35 181.264Z" fill="#D9D9D9"/>
<path id="b_n_104" d="M829.549 181V163.528H832.765V170.704H837.229V163.528H840.445V181H837.229V173.728H832.765V181H829.549ZM849.931 181V166.816L847.675 167.488L847.387 164.512L850.891 163.408H853.147V181H849.931ZM861.453 181.264C857.877 181.264 855.765 178.264 855.765 172.576V171.976C855.765 166.24 857.925 163.264 861.477 163.264C865.005 163.264 867.141 166.264 867.141 171.952V172.552C867.141 178.288 865.005 181.264 861.453 181.264ZM861.477 178.288C862.893 178.288 863.901 176.752 863.901 172.48V172.072C863.901 167.8 862.821 166.24 861.453 166.24C860.037 166.24 859.029 167.776 859.029 172.048V172.456C859.029 176.728 860.085 178.288 861.477 178.288ZM875.365 181V177.544H868.957L868.693 175.168L875.389 163.456H878.365V174.784H880.213V177.544H878.365V181H875.365ZM871.909 174.784H875.365V168.64L871.909 174.784Z" fill="#D9D9D9"/>
<path id="b_n_103&#208;&#154;" d="M969.76 588V570.528H972.976V577.704H977.44V570.528H980.656V588H977.44V580.728H972.976V588H969.76ZM990.142 588V573.816L987.886 574.488L987.598 571.512L991.102 570.408H993.358V588H990.142ZM1001.66 588.264C998.088 588.264 995.976 585.264 995.976 579.576V578.976C995.976 573.24 998.136 570.264 1001.69 570.264C1005.22 570.264 1007.35 573.264 1007.35 578.952V579.552C1007.35 585.288 1005.22 588.264 1001.66 588.264ZM1001.69 585.288C1003.1 585.288 1004.11 583.752 1004.11 579.48V579.072C1004.11 574.8 1003.03 573.24 1001.66 573.24C1000.25 573.24 999.24 574.776 999.24 579.048V579.456C999.24 583.728 1000.3 585.288 1001.69 585.288ZM1013.08 588.264C1011.24 588.264 1009.68 587.592 1008.55 586.536L1010.13 584.04C1010.68 584.592 1011.57 585.288 1012.89 585.288C1014.31 585.288 1015.34 584.328 1015.34 582.768V582.72C1015.34 581.064 1014.04 580.104 1011.64 580.104H1011.28L1011.04 578.016L1014.55 573.528H1009.32V570.528H1018.32V573.216L1014.57 577.8C1016.66 578.304 1018.53 579.792 1018.53 582.624V582.72C1018.53 586.08 1016.16 588.264 1013.08 588.264ZM1020.85 588V570.528H1024.07L1024.05 577.776H1025.01L1028.63 570.528H1032.23L1027.65 579.048L1032.47 588H1028.87L1024.96 580.656H1024.05L1024.07 588H1020.85Z" fill="#D9D9D9"/>
<path id="b_n_103" d="M612.893 793V775.528H616.109V782.704H620.573V775.528H623.789V793H620.573V785.728H616.109V793H612.893ZM633.275 793V778.816L631.019 779.488L630.731 776.512L634.235 775.408H636.491V793H633.275ZM644.796 793.264C641.22 793.264 639.108 790.264 639.108 784.576V783.976C639.108 778.24 641.268 775.264 644.82 775.264C648.348 775.264 650.484 778.264 650.484 783.952V784.552C650.484 790.288 648.348 793.264 644.796 793.264ZM644.82 790.288C646.236 790.288 647.244 788.752 647.244 784.48V784.072C647.244 779.8 646.164 778.24 644.796 778.24C643.38 778.24 642.372 779.776 642.372 784.048V784.456C642.372 788.728 643.428 790.288 644.82 790.288ZM656.217 793.264C654.369 793.264 652.809 792.592 651.681 791.536L653.265 789.04C653.817 789.592 654.705 790.288 656.025 790.288C657.441 790.288 658.473 789.328 658.473 787.768V787.72C658.473 786.064 657.177 785.104 654.777 785.104H654.417L654.177 783.016L657.681 778.528H652.449V775.528H661.449V778.216L657.705 782.8C659.793 783.304 661.665 784.792 661.665 787.624V787.72C661.665 791.08 659.289 793.264 656.217 793.264Z" fill="#D9D9D9"/>
<path id="b_n_102" d="M142.788 373V355.528H146.004V362.704H150.468V355.528H153.684V373H150.468V365.728H146.004V373H142.788ZM163.17 373V358.816L160.914 359.488L160.626 356.512L164.13 355.408H166.386V373H163.17ZM174.691 373.264C171.115 373.264 169.003 370.264 169.003 364.576V363.976C169.003 358.24 171.163 355.264 174.715 355.264C178.243 355.264 180.379 358.264 180.379 363.952V364.552C180.379 370.288 178.243 373.264 174.691 373.264ZM174.715 370.288C176.131 370.288 177.139 368.752 177.139 364.48V364.072C177.139 359.8 176.059 358.24 174.691 358.24C173.275 358.24 172.267 359.776 172.267 364.048V364.456C172.267 368.728 173.323 370.288 174.715 370.288ZM182.129 373V370.336L186.569 364.36C188.057 362.344 188.537 361.384 188.537 360.28C188.537 359.056 187.673 358.336 186.617 358.336C185.561 358.336 184.769 358.984 183.833 360.136L181.961 357.904C183.281 356.176 185.105 355.264 186.929 355.264C189.689 355.264 191.777 356.968 191.777 359.992V360.04C191.777 362.008 191.105 363.256 189.065 365.944L185.993 369.976H191.657V373H182.129Z" fill="#D9D9D9"/>
<path id="b_n_101" d="M144.557 146V128.528H147.773V135.704H152.237V128.528H155.453V146H152.237V138.728H147.773V146H144.557ZM164.939 146V131.816L162.683 132.488L162.395 129.512L165.899 128.408H168.155V146H164.939ZM176.461 146.264C172.885 146.264 170.773 143.264 170.773 137.576V136.976C170.773 131.24 172.933 128.264 176.485 128.264C180.013 128.264 182.148 131.264 182.148 136.952V137.552C182.148 143.288 180.013 146.264 176.461 146.264ZM176.485 143.288C177.901 143.288 178.909 141.752 178.909 137.48V137.072C178.909 132.8 177.829 131.24 176.461 131.24C175.045 131.24 174.037 132.776 174.037 137.048V137.456C174.037 141.728 175.093 143.288 176.485 143.288ZM186.01 146V131.816L183.754 132.488L183.466 129.512L186.97 128.408H189.226V146H186.01Z" fill="#D9D9D9"/>
</g>
<g id="Entrances">
<circle id="31" cx="2787" cy="10" r="10" fill="#9CBBFF" fill-opacity="0.01"/>
<circle id="30" cx="1580" cy="265" r="10" fill="#9CBBFF" fill-opacity="0.01"/>
<circle id="29" cx="377" cy="10" r="10" fill="#9CBBFF" fill-opacity="0.01"/>
<circle id="28" cx="380" cy="265" r="10" fill="#9CBBFF" fill-opacity="0.01"/>
<circle id="27" cx="3011" cy="265" r="10" fill="#9CBBFF" fill-opacity="0.01"/>
<circle id="26" cx="2935" cy="265" r="10" fill="#9CBBFF" fill-opacity="0.01"/>
<circle id="25" cx="2859" cy="263" r="10" fill="#9CBBFF" fill-opacity="0.01"/>
<circle id="24" cx="2781" cy="465" r="10" fill="#9CBBFF" fill-opacity="0.01"/>
<circle id="23" cx="2780" cy="266" r="10" fill="#9CBBFF" fill-opacity="0.01"/>
<circle id="22" cx="2740" cy="302" r="10" fill="#9CBBFF" fill-opacity="0.01"/>
<circle id="21" cx="2197" cy="465" r="10" fill="#9CBBFF" fill-opacity="0.01"/>
<circle id="20" cx="2017" cy="335" r="10" fill="#9CBBFF" fill-opacity="0.01"/>
<circle id="17" cx="1577" cy="10" r="10" fill="#9CBBFF" fill-opacity="0.01"/>
<circle id="16" cx="1897" cy="465" r="10" fill="#9CBBFF" fill-opacity="0.01"/>
<circle id="15" cx="1805" cy="465" r="10" fill="#9CBBFF" fill-opacity="0.01"/>
<circle id="14" cx="1711" cy="464" r="10" fill="#9CBBFF" fill-opacity="0.01"/>
<circle id="13" cx="1610" cy="464" r="10" fill="#9CBBFF" fill-opacity="0.01"/>
<circle id="12" cx="1510" cy="464" r="10" fill="#9CBBFF" fill-opacity="0.01"/>
<circle id="11" cx="1415" cy="464" r="10" fill="#9CBBFF" fill-opacity="0.01"/>
<circle id="10" cx="1320" cy="465" r="10" fill="#9CBBFF" fill-opacity="0.01"/>
<circle id="9" cx="1207" cy="464" r="10" fill="#9CBBFF" fill-opacity="0.01"/>
<circle id="8" cx="1297" cy="335" r="10" fill="#9CBBFF" fill-opacity="0.01"/>
<circle id="7" cx="1087" cy="465" r="10" fill="#9CBBFF" fill-opacity="0.01"/>
<circle id="6" cx="857" cy="335" r="10" fill="#9CBBFF" fill-opacity="0.01"/>
<circle id="5" cx="380" cy="465" r="10" fill="#9CBBFF" fill-opacity="0.01"/>
<circle id="4" cx="330" cy="412" r="10" fill="#9CBBFF" fill-opacity="0.01"/>
<circle id="1" cx="330" cy="137" r="10" fill="#9CBBFF" fill-opacity="0.01"/>
</g>
<g id="Icons">
<g id="Elevator">
<g id="Vector">
<path d="M2875 217L2869 211L2863 217H2875Z" fill="#A091F8"/>
<path d="M2875 221L2869 227L2863 221H2875Z" fill="#A091F8"/>
<path d="M2857 217C2857 214 2855 211 2852 211H2848C2845 211 2843 214 2843 217V222C2843 224 2844.5 225.5 2846 225.5V235C2846 236.6 2847.33 237 2848 237H2852C2852.67 237 2854 236.6 2854 235V225.5C2855.5 225.5 2857 224 2857 222V217Z" fill="#A091F8"/>
<path d="M2854 204C2854 206.209 2852.21 208 2850 208C2847.79 208 2846 206.209 2846 204C2846 201.791 2847.79 200 2850 200C2852.21 200 2854 201.791 2854 204Z" fill="#A091F8"/>
</g>
<path id="Vector 201" d="M2846.5 247.5H2834.5V192.5H2883.5V247.5H2871.5" stroke="#A091F8" stroke-width="5" stroke-linecap="round" stroke-linejoin="round"/>
</g>
<g id="Elevator_2">
<g id="Vector_2">
<path d="M2952 217L2946 211L2940 217H2952Z" fill="#A091F8"/>
<path d="M2952 221L2946 227L2940 221H2952Z" fill="#A091F8"/>
<path d="M2934 217C2934 214 2932 211 2929 211H2925C2922 211 2920 214 2920 217V222C2920 224 2921.5 225.5 2923 225.5V235C2923 236.6 2924.33 237 2925 237H2929C2929.67 237 2931 236.6 2931 235V225.5C2932.5 225.5 2934 224 2934 222V217Z" fill="#A091F8"/>
<path d="M2931 204C2931 206.209 2929.21 208 2927 208C2924.79 208 2923 206.209 2923 204C2923 201.791 2924.79 200 2927 200C2929.21 200 2931 201.791 2931 204Z" fill="#A091F8"/>
</g>
<path id="Vector 201_2" d="M2923.5 247.5H2911.5V192.5H2960.5V247.5H2948.5" stroke="#A091F8" stroke-width="5" stroke-linecap="round" stroke-linejoin="round"/>
</g>
<g id="Elevator_3">
<g id="Vector_3">
<path d="M3028 217L3022 211L3016 217H3028Z" fill="#A091F8"/>
<path d="M3028 221L3022 227L3016 221H3028Z" fill="#A091F8"/>
<path d="M3010 217C3010 214 3008 211 3005 211H3001C2998 211 2996 214 2996 217V222C2996 224 2997.5 225.5 2999 225.5V235C2999 236.6 3000.33 237 3001 237H3005C3005.67 237 3007 236.6 3007 235V225.5C3008.5 225.5 3010 224 3010 222V217Z" fill="#A091F8"/>
<path d="M3007 204C3007 206.209 3005.21 208 3003 208C3000.79 208 2999 206.209 2999 204C2999 201.791 3000.79 200 3003 200C3005.21 200 3007 201.791 3007 204Z" fill="#A091F8"/>
</g>
<path id="Vector 201_3" d="M2999.5 247.5H2987.5V192.5H3036.5V247.5H3024.5" stroke="#A091F8" stroke-width="5" stroke-linecap="round" stroke-linejoin="round"/>
</g>
<g id="Stair">
<g id="Stair frame">
<path id="Vector 152" d="M2976 70H2951V85H2936V100H2921V115H2896" stroke="#9CD9BC" stroke-width="5" stroke-linecap="round" stroke-linejoin="round"/>
<path id="Vector 154" d="M2908 70H2923M2923 70L2920 84M2923 70L2896 91" stroke="#9CD9BC" stroke-width="3" stroke-linecap="round" stroke-linejoin="round"/>
<path id="Vector 155" d="M2964 115H2949M2949 115L2952 101M2949 115L2976 94" stroke="#9CD9BC" stroke-width="3" stroke-linecap="round" stroke-linejoin="round"/>
</g>
</g>
<g id="Stair_2">
<g id="Stair frame_2">
<path id="Vector 152_2" d="M1783 62H1758V77H1743V92H1728V107H1703" stroke="#9CD9BC" stroke-width="5" stroke-linecap="round" stroke-linejoin="round"/>
<path id="Vector 154_2" d="M1715 62H1730M1730 62L1727 76M1730 62L1703 83" stroke="#9CD9BC" stroke-width="3" stroke-linecap="round" stroke-linejoin="round"/>
<path id="Vector 155_2" d="M1771 107H1756M1756 107L1759 93M1756 107L1783 86" stroke="#9CD9BC" stroke-width="3" stroke-linecap="round" stroke-linejoin="round"/>
</g>
</g>
<g id="Stair_3">
<g id="Stair frame_3">
<path id="Vector 152_3" d="M571 55H546V70H531V85H516V100H491" stroke="#9CD9BC" stroke-width="5" stroke-linecap="round" stroke-linejoin="round"/>
<path id="Vector 154_3" d="M503 55H518M518 55L515 69M518 55L491 76" stroke="#9CD9BC" stroke-width="3" stroke-linecap="round" stroke-linejoin="round"/>
<path id="Vector 155_3" d="M559 100H544M544 100L547 86M544 100L571 79" stroke="#9CD9BC" stroke-width="3" stroke-linecap="round" stroke-linejoin="round"/>
</g>
</g>
<g id="Doors">
<path id="Vector 301_2" d="M374 274L346 267H340" stroke="#A5A5A7" stroke-width="6"/>
<path id="Vector 302_2" d="M386 274L414 267H420" stroke="#A5A5A7" stroke-width="6"/>
</g>
<g id="Doors_2">
<path id="Vector 301_3" d="M1574 274L1546 267H1540" stroke="#A5A5A7" stroke-width="6"/>
<path id="Vector 302_3" d="M1586 274L1614 267H1620" stroke="#A5A5A7" stroke-width="6"/>
</g>
<g id="Doors_3">
<path id="Vector 301_4" d="M2775.5 274L2754.5 267H2750" stroke="#A5A5A7" stroke-width="6"/>
<path id="Vector 302_4" d="M2784.5 274L2805.5 267H2810" stroke="#A5A5A7" stroke-width="6"/>
</g>
<g id="Enter">
<path id="Rectangle 242" d="M365 39V29H401V77H365V65.5" stroke="#9CD9BC" stroke-width="5" stroke-linecap="round" stroke-linejoin="round"/>
<g id="Group 26">
<path id="Vector 325" d="M352 52.5H383.7M383.7 52.5L373.7 46M383.7 52.5L373.7 59" stroke="#D9D9D9" stroke-width="3" stroke-miterlimit="1" stroke-linecap="round" stroke-linejoin="round"/>
</g>
</g>
<g id="Enter_2">
<path id="Rectangle 242_2" d="M1565 39V29H1601V77H1565V65.5" stroke="#9CD9BC" stroke-width="5" stroke-linecap="round" stroke-linejoin="round"/>
<g id="Group 26_2">
<path id="Vector 325_2" d="M1552 52.5H1583.7M1583.7 52.5L1573.7 46M1583.7 52.5L1573.7 59" stroke="#D9D9D9" stroke-width="3" stroke-miterlimit="1" stroke-linecap="round" stroke-linejoin="round"/>
</g>
</g>
<g id="Enter_3">
<path id="Rectangle 242_3" d="M2775 39V29H2811V77H2775V65.5" stroke="#9CD9BC" stroke-width="5" stroke-linecap="round" stroke-linejoin="round"/>
<g id="Group 26_3">
<path id="Vector 325_3" d="M2762 52.5H2793.7M2793.7 52.5L2783.7 46M2793.7 52.5L2783.7 59" stroke="#D9D9D9" stroke-width="3" stroke-miterlimit="1" stroke-linecap="round" stroke-linejoin="round"/>
</g>
</g>
</g>
</g>
<g id="Captions">
</g>
</g>
</svg>
