<svg width="3055" height="1105" viewBox="0 0 3055 1105" fill="none" xmlns="http://www.w3.org/2000/svg">
<rect width="3055" height="1105" fill="#1E1E1E"/>
<g id="Corpus N (BS)">
<rect width="7680" height="4320" transform="translate(-4336 -3110)" fill="#1E1E1E"/>
<g id="N-5" clip-path="url(#clip0_0_1)">
<rect width="3055" height="1105" fill="#1E1E1E"/>
<g id="Spaces">
<rect id="!n-5-4" x="1740" y="150" width="110" height="110" fill="#3B3C41"/>
<rect id="!n-5-3" x="1630" y="150" width="110" height="110" fill="#3B3C41"/>
<rect id="!n-5-2" x="530" y="150" width="100" height="110" fill="#3B3C41"/>
<rect id="!n-5-1" x="430" y="150" width="100" height="110" fill="#3B3C41"/>
<path id="n-2-stair-1" opacity="0.2" d="M2740 5H3050V170H2820V260H2740V5Z" fill="#9CD9BC"/>
<path id="n-2-stair-2" opacity="0.2" d="M1530 5H1850V150H1630V260H1530V5Z" fill="#9CD9BC"/>
<path id="!n-2-stair-3" opacity="0.2" d="M330 5H630V150H430V260H330V5Z" fill="#9CD9BC"/>
<rect id="n-2-lift-3" opacity="0.2" x="2973" y="170" width="77" height="90" fill="#A091F8"/>
<rect id="n-2-lift-2" opacity="0.2" x="2897" y="170" width="76" height="90" fill="#A091F8"/>
<rect id="n-2-lift-1" opacity="0.2" x="2820" y="170" width="77" height="90" fill="#A091F8"/>
<rect id="n-519" x="1850" y="240" width="560" height="220" fill="#3B3C41"/>
<rect id="n-518" x="2410" y="5" width="330" height="255" fill="#3B3C41"/>
<rect id="n-517" x="2410" y="350" width="330" height="275" fill="#3B3C41"/>
<rect id="n-516" x="2410" y="625" width="330" height="245" fill="#3B3C41"/>
<rect id="n-515" x="2410" y="870" width="330" height="230" fill="#3B3C41"/>
<rect id="n-514" x="2830" y="870" width="220" height="230" fill="#3B3C41"/>
<rect id="n-513" x="2830" y="625" width="220" height="245" fill="#3B3C41"/>
<rect id="n-512" x="2830" y="350" width="220" height="275" fill="#3B3C41"/>
<rect id="n-508" x="1630" y="650" width="220" height="210" fill="#3B3C41"/>
<rect id="n-509" x="1630" y="350" width="220" height="300" fill="#3B3C41"/>
<rect id="n-507" x="1630" y="860" width="220" height="240" fill="#3B3C41"/>
<rect id="n-506" x="1210" y="860" width="320" height="240" fill="#3B3C41"/>
<rect id="n-505" x="1210" y="350" width="320" height="510" fill="#3B3C41"/>
<rect id="n-504" x="1370" y="5" width="160" height="255" fill="#3B3C41"/>
<rect id="n-503" x="1210" y="5" width="160" height="255" fill="#3B3C41"/>
<rect id="n-502" x="5" y="5" width="325" height="255" fill="#3B3C41"/>
<g id="Mask group">
<!-- <mask id="mask0_0_1" style="mask-type:alpha" maskUnits="userSpaceOnUse" x="-2886" y="-372" width="6197" height="2038"> -->
<g id="Frame 1">
<g id="Group 27">
<path id="Vector 337" d="M23.5 -364L-1998.5 1658" stroke="#FF5F5F" stroke-opacity="0.5" stroke-width="20"/>
<path id="Vector 338" d="M103.5 -364L-1918.5 1658" stroke="#FF5F5F" stroke-opacity="0.5" stroke-width="20"/>
<path id="Vector 339" d="M183.5 -364L-1838.5 1658" stroke="#FF5F5F" stroke-opacity="0.5" stroke-width="20"/>
<path id="Vector 340" d="M263.5 -364L-1758.5 1658" stroke="#FF5F5F" stroke-opacity="0.5" stroke-width="20"/>
<path id="Vector 341" d="M343.5 -364L-1678.5 1658" stroke="#FF5F5F" stroke-opacity="0.5" stroke-width="20"/>
<path id="Vector 342" d="M423.5 -364L-1598.5 1658" stroke="#FF5F5F" stroke-opacity="0.5" stroke-width="20"/>
<path id="Vector 343" d="M503.5 -364L-1518.5 1658" stroke="#FF5F5F" stroke-opacity="0.5" stroke-width="20"/>
<path id="Vector 344" d="M583.5 -364L-1438.5 1658" stroke="#FF5F5F" stroke-opacity="0.5" stroke-width="20"/>
<path id="Vector 345" d="M663.5 -364L-1358.5 1658" stroke="#FF5F5F" stroke-opacity="0.5" stroke-width="20"/>
<path id="Vector 346" d="M743.5 -364L-1278.5 1658" stroke="#FF5F5F" stroke-opacity="0.5" stroke-width="20"/>
<path id="Vector 347" d="M823.5 -364L-1198.5 1658" stroke="#FF5F5F" stroke-opacity="0.5" stroke-width="20"/>
<path id="Vector 348" d="M903.5 -364L-1118.5 1658" stroke="#FF5F5F" stroke-opacity="0.5" stroke-width="20"/>
<path id="Vector 349" d="M983.5 -364L-1038.5 1658" stroke="#FF5F5F" stroke-opacity="0.5" stroke-width="20"/>
<path id="Vector 350" d="M1063.5 -364L-958.5 1658" stroke="#FF5F5F" stroke-opacity="0.5" stroke-width="20"/>
<path id="Vector 351" d="M1143.5 -364L-878.5 1658" stroke="#FF5F5F" stroke-opacity="0.5" stroke-width="20"/>
<path id="Vector 352" d="M1223.5 -364L-798.5 1658" stroke="#FF5F5F" stroke-opacity="0.5" stroke-width="20"/>
<path id="Vector 353" d="M1303.5 -364L-718.5 1658" stroke="#FF5F5F" stroke-opacity="0.5" stroke-width="20"/>
<path id="Vector 354" d="M1383.5 -364L-638.5 1658" stroke="#FF5F5F" stroke-opacity="0.5" stroke-width="20"/>
<path id="Vector 355" d="M1463.5 -364L-558.5 1658" stroke="#FF5F5F" stroke-opacity="0.5" stroke-width="20"/>
<path id="Vector 356" d="M1543.5 -364L-478.5 1658" stroke="#FF5F5F" stroke-opacity="0.5" stroke-width="20"/>
<path id="Vector 357" d="M1623.5 -364L-398.5 1658" stroke="#FF5F5F" stroke-opacity="0.5" stroke-width="20"/>
<path id="Vector 358" d="M1703.5 -364L-318.5 1658" stroke="#FF5F5F" stroke-opacity="0.5" stroke-width="20"/>
<path id="Vector 359" d="M1783.5 -364L-238.5 1658" stroke="#FF5F5F" stroke-opacity="0.5" stroke-width="20"/>
<path id="Vector 360" d="M1863.5 -364L-158.5 1658" stroke="#FF5F5F" stroke-opacity="0.5" stroke-width="20"/>
<path id="Vector 361" d="M1943.5 -364L-78.5 1658" stroke="#FF5F5F" stroke-opacity="0.5" stroke-width="20"/>
<path id="Vector 362" d="M2023.5 -364L1.5 1658" stroke="#FF5F5F" stroke-opacity="0.5" stroke-width="20"/>
<path id="Vector 363" d="M2103.5 -364L81.5 1658" stroke="#FF5F5F" stroke-opacity="0.5" stroke-width="20"/>
<path id="Vector 364" d="M2183.5 -364L161.5 1658" stroke="#FF5F5F" stroke-opacity="0.5" stroke-width="20"/>
<path id="Vector 365" d="M2263.5 -364L241.5 1658" stroke="#FF5F5F" stroke-opacity="0.5" stroke-width="20"/>
<path id="Vector 366" d="M2343.5 -364L321.5 1658" stroke="#FF5F5F" stroke-opacity="0.5" stroke-width="20"/>
<path id="Vector 367" d="M2423.5 -364L401.5 1658" stroke="#FF5F5F" stroke-opacity="0.5" stroke-width="20"/>
<path id="Vector 368" d="M2503.5 -364L481.5 1658" stroke="#FF5F5F" stroke-opacity="0.5" stroke-width="20"/>
<path id="Vector 369" d="M2583.5 -364L561.5 1658" stroke="#FF5F5F" stroke-opacity="0.5" stroke-width="20"/>
<path id="Vector 370" d="M2663.5 -364L641.5 1658" stroke="#FF5F5F" stroke-opacity="0.5" stroke-width="20"/>
<path id="Vector 371" d="M2743.5 -364L721.5 1658" stroke="#FF5F5F" stroke-opacity="0.5" stroke-width="20"/>
<path id="Vector 372" d="M2823.5 -364L801.5 1658" stroke="#FF5F5F" stroke-opacity="0.5" stroke-width="20"/>
<path id="Vector 373" d="M2903.5 -364L881.5 1658" stroke="#FF5F5F" stroke-opacity="0.5" stroke-width="20"/>
<path id="Vector 374" d="M2983.5 -364L961.5 1658" stroke="#FF5F5F" stroke-opacity="0.5" stroke-width="20"/>
<path id="Vector 375" d="M3063.5 -364L1041.5 1658" stroke="#FF5F5F" stroke-opacity="0.5" stroke-width="20"/>
<path id="Vector 376" d="M3143.5 -364L1121.5 1658" stroke="#FF5F5F" stroke-opacity="0.5" stroke-width="20"/>
<path id="Vector 377" d="M3223.5 -364L1201.5 1658" stroke="#FF5F5F" stroke-opacity="0.5" stroke-width="20"/>
<path id="Vector 378" d="M3303.5 -364L1281.5 1658" stroke="#FF5F5F" stroke-opacity="0.5" stroke-width="20"/>
</g>
</g>
</mask>
<g mask="url(#mask0_0_1)">
<path id="Rectangle 243" d="M5 5H630V240H1210V460H630V1099H5V5Z" fill="#FF5F5F" fill-opacity="0.5"/>
</g>
</g>
</g>
<g id="Walls">
<path id="Vneskniy kontur" d="M630 5H5V1100H630V460H1210V1100H1850V460H2410V1100H3050V5H2410V240H1850V5H1210V240H630V5Z" stroke="#D9D9D9" stroke-width="10"/>
<path id="Vector 150" d="M1210 340L1210 350" stroke="#D9D9D9" stroke-width="10"/>
<path id="Vector 140" d="M1630 650H1850" stroke="#D9D9D9" stroke-width="10"/>
<path id="Vector 141" d="M1630 860H1850" stroke="#D9D9D9" stroke-width="10"/>
<path id="Vector 144" d="M1210 860H1530" stroke="#D9D9D9" stroke-width="10"/>
<path id="Vector 146" d="M1370 260V5" stroke="#D9D9D9" stroke-width="10"/>
<path id="Vector 149" d="M1740 150V260" stroke="#D9D9D9" stroke-width="10"/>
<path id="Subtract" fill-rule="evenodd" clip-rule="evenodd" d="M1535 5V260V265H1530H1500V255H1525V5H1535ZM1454 255V265H1294V255H1454ZM1248 255V265H1210V255H1248Z" fill="#D9D9D9"/>
<path id="Subtract_2" fill-rule="evenodd" clip-rule="evenodd" d="M1850 145H1630H1625V150L1625 260V265H1630H1661V255H1635L1635 155H1850V145ZM1774 265H1707V255H1774V265ZM1820 265H1850V255H1820V265Z" fill="#D9D9D9"/>
<path id="Vector 138" d="M1210 240L1210 340" stroke="#D9D9D9" stroke-width="10"/>
<path id="Vector 206" d="M630 240L630 270" stroke="#D9D9D9" stroke-width="10"/>
<path id="Subtract_3" fill-rule="evenodd" clip-rule="evenodd" d="M1205 345H1210H1530H1535V350V460H1525V355H1215V461H1205V350V345ZM1525 890V506H1535V890H1525ZM1525 936V1100H1535V936H1525Z" fill="#D9D9D9"/>
<path id="Subtract_4" fill-rule="evenodd" clip-rule="evenodd" d="M1630 345H1625V350V574H1635V355H1850V345H1630ZM1625 620V754H1635V620H1625ZM1625 989V800H1635V989H1625ZM1625 1035V1100H1635V1035H1625Z" fill="#D9D9D9"/>
<path id="Subtract_5" fill-rule="evenodd" clip-rule="evenodd" d="M1845 460L1845 240L1855 240L1855 460H1845Z" fill="#D9D9D9"/>
<path id="Subtract_6" fill-rule="evenodd" clip-rule="evenodd" d="M2405 328L2405 460H2415L2415 328H2405ZM2405 282H2415L2415 240H2405L2405 282Z" fill="#D9D9D9"/>
<path id="Vector 291" d="M2740 350H2410" stroke="#D9D9D9" stroke-width="10"/>
<path id="Vector 222" d="M2740 870H2410" stroke="#D9D9D9" stroke-width="10"/>
<path id="Vector 290" d="M2740 625H2410" stroke="#D9D9D9" stroke-width="10"/>
<path id="Vector 224" d="M3045 625L2825 625" stroke="#D9D9D9" stroke-width="10"/>
<path id="Vector 293" d="M3050 870L2830 870" stroke="#D9D9D9" stroke-width="10"/>
<path id="Subtract_7" fill-rule="evenodd" clip-rule="evenodd" d="M325 5V255H262V265H330H335V260V5H325ZM216 265V255H5V265H216Z" fill="#D9D9D9"/>
<path id="Vector 214" d="M530 150L530 260" stroke="#D9D9D9" stroke-width="10"/>
<path id="Subtract_8" fill-rule="evenodd" clip-rule="evenodd" d="M2745 260V5H2735V255H2670V265H2740H2745V260ZM2624 265V255H2410V265H2624Z" fill="#D9D9D9"/>
<path id="Vector 227" d="M2973 170V260" stroke="#D9D9D9" stroke-width="10"/>
<path id="Vector 226" d="M2897 170V260" stroke="#D9D9D9" stroke-width="10"/>
<path id="Subtract_9" fill-rule="evenodd" clip-rule="evenodd" d="M2820 165L2815 165V170V260V265H2820H2836L2836 255H2825V175L3050 175V165L2820 165ZM2958 265H2988V255H2958V265ZM2912 265V255H2882V265H2912ZM3050 265H3034V255H3050V265Z" fill="#D9D9D9"/>
<path id="Subtract_10" fill-rule="evenodd" clip-rule="evenodd" d="M2830 345H2825V350V480H2835V355H3050V345H2830ZM2835 526H2825V694H2835V526ZM2825 740V960H2835V740H2825ZM2825 1100V1006H2835V1100H2825Z" fill="#D9D9D9"/>
<path id="Subtract_11" fill-rule="evenodd" clip-rule="evenodd" d="M2745 480L2745 345H2735L2735 480H2745ZM2745 526H2735L2735 694H2745L2745 526ZM2745 740H2735L2735 960H2745L2745 740ZM2735 1100L2735 1006H2745L2745 1100H2735Z" fill="#D9D9D9"/>
<path id="Subtract_12" fill-rule="evenodd" clip-rule="evenodd" d="M425 145H430H630V155H435V255H457L457 265H430H425V260V150V145ZM557 265H503V255H557V265ZM603 265H630V255H603V265Z" fill="#D9D9D9"/>
<path id="Subtract_13" fill-rule="evenodd" clip-rule="evenodd" d="M1540 265L1540 255H1530V265H1540ZM1620 265H1630V255H1620V265Z" fill="#D9D9D9"/>
<path id="Vector 285" d="M2740 260H2750" stroke="#D9D9D9" stroke-width="10"/>
<path id="Vector 286" d="M2810 260H2820" stroke="#D9D9D9" stroke-width="10"/>
<path id="Vector 282" d="M2820 350H2830" stroke="#D9D9D9" stroke-width="10"/>
<path id="Subtract_14" fill-rule="evenodd" clip-rule="evenodd" d="M340 265L340 255H330V265H340ZM420 265H430V255H420V265Z" fill="#D9D9D9"/>
</g>
<g id="Textes">
<path id="b_n_519" d="M2106.7 359V341.528H2109.91V348.704H2114.38V341.528H2117.59V359H2114.38V351.728H2109.91V359H2106.7ZM2129.07 359.264C2127.44 359.264 2125.86 358.664 2124.61 357.536L2126.22 355.016C2127.08 355.784 2127.85 356.24 2128.98 356.24C2130.44 356.24 2131.42 355.16 2131.42 353.432V353.408C2131.42 351.68 2130.3 350.744 2128.86 350.744C2128.16 350.744 2127.56 350.936 2127.01 351.2L2125.28 350.072L2125.76 341.528H2133.92V344.528H2128.35L2128.14 348.032C2128.59 347.912 2129.05 347.816 2129.74 347.816C2132.24 347.816 2134.62 349.352 2134.62 353.264V353.336C2134.62 357.056 2132.24 359.264 2129.07 359.264ZM2138.49 359V344.816L2136.24 345.488L2135.95 342.512L2139.45 341.408H2141.71V359H2138.49ZM2148.67 356.288C2150.38 356.288 2151.43 354.776 2151.55 352.016C2150.76 352.664 2149.85 352.976 2148.72 352.976C2146.44 352.976 2144.23 351.272 2144.23 347.432V347.36C2144.23 343.712 2146.56 341.264 2149.44 341.264C2150.86 341.264 2151.98 341.72 2152.85 342.608C2154.05 343.88 2154.82 345.704 2154.82 349.496V349.736C2154.82 356.336 2152.42 359.264 2148.65 359.264C2147.3 359.264 2146.03 358.856 2144.69 357.824L2146.08 355.16C2146.82 355.76 2147.71 356.288 2148.67 356.288ZM2149.46 350.24C2150.81 350.24 2151.6 349.136 2151.6 347.216V347.192C2151.6 345.272 2150.81 344.144 2149.46 344.144C2148.12 344.144 2147.35 345.272 2147.35 347.192V347.216C2147.35 349.136 2148.14 350.24 2149.46 350.24Z" fill="#D9D9D9"/>
<path id="b_n_518" d="M2551.77 141V123.528H2554.98V130.704H2559.45V123.528H2562.66V141H2559.45V133.728H2554.98V141H2551.77ZM2574.14 141.264C2572.51 141.264 2570.93 140.664 2569.68 139.536L2571.29 137.016C2572.15 137.784 2572.92 138.24 2574.05 138.24C2575.51 138.24 2576.49 137.16 2576.49 135.432V135.408C2576.49 133.68 2575.37 132.744 2573.93 132.744C2573.23 132.744 2572.63 132.936 2572.08 133.2L2570.35 132.072L2570.83 123.528H2578.99V126.528H2573.42L2573.21 130.032C2573.66 129.912 2574.12 129.816 2574.81 129.816C2577.31 129.816 2579.69 131.352 2579.69 135.264V135.336C2579.69 139.056 2577.31 141.264 2574.14 141.264ZM2583.56 141V126.816L2581.31 127.488L2581.02 124.512L2584.52 123.408H2586.78V141H2583.56ZM2594.56 141.264C2591.49 141.264 2589.25 139.344 2589.25 136.272V136.152C2589.25 133.92 2590.33 132.696 2591.68 131.952C2590.45 131.208 2589.64 129.888 2589.64 128.088V127.968C2589.64 125.208 2591.68 123.264 2594.56 123.264C2597.44 123.264 2599.48 125.208 2599.48 127.968V128.088C2599.48 129.888 2598.64 131.208 2597.46 131.952C2598.81 132.696 2599.89 133.92 2599.89 136.152V136.272C2599.89 139.344 2597.63 141.264 2594.56 141.264ZM2594.56 130.68C2595.61 130.68 2596.48 129.744 2596.48 128.232V128.208C2596.48 126.672 2595.59 125.88 2594.56 125.88C2593.53 125.88 2592.64 126.672 2592.64 128.208V128.232C2592.64 129.744 2593.5 130.68 2594.56 130.68ZM2594.56 138.624C2595.78 138.624 2596.77 137.688 2596.77 135.984V135.936C2596.77 134.304 2595.81 133.344 2594.56 133.344C2593.31 133.344 2592.37 134.304 2592.37 135.936V135.984C2592.37 137.688 2593.33 138.624 2594.56 138.624Z" fill="#D9D9D9"/>
<path id="b_n_517" d="M2551.75 496V478.528H2554.96V485.704H2559.43V478.528H2562.64V496H2559.43V488.728H2554.96V496H2551.75ZM2574.12 496.264C2572.49 496.264 2570.91 495.664 2569.66 494.536L2571.27 492.016C2572.13 492.784 2572.9 493.24 2574.03 493.24C2575.49 493.24 2576.47 492.16 2576.47 490.432V490.408C2576.47 488.68 2575.35 487.744 2573.91 487.744C2573.21 487.744 2572.61 487.936 2572.06 488.2L2570.33 487.072L2570.81 478.528H2578.97V481.528H2573.4L2573.19 485.032C2573.64 484.912 2574.1 484.816 2574.79 484.816C2577.29 484.816 2579.67 486.352 2579.67 490.264V490.336C2579.67 494.056 2577.29 496.264 2574.12 496.264ZM2583.54 496V481.816L2581.29 482.488L2581 479.512L2584.5 478.408H2586.76V496H2583.54ZM2590.05 496L2595.5 481.624H2589.35V478.528H2598.81V480.904L2593.43 496H2590.05Z" fill="#D9D9D9"/>
<path id="b_n_516" d="M2551.67 756V738.528H2554.89V745.704H2559.35V738.528H2562.57V756H2559.35V748.728H2554.89V756H2551.67ZM2574.05 756.264C2572.42 756.264 2570.83 755.664 2569.58 754.536L2571.19 752.016C2572.06 752.784 2572.82 753.24 2573.95 753.24C2575.42 753.24 2576.4 752.16 2576.4 750.432V750.408C2576.4 748.68 2575.27 747.744 2573.83 747.744C2573.14 747.744 2572.54 747.936 2571.98 748.2L2570.26 747.072L2570.74 738.528H2578.9V741.528H2573.33L2573.11 745.032C2573.57 744.912 2574.02 744.816 2574.72 744.816C2577.22 744.816 2579.59 746.352 2579.59 750.264V750.336C2579.59 754.056 2577.22 756.264 2574.05 756.264ZM2583.47 756V741.816L2581.21 742.488L2580.93 739.512L2584.43 738.408H2586.69V756H2583.47ZM2594.68 756.264C2593.26 756.264 2592.14 755.808 2591.27 754.92C2590.07 753.72 2589.3 751.776 2589.3 748.032V747.792C2589.3 741.192 2591.7 738.264 2595.47 738.264C2596.82 738.264 2598.02 738.672 2599.17 739.512L2597.78 742.176C2597.32 741.768 2596.43 741.24 2595.45 741.24C2593.72 741.24 2592.66 742.8 2592.54 745.752C2593.34 745.104 2594.25 744.744 2595.42 744.744C2597.66 744.744 2599.89 746.424 2599.89 750.192V750.264C2599.89 753.84 2597.58 756.264 2594.68 756.264ZM2594.66 753.384C2596 753.384 2596.77 752.256 2596.77 750.432V750.408C2596.77 748.584 2595.98 747.48 2594.66 747.48C2593.34 747.48 2592.54 748.584 2592.54 750.408V750.432C2592.54 752.256 2593.31 753.384 2594.66 753.384Z" fill="#D9D9D9"/>
<path id="b_n_515" d="M2551.67 993V975.528H2554.88V982.704H2559.35V975.528H2562.56V993H2559.35V985.728H2554.88V993H2551.67ZM2574.04 993.264C2572.41 993.264 2570.82 992.664 2569.58 991.536L2571.18 989.016C2572.05 989.784 2572.82 990.24 2573.94 990.24C2575.41 990.24 2576.39 989.16 2576.39 987.432V987.408C2576.39 985.68 2575.26 984.744 2573.82 984.744C2573.13 984.744 2572.53 984.936 2571.98 985.2L2570.25 984.072L2570.73 975.528H2578.89V978.528H2573.32L2573.1 982.032C2573.56 981.912 2574.02 981.816 2574.71 981.816C2577.21 981.816 2579.58 983.352 2579.58 987.264V987.336C2579.58 991.056 2577.21 993.264 2574.04 993.264ZM2583.46 993V978.816L2581.21 979.488L2580.92 976.512L2584.42 975.408H2586.68V993H2583.46ZM2593.4 993.264C2591.77 993.264 2590.18 992.664 2588.94 991.536L2590.54 989.016C2591.41 989.784 2592.18 990.24 2593.3 990.24C2594.77 990.24 2595.75 989.16 2595.75 987.432V987.408C2595.75 985.68 2594.62 984.744 2593.18 984.744C2592.49 984.744 2591.89 984.936 2591.34 985.2L2589.61 984.072L2590.09 975.528H2598.25V978.528H2592.68L2592.46 982.032C2592.92 981.912 2593.38 981.816 2594.07 981.816C2596.57 981.816 2598.94 983.352 2598.94 987.264V987.336C2598.94 991.056 2596.57 993.264 2593.4 993.264Z" fill="#D9D9D9"/>
<path id="b_n_514" d="M2916.5 994V976.528H2919.71V983.704H2924.18V976.528H2927.39V994H2924.18V986.728H2919.71V994H2916.5ZM2938.87 994.264C2937.24 994.264 2935.66 993.664 2934.41 992.536L2936.02 990.016C2936.88 990.784 2937.65 991.24 2938.78 991.24C2940.24 991.24 2941.22 990.16 2941.22 988.432V988.408C2941.22 986.68 2940.1 985.744 2938.66 985.744C2937.96 985.744 2937.36 985.936 2936.81 986.2L2935.08 985.072L2935.56 976.528H2943.72V979.528H2938.15L2937.94 983.032C2938.39 982.912 2938.85 982.816 2939.54 982.816C2942.04 982.816 2944.42 984.352 2944.42 988.264V988.336C2944.42 992.056 2942.04 994.264 2938.87 994.264ZM2948.29 994V979.816L2946.04 980.488L2945.75 977.512L2949.25 976.408H2951.51V994H2948.29ZM2960.42 994V990.544H2954.01L2953.74 988.168L2960.44 976.456H2963.42V987.784H2965.26V990.544H2963.42V994H2960.42ZM2956.96 987.784H2960.42V981.64L2956.96 987.784Z" fill="#D9D9D9"/>
<path id="b_n_513" d="M2916.75 756V738.528H2919.96V745.704H2924.43V738.528H2927.64V756H2924.43V748.728H2919.96V756H2916.75ZM2939.12 756.264C2937.49 756.264 2935.91 755.664 2934.66 754.536L2936.27 752.016C2937.13 752.784 2937.9 753.24 2939.03 753.24C2940.49 753.24 2941.47 752.16 2941.47 750.432V750.408C2941.47 748.68 2940.35 747.744 2938.91 747.744C2938.21 747.744 2937.61 747.936 2937.06 748.2L2935.33 747.072L2935.81 738.528H2943.97V741.528H2938.4L2938.19 745.032C2938.64 744.912 2939.1 744.816 2939.79 744.816C2942.29 744.816 2944.67 746.352 2944.67 750.264V750.336C2944.67 754.056 2942.29 756.264 2939.12 756.264ZM2948.54 756V741.816L2946.29 742.488L2946 739.512L2949.5 738.408H2951.76V756H2948.54ZM2958.36 756.264C2956.51 756.264 2954.95 755.592 2953.83 754.536L2955.41 752.04C2955.96 752.592 2956.85 753.288 2958.17 753.288C2959.59 753.288 2960.62 752.328 2960.62 750.768V750.72C2960.62 749.064 2959.32 748.104 2956.92 748.104H2956.56L2956.32 746.016L2959.83 741.528H2954.59V738.528H2963.59V741.216L2959.85 745.8C2961.94 746.304 2963.81 747.792 2963.81 750.624V750.72C2963.81 754.08 2961.43 756.264 2958.36 756.264Z" fill="#D9D9D9"/>
<path id="b_n_512" d="M2916.62 496V478.528H2919.84V485.704H2924.3V478.528H2927.52V496H2924.3V488.728H2919.84V496H2916.62ZM2938.99 496.264C2937.36 496.264 2935.78 495.664 2934.53 494.536L2936.14 492.016C2937 492.784 2937.77 493.24 2938.9 493.24C2940.36 493.24 2941.35 492.16 2941.35 490.432V490.408C2941.35 488.68 2940.22 487.744 2938.78 487.744C2938.08 487.744 2937.48 487.936 2936.93 488.2L2935.2 487.072L2935.68 478.528H2943.84V481.528H2938.27L2938.06 485.032C2938.51 484.912 2938.97 484.816 2939.67 484.816C2942.16 484.816 2944.54 486.352 2944.54 490.264V490.336C2944.54 494.056 2942.16 496.264 2938.99 496.264ZM2948.42 496V481.816L2946.16 482.488L2945.87 479.512L2949.38 478.408H2951.63V496H2948.42ZM2954.3 496V493.336L2958.74 487.36C2960.23 485.344 2960.71 484.384 2960.71 483.28C2960.71 482.056 2959.84 481.336 2958.79 481.336C2957.73 481.336 2956.94 481.984 2956 483.136L2954.13 480.904C2955.45 479.176 2957.27 478.264 2959.1 478.264C2961.86 478.264 2963.95 479.968 2963.95 482.992V483.04C2963.95 485.008 2963.27 486.256 2961.23 488.944L2958.16 492.976H2963.83V496H2954.3Z" fill="#D9D9D9"/>
<path id="b_n_509" d="M1713.5 509V491.528H1716.72V498.704H1721.18V491.528H1724.4V509H1721.18V501.728H1716.72V509H1713.5ZM1735.88 509.264C1734.24 509.264 1732.66 508.664 1731.41 507.536L1733.02 505.016C1733.88 505.784 1734.65 506.24 1735.78 506.24C1737.24 506.24 1738.23 505.16 1738.23 503.432V503.408C1738.23 501.68 1737.1 500.744 1735.66 500.744C1734.96 500.744 1734.36 500.936 1733.81 501.2L1732.08 500.072L1732.56 491.528H1740.72V494.528H1735.16L1734.94 498.032C1735.4 497.912 1735.85 497.816 1736.55 497.816C1739.04 497.816 1741.42 499.352 1741.42 503.264V503.336C1741.42 507.056 1739.04 509.264 1735.88 509.264ZM1748.9 509.264C1745.32 509.264 1743.21 506.264 1743.21 500.576V499.976C1743.21 494.24 1745.37 491.264 1748.92 491.264C1752.45 491.264 1754.59 494.264 1754.59 499.952V500.552C1754.59 506.288 1752.45 509.264 1748.9 509.264ZM1748.92 506.288C1750.34 506.288 1751.35 504.752 1751.35 500.48V500.072C1751.35 495.8 1750.27 494.24 1748.9 494.24C1747.48 494.24 1746.47 495.776 1746.47 500.048V500.456C1746.47 504.728 1747.53 506.288 1748.92 506.288ZM1760.87 506.288C1762.57 506.288 1763.63 504.776 1763.75 502.016C1762.95 502.664 1762.04 502.976 1760.91 502.976C1758.63 502.976 1756.43 501.272 1756.43 497.432V497.36C1756.43 493.712 1758.75 491.264 1761.63 491.264C1763.05 491.264 1764.18 491.72 1765.04 492.608C1766.24 493.88 1767.01 495.704 1767.01 499.496V499.736C1767.01 506.336 1764.61 509.264 1760.84 509.264C1759.5 509.264 1758.23 508.856 1756.88 507.824L1758.27 505.16C1759.02 505.76 1759.91 506.288 1760.87 506.288ZM1761.66 500.24C1763 500.24 1763.79 499.136 1763.79 497.216V497.192C1763.79 495.272 1763 494.144 1761.66 494.144C1760.31 494.144 1759.55 495.272 1759.55 497.192V497.216C1759.55 499.136 1760.34 500.24 1761.66 500.24Z" fill="#D9D9D9"/>
<path id="b_n_508" d="M1713.57 764V746.528H1716.79V753.704H1721.25V746.528H1724.47V764H1721.25V756.728H1716.79V764H1713.57ZM1735.95 764.264C1734.31 764.264 1732.73 763.664 1731.48 762.536L1733.09 760.016C1733.95 760.784 1734.72 761.24 1735.85 761.24C1737.31 761.24 1738.3 760.16 1738.3 758.432V758.408C1738.3 756.68 1737.17 755.744 1735.73 755.744C1735.03 755.744 1734.43 755.936 1733.88 756.2L1732.15 755.072L1732.63 746.528H1740.79V749.528H1735.23L1735.01 753.032C1735.47 752.912 1735.92 752.816 1736.62 752.816C1739.11 752.816 1741.49 754.352 1741.49 758.264V758.336C1741.49 762.056 1739.11 764.264 1735.95 764.264ZM1748.97 764.264C1745.39 764.264 1743.28 761.264 1743.28 755.576V754.976C1743.28 749.24 1745.44 746.264 1748.99 746.264C1752.52 746.264 1754.66 749.264 1754.66 754.952V755.552C1754.66 761.288 1752.52 764.264 1748.97 764.264ZM1748.99 761.288C1750.41 761.288 1751.42 759.752 1751.42 755.48V755.072C1751.42 750.8 1750.34 749.24 1748.97 749.24C1747.55 749.24 1746.54 750.776 1746.54 755.048V755.456C1746.54 759.728 1747.6 761.288 1748.99 761.288ZM1761.75 764.264C1758.68 764.264 1756.45 762.344 1756.45 759.272V759.152C1756.45 756.92 1757.53 755.696 1758.87 754.952C1757.65 754.208 1756.83 752.888 1756.83 751.088V750.968C1756.83 748.208 1758.87 746.264 1761.75 746.264C1764.63 746.264 1766.67 748.208 1766.67 750.968V751.088C1766.67 752.888 1765.83 754.208 1764.66 754.952C1766 755.696 1767.08 756.92 1767.08 759.152V759.272C1767.08 762.344 1764.82 764.264 1761.75 764.264ZM1761.75 753.68C1762.81 753.68 1763.67 752.744 1763.67 751.232V751.208C1763.67 749.672 1762.78 748.88 1761.75 748.88C1760.72 748.88 1759.83 749.672 1759.83 751.208V751.232C1759.83 752.744 1760.7 753.68 1761.75 753.68ZM1761.75 761.624C1762.98 761.624 1763.96 760.688 1763.96 758.984V758.936C1763.96 757.304 1763 756.344 1761.75 756.344C1760.5 756.344 1759.57 757.304 1759.57 758.936V758.984C1759.57 760.688 1760.53 761.624 1761.75 761.624Z" fill="#D9D9D9"/>
<path id="b_n_507" d="M1714.75 989V971.528H1717.97V978.704H1722.43V971.528H1725.65V989H1722.43V981.728H1717.97V989H1714.75ZM1737.13 989.264C1735.49 989.264 1733.91 988.664 1732.66 987.536L1734.27 985.016C1735.13 985.784 1735.9 986.24 1737.03 986.24C1738.49 986.24 1739.48 985.16 1739.48 983.432V983.408C1739.48 981.68 1738.35 980.744 1736.91 980.744C1736.21 980.744 1735.61 980.936 1735.06 981.2L1733.33 980.072L1733.81 971.528H1741.97V974.528H1736.41L1736.19 978.032C1736.65 977.912 1737.1 977.816 1737.8 977.816C1740.29 977.816 1742.67 979.352 1742.67 983.264V983.336C1742.67 987.056 1740.29 989.264 1737.13 989.264ZM1750.15 989.264C1746.57 989.264 1744.46 986.264 1744.46 980.576V979.976C1744.46 974.24 1746.62 971.264 1750.17 971.264C1753.7 971.264 1755.84 974.264 1755.84 979.952V980.552C1755.84 986.288 1753.7 989.264 1750.15 989.264ZM1750.17 986.288C1751.59 986.288 1752.6 984.752 1752.6 980.48V980.072C1752.6 975.8 1751.52 974.24 1750.15 974.24C1748.73 974.24 1747.72 975.776 1747.72 980.048V980.456C1747.72 984.728 1748.78 986.288 1750.17 986.288ZM1758.05 989L1763.49 974.624H1757.35V971.528H1766.81V973.904L1761.43 989H1758.05Z" fill="#D9D9D9"/>
<path id="b_n_506" d="M1342.48 989V971.528H1345.7V978.704H1350.16V971.528H1353.38V989H1350.16V981.728H1345.7V989H1342.48ZM1364.85 989.264C1363.22 989.264 1361.64 988.664 1360.39 987.536L1362 985.016C1362.86 985.784 1363.63 986.24 1364.76 986.24C1366.22 986.24 1367.21 985.16 1367.21 983.432V983.408C1367.21 981.68 1366.08 980.744 1364.64 980.744C1363.94 980.744 1363.34 980.936 1362.79 981.2L1361.06 980.072L1361.54 971.528H1369.7V974.528H1364.13L1363.92 978.032C1364.37 977.912 1364.83 977.816 1365.53 977.816C1368.02 977.816 1370.4 979.352 1370.4 983.264V983.336C1370.4 987.056 1368.02 989.264 1364.85 989.264ZM1377.87 989.264C1374.3 989.264 1372.19 986.264 1372.19 980.576V979.976C1372.19 974.24 1374.35 971.264 1377.9 971.264C1381.43 971.264 1383.56 974.264 1383.56 979.952V980.552C1383.56 986.288 1381.43 989.264 1377.87 989.264ZM1377.9 986.288C1379.31 986.288 1380.32 984.752 1380.32 980.48V980.072C1380.32 975.8 1379.24 974.24 1377.87 974.24C1376.46 974.24 1375.45 975.776 1375.45 980.048V980.456C1375.45 984.728 1376.51 986.288 1377.9 986.288ZM1390.88 989.264C1389.46 989.264 1388.33 988.808 1387.47 987.92C1386.27 986.72 1385.5 984.776 1385.5 981.032V980.792C1385.5 974.192 1387.9 971.264 1391.67 971.264C1393.01 971.264 1394.21 971.672 1395.36 972.512L1393.97 975.176C1393.52 974.768 1392.63 974.24 1391.64 974.24C1389.92 974.24 1388.86 975.8 1388.74 978.752C1389.53 978.104 1390.44 977.744 1391.62 977.744C1393.85 977.744 1396.08 979.424 1396.08 983.192V983.264C1396.08 986.84 1393.78 989.264 1390.88 989.264ZM1390.85 986.384C1392.2 986.384 1392.96 985.256 1392.96 983.432V983.408C1392.96 981.584 1392.17 980.48 1390.85 980.48C1389.53 980.48 1388.74 981.584 1388.74 983.408V983.432C1388.74 985.256 1389.51 986.384 1390.85 986.384Z" fill="#D9D9D9"/>
<path id="b_n_505" d="M1344.47 614V596.528H1347.69V603.704H1352.15V596.528H1355.37V614H1352.15V606.728H1347.69V614H1344.47ZM1366.85 614.264C1365.21 614.264 1363.63 613.664 1362.38 612.536L1363.99 610.016C1364.85 610.784 1365.62 611.24 1366.75 611.24C1368.21 611.24 1369.2 610.16 1369.2 608.432V608.408C1369.2 606.68 1368.07 605.744 1366.63 605.744C1365.93 605.744 1365.33 605.936 1364.78 606.2L1363.05 605.072L1363.53 596.528H1371.69V599.528H1366.13L1365.91 603.032C1366.37 602.912 1366.82 602.816 1367.52 602.816C1370.01 602.816 1372.39 604.352 1372.39 608.264V608.336C1372.39 612.056 1370.01 614.264 1366.85 614.264ZM1379.87 614.264C1376.29 614.264 1374.18 611.264 1374.18 605.576V604.976C1374.18 599.24 1376.34 596.264 1379.89 596.264C1383.42 596.264 1385.55 599.264 1385.55 604.952V605.552C1385.55 611.288 1383.42 614.264 1379.87 614.264ZM1379.89 611.288C1381.31 611.288 1382.31 609.752 1382.31 605.48V605.072C1382.31 600.8 1381.23 599.24 1379.87 599.24C1378.45 599.24 1377.44 600.776 1377.44 605.048V605.456C1377.44 609.728 1378.5 611.288 1379.89 611.288ZM1391.6 614.264C1389.96 614.264 1388.38 613.664 1387.13 612.536L1388.74 610.016C1389.6 610.784 1390.37 611.24 1391.5 611.24C1392.96 611.24 1393.95 610.16 1393.95 608.432V608.408C1393.95 606.68 1392.82 605.744 1391.38 605.744C1390.68 605.744 1390.08 605.936 1389.53 606.2L1387.8 605.072L1388.28 596.528H1396.44V599.528H1390.88L1390.66 603.032C1391.12 602.912 1391.57 602.816 1392.27 602.816C1394.76 602.816 1397.14 604.352 1397.14 608.264V608.336C1397.14 612.056 1394.76 614.264 1391.6 614.264Z" fill="#D9D9D9"/>
<path id="b_n_504" d="M1423.8 141V123.528H1427.02V130.704H1431.48V123.528H1434.7V141H1431.48V133.728H1427.02V141H1423.8ZM1446.18 141.264C1444.55 141.264 1442.96 140.664 1441.71 139.536L1443.32 137.016C1444.19 137.784 1444.95 138.24 1446.08 138.24C1447.55 138.24 1448.53 137.16 1448.53 135.432V135.408C1448.53 133.68 1447.4 132.744 1445.96 132.744C1445.27 132.744 1444.67 132.936 1444.11 133.2L1442.39 132.072L1442.87 123.528H1451.03V126.528H1445.46L1445.24 130.032C1445.7 129.912 1446.15 129.816 1446.85 129.816C1449.35 129.816 1451.72 131.352 1451.72 135.264V135.336C1451.72 139.056 1449.35 141.264 1446.18 141.264ZM1459.2 141.264C1455.62 141.264 1453.51 138.264 1453.51 132.576V131.976C1453.51 126.24 1455.67 123.264 1459.22 123.264C1462.75 123.264 1464.89 126.264 1464.89 131.952V132.552C1464.89 138.288 1462.75 141.264 1459.2 141.264ZM1459.22 138.288C1460.64 138.288 1461.65 136.752 1461.65 132.48V132.072C1461.65 127.8 1460.57 126.24 1459.2 126.24C1457.78 126.24 1456.77 127.776 1456.77 132.048V132.456C1456.77 136.728 1457.83 138.288 1459.22 138.288ZM1473.11 141V137.544H1466.7L1466.44 135.168L1473.14 123.456H1476.11V134.784H1477.96V137.544H1476.11V141H1473.11ZM1469.66 134.784H1473.11V128.64L1469.66 134.784Z" fill="#D9D9D9"/>
<path id="b_n_503" d="M1262.65 141V123.528H1265.86V130.704H1270.33V123.528H1273.54V141H1270.33V133.728H1265.86V141H1262.65ZM1285.02 141.264C1283.39 141.264 1281.81 140.664 1280.56 139.536L1282.17 137.016C1283.03 137.784 1283.8 138.24 1284.93 138.24C1286.39 138.24 1287.37 137.16 1287.37 135.432V135.408C1287.37 133.68 1286.25 132.744 1284.81 132.744C1284.11 132.744 1283.51 132.936 1282.96 133.2L1281.23 132.072L1281.71 123.528H1289.87V126.528H1284.3L1284.09 130.032C1284.54 129.912 1285 129.816 1285.69 129.816C1288.19 129.816 1290.57 131.352 1290.57 135.264V135.336C1290.57 139.056 1288.19 141.264 1285.02 141.264ZM1298.04 141.264C1294.47 141.264 1292.35 138.264 1292.35 132.576V131.976C1292.35 126.24 1294.51 123.264 1298.07 123.264C1301.59 123.264 1303.73 126.264 1303.73 131.952V132.552C1303.73 138.288 1301.59 141.264 1298.04 141.264ZM1298.07 138.288C1299.48 138.288 1300.49 136.752 1300.49 132.48V132.072C1300.49 127.8 1299.41 126.24 1298.04 126.24C1296.63 126.24 1295.62 127.776 1295.62 132.048V132.456C1295.62 136.728 1296.67 138.288 1298.07 138.288ZM1309.46 141.264C1307.62 141.264 1306.06 140.592 1304.93 139.536L1306.51 137.04C1307.06 137.592 1307.95 138.288 1309.27 138.288C1310.69 138.288 1311.72 137.328 1311.72 135.768V135.72C1311.72 134.064 1310.42 133.104 1308.02 133.104H1307.66L1307.42 131.016L1310.93 126.528H1305.7V123.528H1314.7V126.216L1310.95 130.8C1313.04 131.304 1314.91 132.792 1314.91 135.624V135.72C1314.91 139.08 1312.54 141.264 1309.46 141.264Z" fill="#D9D9D9"/>
<path id="b_n_502" d="M141.542 141V123.528H144.758V130.704H149.222V123.528H152.438V141H149.222V133.728H144.758V141H141.542ZM163.916 141.264C162.284 141.264 160.7 140.664 159.452 139.536L161.06 137.016C161.924 137.784 162.692 138.24 163.82 138.24C165.284 138.24 166.268 137.16 166.268 135.432V135.408C166.268 133.68 165.14 132.744 163.7 132.744C163.004 132.744 162.404 132.936 161.852 133.2L160.124 132.072L160.604 123.528H168.764V126.528H163.196L162.98 130.032C163.436 129.912 163.892 129.816 164.588 129.816C167.084 129.816 169.46 131.352 169.46 135.264V135.336C169.46 139.056 167.084 141.264 163.916 141.264ZM176.937 141.264C173.361 141.264 171.249 138.264 171.249 132.576V131.976C171.249 126.24 173.409 123.264 176.961 123.264C180.489 123.264 182.625 126.264 182.625 131.952V132.552C182.625 138.288 180.489 141.264 176.937 141.264ZM176.961 138.288C178.377 138.288 179.385 136.752 179.385 132.48V132.072C179.385 127.8 178.305 126.24 176.937 126.24C175.521 126.24 174.513 127.776 174.513 132.048V132.456C174.513 136.728 175.569 138.288 176.961 138.288ZM184.375 141V138.336L188.815 132.36C190.303 130.344 190.783 129.384 190.783 128.28C190.783 127.056 189.919 126.336 188.863 126.336C187.807 126.336 187.015 126.984 186.079 128.136L184.207 125.904C185.527 124.176 187.351 123.264 189.175 123.264C191.935 123.264 194.023 124.968 194.023 127.992V128.04C194.023 130.008 193.351 131.256 191.311 133.944L188.239 137.976H193.903V141H184.375Z" fill="#D9D9D9"/>
</g>
<g id="Entrances">
<circle id="30" cx="1630" cy="597" r="10" fill="#9CBBFF" fill-opacity="0.01"/>
<circle id="29" cx="1530" cy="483" r="10" fill="#9CBBFF" fill-opacity="0.01"/>
<circle id="28" cx="1530" cy="913" r="10" fill="#9CBBFF" fill-opacity="0.01"/>
<circle id="27" cx="1630" cy="777" r="10" fill="#9CBBFF" fill-opacity="0.01"/>
<circle id="24" cx="1580" cy="260" r="10" fill="#9CBBFF" fill-opacity="0.01"/>
<circle id="23" cx="2740" cy="983" r="10" fill="#9CBBFF" fill-opacity="0.01"/>
<circle id="22" cx="1477" cy="260" r="10" fill="#9CBBFF" fill-opacity="0.01"/>
<circle id="21" cx="2780" cy="260" r="10" fill="#9CBBFF" fill-opacity="0.01"/>
<circle id="20" cx="3011" cy="260" r="10" fill="#9CBBFF" fill-opacity="0.01"/>
<circle id="19" cx="2935" cy="260" r="10" fill="#9CBBFF" fill-opacity="0.01"/>
<circle id="18" cx="2859" cy="260" r="10" fill="#9CBBFF" fill-opacity="0.01"/>
<circle id="17" cx="2647" cy="260" r="10" fill="#9CBBFF" fill-opacity="0.01"/>
<circle id="16" cx="2410" cy="305" r="10" fill="#9CBBFF" fill-opacity="0.01"/>
<circle id="12" cx="1630" cy="1012" r="10" fill="#9CBBFF" fill-opacity="0.01"/>
<circle id="11" cx="2830" cy="502" r="10" fill="#9CBBFF" fill-opacity="0.01"/>
<circle id="10" cx="2830" cy="717" r="10" fill="#9CBBFF" fill-opacity="0.01"/>
<circle id="9" cx="2740" cy="503" r="10" fill="#9CBBFF" fill-opacity="0.01"/>
<circle id="8" cx="2740" cy="717" r="10" fill="#9CBBFF" fill-opacity="0.01"/>
<circle id="6" cx="2830" cy="983" r="10" fill="#9CBBFF" fill-opacity="0.01"/>
<circle id="5" cx="1271" cy="260" r="10" fill="#9CBBFF" fill-opacity="0.01"/>
</g>
<g id="Icons">
<g id="Elevator">
<g id="Vector">
<path d="M2875 212L2869 206L2863 212H2875Z" fill="#A091F8"/>
<path d="M2875 216L2869 222L2863 216H2875Z" fill="#A091F8"/>
<path d="M2857 212C2857 209 2855 206 2852 206H2848C2845 206 2843 209 2843 212V217C2843 219 2844.5 220.5 2846 220.5V230C2846 231.6 2847.33 232 2848 232H2852C2852.67 232 2854 231.6 2854 230V220.5C2855.5 220.5 2857 219 2857 217V212Z" fill="#A091F8"/>
<path d="M2854 199C2854 201.209 2852.21 203 2850 203C2847.79 203 2846 201.209 2846 199C2846 196.791 2847.79 195 2850 195C2852.21 195 2854 196.791 2854 199Z" fill="#A091F8"/>
</g>
<path id="Vector 201" d="M2846.5 242.5H2834.5V187.5H2883.5V242.5H2871.5" stroke="#A091F8" stroke-width="5" stroke-linecap="round" stroke-linejoin="round"/>
</g>
<g id="Elevator_2">
<g id="Vector_2">
<path d="M2952 212L2946 206L2940 212H2952Z" fill="#A091F8"/>
<path d="M2952 216L2946 222L2940 216H2952Z" fill="#A091F8"/>
<path d="M2934 212C2934 209 2932 206 2929 206H2925C2922 206 2920 209 2920 212V217C2920 219 2921.5 220.5 2923 220.5V230C2923 231.6 2924.33 232 2925 232H2929C2929.67 232 2931 231.6 2931 230V220.5C2932.5 220.5 2934 219 2934 217V212Z" fill="#A091F8"/>
<path d="M2931 199C2931 201.209 2929.21 203 2927 203C2924.79 203 2923 201.209 2923 199C2923 196.791 2924.79 195 2927 195C2929.21 195 2931 196.791 2931 199Z" fill="#A091F8"/>
</g>
<path id="Vector 201_2" d="M2923.5 242.5H2911.5V187.5H2960.5V242.5H2948.5" stroke="#A091F8" stroke-width="5" stroke-linecap="round" stroke-linejoin="round"/>
</g>
<g id="Elevator_3">
<g id="Vector_3">
<path d="M3028 212L3022 206L3016 212H3028Z" fill="#A091F8"/>
<path d="M3028 216L3022 222L3016 216H3028Z" fill="#A091F8"/>
<path d="M3010 212C3010 209 3008 206 3005 206H3001C2998 206 2996 209 2996 212V217C2996 219 2997.5 220.5 2999 220.5V230C2999 231.6 3000.33 232 3001 232H3005C3005.67 232 3007 231.6 3007 230V220.5C3008.5 220.5 3010 219 3010 217V212Z" fill="#A091F8"/>
<path d="M3007 199C3007 201.209 3005.21 203 3003 203C3000.79 203 2999 201.209 2999 199C2999 196.791 3000.79 195 3003 195C3005.21 195 3007 196.791 3007 199Z" fill="#A091F8"/>
</g>
<path id="Vector 201_3" d="M2999.5 242.5H2987.5V187.5H3036.5V242.5H3024.5" stroke="#A091F8" stroke-width="5" stroke-linecap="round" stroke-linejoin="round"/>
</g>
<g id="Stair">
<g id="Stair frame">
<path id="Vector 152" d="M2976 65H2951V80H2936V95H2921V110H2896" stroke="#9CD9BC" stroke-width="5" stroke-linecap="round" stroke-linejoin="round"/>
<path id="Vector 154" d="M2908 65H2923M2923 65L2920 79M2923 65L2896 86" stroke="#9CD9BC" stroke-width="3" stroke-linecap="round" stroke-linejoin="round"/>
<path id="Vector 155" d="M2964 110H2949M2949 110L2952 96M2949 110L2976 89" stroke="#9CD9BC" stroke-width="3" stroke-linecap="round" stroke-linejoin="round"/>
</g>
</g>
<g id="Stair_2">
<g id="Stair frame_2">
<path id="Vector 152_2" d="M1783 57H1758V72H1743V87H1728V102H1703" stroke="#9CD9BC" stroke-width="5" stroke-linecap="round" stroke-linejoin="round"/>
<path id="Vector 154_2" d="M1715 57H1730M1730 57L1727 71M1730 57L1703 78" stroke="#9CD9BC" stroke-width="3" stroke-linecap="round" stroke-linejoin="round"/>
<path id="Vector 155_2" d="M1771 102H1756M1756 102L1759 88M1756 102L1783 81" stroke="#9CD9BC" stroke-width="3" stroke-linecap="round" stroke-linejoin="round"/>
</g>
</g>
<g id="Stair_3">
<g id="Stair frame_3">
<path id="Vector 152_3" d="M571 50H546V65H531V80H516V95H491" stroke="#9CD9BC" stroke-width="5" stroke-linecap="round" stroke-linejoin="round"/>
<path id="Vector 154_3" d="M503 50H518M518 50L515 64M518 50L491 71" stroke="#9CD9BC" stroke-width="3" stroke-linecap="round" stroke-linejoin="round"/>
<path id="Vector 155_3" d="M559 95H544M544 95L547 81M544 95L571 74" stroke="#9CD9BC" stroke-width="3" stroke-linecap="round" stroke-linejoin="round"/>
</g>
</g>
<g id="Doors">
<path id="Vector 301" d="M374 269L346 262H340" stroke="#A5A5A7" stroke-width="6"/>
<path id="Vector 302" d="M386 269L414 262H420" stroke="#A5A5A7" stroke-width="6"/>
</g>
<g id="Doors_2">
<path id="Vector 301_2" d="M1574 269L1546 262H1540" stroke="#A5A5A7" stroke-width="6"/>
<path id="Vector 302_2" d="M1586 269L1614 262H1620" stroke="#A5A5A7" stroke-width="6"/>
</g>
<g id="Doors_3">
<path id="Vector 301_3" d="M2775.5 269L2754.5 262H2750" stroke="#A5A5A7" stroke-width="6"/>
<path id="Vector 302_3" d="M2784.5 269L2805.5 262H2810" stroke="#A5A5A7" stroke-width="6"/>
</g>
</g>
</g>
</g>
<defs>
<clipPath id="clip0_0_1">
<rect width="3055" height="1105" fill="white"/>
</clipPath>
</defs>
</svg>
