<svg width="3055" height="1105" viewBox="0 0 3055 1105" fill="none" xmlns="http://www.w3.org/2000/svg">
<rect width="3055" height="1105" fill="#1E1E1E"/>
<g id="Corpus N (BS)">
<rect width="7680" height="4320" transform="translate(-4336 -300)" fill="#1E1E1E"/>
<g id="N-3">
<rect width="3055" height="1105" fill="#1E1E1E"/>
<g id="Spaces">
<rect id="!n-3-4" x="1740" y="150" width="110" height="110" fill="#3B3C41"/>
<rect id="!n-3-3" x="1630" y="150" width="110" height="110" fill="#3B3C41"/>
<rect id="!n-3-2" x="530" y="140" width="100" height="120" fill="#3B3C41"/>
<rect id="!n-3-1" x="430" y="140" width="100" height="120" fill="#3B3C41"/>
<rect id="n-3-wcw-1" opacity="0.2" x="1210" y="5" width="160" height="255" fill="#F783CB"/>
<rect id="n-3-wcm-1" opacity="0.2" x="1370" y="5" width="160" height="255" fill="#9CBBFF"/>
<path id="n-3-stair-2" opacity="0.2" d="M1530 5H1850V150H1630V260H1530V5Z" fill="#9CD9BC"/>
<path id="n-3-stair-1" opacity="0.2" d="M2740 5H3050V170H2820V260H2740V5Z" fill="#9CD9BC"/>
<path id="n-3-stair-3" opacity="0.2" d="M330 5H630V140H430V260H330V5Z" fill="#9CD9BC"/>
<rect id="n-3-lift-3" opacity="0.2" x="2973" y="170" width="77" height="90" fill="#A091F8"/>
<rect id="n-3-lift-2" opacity="0.2" x="2897" y="170" width="76" height="90" fill="#A091F8"/>
<rect id="n-3-lift-1" opacity="0.2" x="2820" y="170" width="77" height="90" fill="#A091F8"/>
<rect id="n-327" x="2410" y="350" width="330" height="110" fill="#3B3C41"/>
<rect id="n-326" x="2280" y="350" width="130" height="110" fill="#3B3C41"/>
<rect id="n-325" x="2150" y="350" width="130" height="110" fill="#3B3C41"/>
<rect id="n-324" x="1990" y="350" width="160" height="110" fill="#3B3C41"/>
<rect id="n-323" x="1850" y="350" width="140" height="110" fill="#3B3C41"/>
<rect id="n-322" x="2830" y="870" width="220" height="230" fill="#3B3C41"/>
<rect id="n-321" x="2410" y="870" width="330" height="230" fill="#3B3C41"/>
<rect id="n-320" x="2830" y="672" width="220" height="198" fill="#3B3C41"/>
<rect id="n-319" x="2410" y="460" width="330" height="410" fill="#3B3C41"/>
<rect id="n-318" x="2830" y="350" width="220" height="322" fill="#3B3C41"/>
<rect id="n-317" x="2410" y="5" width="160" height="255" fill="#3B3C41"/>
<rect id="n-316" x="2570" y="5" width="170" height="255" fill="#3B3C41"/>
<rect id="n-315" x="1210" y="860" width="320" height="240" fill="#3B3C41"/>
<rect id="n-314" x="1630" y="860" width="220" height="240" fill="#3B3C41"/>
<rect id="n-313" x="1210" y="650" width="320" height="210" fill="#3B3C41"/>
<rect id="n-312" x="1630" y="650" width="220" height="210" fill="#3B3C41"/>
<rect id="n-311" x="1210" y="350" width="320" height="300" fill="#3B3C41"/>
<rect id="n-310" x="1630" y="350" width="220" height="300" fill="#3B3C41"/>
<rect id="n-309" x="930" y="350" width="280" height="110" fill="#3B3C41"/>
<rect id="n-308" x="630" y="350" width="300" height="110" fill="#3B3C41"/>
<rect id="n-307" x="430" y="860" width="200" height="240" fill="#3B3C41"/>
<rect id="n-306" x="430" y="650" width="200" height="210" fill="#3B3C41"/>
<rect id="n-305" x="5" y="860" width="325" height="240" fill="#3B3C41"/>
<rect id="n-304" x="430" y="350" width="200" height="300" fill="#3B3C41"/>
<rect id="n-303a" x="5" y="350" width="325" height="300" fill="#3B3C41"/>
<rect id="n-303b" x="5" y="650" width="325" height="210" fill="#3B3C41"/>
<rect id="n-302" x="170" y="5" width="160" height="255" fill="#3B3C41"/>
<rect id="n-301" x="5" y="5" width="165" height="255" fill="#3B3C41"/>
</g>
<g id="Walls">
<path id="Vneskniy kontur" d="M630 5H5V1100H630V460H1210V1100H1850V460H2410V1100H3050V5H2410V240H1850V5H1210V240H630V5Z" stroke="#D9D9D9" stroke-width="10"/>
<path id="Vector 137" d="M1850 340L1850 460" stroke="#D9D9D9" stroke-width="10"/>
<path id="Vector 150" d="M1210 340L1210 350" stroke="#D9D9D9" stroke-width="10"/>
<path id="Vector 211" d="M2410 340L2410 350" stroke="#D9D9D9" stroke-width="10"/>
<path id="Vector 205" d="M630 340L630 460" stroke="#D9D9D9" stroke-width="10"/>
<path id="Vector 140" d="M1630 650H1850" stroke="#D9D9D9" stroke-width="10"/>
<path id="Vector 207" d="M430 650H630" stroke="#D9D9D9" stroke-width="10"/>
<path id="Vector 143" d="M1210 650H1530" stroke="#D9D9D9" stroke-width="10"/>
<path id="Vector 209" d="M5 650H330" stroke="#D9D9D9" stroke-width="10"/>
<path id="Vector 141" d="M1630 860H1850" stroke="#D9D9D9" stroke-width="10"/>
<path id="Vector 208" d="M430 860H630" stroke="#D9D9D9" stroke-width="10"/>
<path id="Vector 144" d="M1210 860H1530" stroke="#D9D9D9" stroke-width="10"/>
<path id="Vector 210" d="M5 860H330" stroke="#D9D9D9" stroke-width="10"/>
<path id="Vector 146" d="M1370 260V5" stroke="#D9D9D9" stroke-width="10"/>
<path id="Vector 149" d="M1740 150V260" stroke="#D9D9D9" stroke-width="10"/>
<path id="Subtract" fill-rule="evenodd" clip-rule="evenodd" d="M1535 5V260V265H1530H1500V255H1525V5H1535ZM1454 255V265H1294V255H1454ZM1248 255V265H1210V255H1248Z" fill="#D9D9D9"/>
<path id="Subtract_2" fill-rule="evenodd" clip-rule="evenodd" d="M1850 145H1630H1625V150L1625 260V265H1630H1661V255H1635L1635 155H1850V145ZM1707 255V265H1774V255H1707ZM1845 265H1820V255H1845V240H1855V260V270H1845V265Z" fill="#D9D9D9"/>
<path id="Vector 138" d="M1210 240L1210 270" stroke="#D9D9D9" stroke-width="10"/>
<path id="Vector 212" d="M2410 240L2410 270" stroke="#D9D9D9" stroke-width="10"/>
<path id="Vector 206" d="M630 240L630 270" stroke="#D9D9D9" stroke-width="10"/>
<path id="Subtract_3" fill-rule="evenodd" clip-rule="evenodd" d="M1210 345H1205V350V461H1215V355H1525V500H1535V350V345H1530H1210ZM1525 546V714H1535V546H1525ZM1525 910V760H1535V910H1525ZM1525 956V1100H1535V956H1525Z" fill="#D9D9D9"/>
<path id="Subtract_4" fill-rule="evenodd" clip-rule="evenodd" d="M325 355H5V345H330H335V350V745H325V355ZM325 885V791H335V885H325ZM325 931V1100H335V931H325Z" fill="#D9D9D9"/>
<path id="Subtract_5" fill-rule="evenodd" clip-rule="evenodd" d="M1630 345H1625V350V561H1635V355H1850V345H1630ZM1625 607V754H1635V607H1625ZM1625 984V800H1635V984H1625ZM1625 1030V1100H1635V1030H1625Z" fill="#D9D9D9"/>
<path id="Vector 204" d="M930 350V460" stroke="#D9D9D9" stroke-width="10"/>
<path id="Vector 217" d="M1990 350V460" stroke="#D9D9D9" stroke-width="10"/>
<path id="Vector 218" d="M2150 350V460" stroke="#D9D9D9" stroke-width="10"/>
<path id="Vector 219" d="M2280 350V460" stroke="#D9D9D9" stroke-width="10"/>
<path id="Vector 220" d="M2410 350V460" stroke="#D9D9D9" stroke-width="10"/>
<path id="Vector 221" d="M2740 460H2410" stroke="#D9D9D9" stroke-width="10"/>
<path id="Vector 222" d="M2740 870H2410" stroke="#D9D9D9" stroke-width="10"/>
<path id="Vector 223" d="M3050 870L2830 870" stroke="#D9D9D9" stroke-width="10"/>
<path id="Vector 224" d="M3050 672L2830 672" stroke="#D9D9D9" stroke-width="10"/>
<path id="Subtract_6" fill-rule="evenodd" clip-rule="evenodd" d="M716 345H1125V355H716V345ZM1210 355H1171V345H1210V355ZM670 345H430H425V350V540H435V355H670V345ZM435 586H425V680H435V586ZM425 726V1015H435V726H425ZM425 1100V1061H435V1100H425Z" fill="#D9D9D9"/>
<path id="Subtract_7" fill-rule="evenodd" clip-rule="evenodd" d="M325 255V5H335V260V265H330H262V255H325ZM216 255V265H108V255H216ZM62 255V265H5V255H62Z" fill="#D9D9D9"/>
<path id="Vector 214" d="M530 140V260" stroke="#D9D9D9" stroke-width="10"/>
<path id="Subtract_8" fill-rule="evenodd" clip-rule="evenodd" d="M2745 5V260V265H2740H2670V255H2735V5H2745ZM2624 255H2516V265H2624V255ZM2470 255V265H2410V255H2470Z" fill="#D9D9D9"/>
<path id="Vector 227" d="M2973 170V260" stroke="#D9D9D9" stroke-width="10"/>
<path id="Vector 226" d="M2897 170V260" stroke="#D9D9D9" stroke-width="10"/>
<path id="Vector 228" d="M2570 260V5" stroke="#D9D9D9" stroke-width="10"/>
<path id="Subtract_9" fill-rule="evenodd" clip-rule="evenodd" d="M2820 165L2815 165V170V260V265H2820H2836L2836 255H2825V175L3050 175V165L2820 165ZM2882 265H2912V255H2882V265ZM2988 265H2958V255H2988V265ZM3034 265H3050V255H3034V265Z" fill="#D9D9D9"/>
<path id="Subtract_10" fill-rule="evenodd" clip-rule="evenodd" d="M2830 345H2825V350V579H2835V355H3050V345H2830ZM2825 625V694H2835V625H2825ZM2825 960V740H2835V960H2825ZM2825 1006V1100H2835V1006H2825Z" fill="#D9D9D9"/>
<path id="Subtract_11" fill-rule="evenodd" clip-rule="evenodd" d="M2470 355V345H2390V355H2470ZM2516 355H2735V514H2745V350V345H2740H2516V355ZM2344 345V355H2216V345H2344ZM2735 910V560H2745V910H2735ZM2735 956V1100H2745V956H2735ZM2170 355V345H2130V355H2170ZM2084 345V355H1914V345H2084ZM1868 355L1868 345H1850V355H1868Z" fill="#D9D9D9"/>
<path id="Vector 229" d="M170 260V5" stroke="#D9D9D9" stroke-width="10"/>
<path id="Subtract_12" fill-rule="evenodd" clip-rule="evenodd" d="M425 135H430H630V145H435V255H457V265H430H425V260V140V135ZM503 265H557V255H503V265ZM630 265H603V255H630V265Z" fill="#D9D9D9"/>
<path id="Subtract_13" fill-rule="evenodd" clip-rule="evenodd" d="M1540 265L1540 255H1530V265H1540ZM1620 265H1630V255H1620V265Z" fill="#D9D9D9"/>
<path id="Vector 285" d="M2740 260H2750" stroke="#D9D9D9" stroke-width="10"/>
<path id="Vector 286" d="M2810 260H2820" stroke="#D9D9D9" stroke-width="10"/>
<path id="Vector 281" d="M2740 350H2750" stroke="#D9D9D9" stroke-width="10"/>
<path id="Vector 282" d="M2820 350H2830" stroke="#D9D9D9" stroke-width="10"/>
<path id="Vector 283" d="M330 350H340" stroke="#D9D9D9" stroke-width="10"/>
<path id="Vector 284" d="M420 350H430" stroke="#D9D9D9" stroke-width="10"/>
<path id="Subtract_14" fill-rule="evenodd" clip-rule="evenodd" d="M340 265L340 255H330V265H340ZM420 265H430V255H420V265Z" fill="#D9D9D9"/>
</g>
<g id="Textes">
<path id="n-327_2" d="M2549.58 413V395.528H2552.8V402.704H2557.26V395.528H2560.48V413H2557.26V405.728H2552.8V413H2549.58ZM2571.84 413.264C2570.05 413.264 2568.53 412.688 2567.3 411.536L2568.89 409.04C2569.72 409.872 2570.64 410.288 2571.65 410.288C2572.37 410.288 2572.95 410.064 2573.4 409.616C2573.86 409.152 2574.09 408.536 2574.09 407.768V407.72C2574.09 406.888 2573.77 406.248 2573.13 405.8C2572.51 405.336 2571.6 405.104 2570.4 405.104H2570.04L2569.8 403.016L2573.3 398.528H2568.07V395.528H2577.07V398.216L2573.33 402.8C2574.48 403.072 2575.42 403.616 2576.16 404.432C2576.91 405.232 2577.29 406.296 2577.29 407.624V407.72C2577.29 409.368 2576.77 410.704 2575.73 411.728C2574.7 412.752 2573.41 413.264 2571.84 413.264ZM2579.11 413V410.336L2583.55 404.36C2584.3 403.336 2584.81 402.536 2585.08 401.96C2585.37 401.384 2585.51 400.824 2585.51 400.28C2585.51 399.688 2585.33 399.216 2584.96 398.864C2584.59 398.512 2584.14 398.336 2583.59 398.336C2582.71 398.336 2581.79 398.936 2580.81 400.136L2578.94 397.904C2580.28 396.144 2581.94 395.264 2583.91 395.264C2585.33 395.264 2586.49 395.688 2587.39 396.536C2588.3 397.368 2588.75 398.52 2588.75 399.992V400.04C2588.75 401 2588.56 401.88 2588.18 402.68C2587.81 403.464 2587.1 404.552 2586.04 405.944L2582.97 409.976H2588.63V413H2579.11ZM2591.21 413L2596.66 398.624H2590.52V395.528H2599.97V397.904L2594.6 413H2591.21Z" fill="#D9D9D9"/>
<path id="n-326_2" d="M2319.52 413V395.528H2322.74V402.704H2327.2V395.528H2330.42V413H2327.2V405.728H2322.74V413H2319.52ZM2341.78 413.264C2339.98 413.264 2338.47 412.688 2337.24 411.536L2338.82 409.04C2339.66 409.872 2340.58 410.288 2341.58 410.288C2342.3 410.288 2342.89 410.064 2343.34 409.616C2343.8 409.152 2344.03 408.536 2344.03 407.768V407.72C2344.03 406.888 2343.71 406.248 2343.07 405.8C2342.45 405.336 2341.54 405.104 2340.34 405.104H2339.98L2339.74 403.016L2343.24 398.528H2338.01V395.528H2347.01V398.216L2343.26 402.8C2344.42 403.072 2345.36 403.616 2346.1 404.432C2346.85 405.232 2347.22 406.296 2347.22 407.624V407.72C2347.22 409.368 2346.7 410.704 2345.66 411.728C2344.64 412.752 2343.34 413.264 2341.78 413.264ZM2349.04 413V410.336L2353.48 404.36C2354.24 403.336 2354.75 402.536 2355.02 401.96C2355.31 401.384 2355.45 400.824 2355.45 400.28C2355.45 399.688 2355.27 399.216 2354.9 398.864C2354.53 398.512 2354.08 398.336 2353.53 398.336C2352.65 398.336 2351.72 398.936 2350.75 400.136L2348.88 397.904C2350.22 396.144 2351.88 395.264 2353.84 395.264C2355.27 395.264 2356.43 395.688 2357.32 396.536C2358.24 397.368 2358.69 398.52 2358.69 399.992V400.04C2358.69 401 2358.5 401.88 2358.12 402.68C2357.75 403.464 2357.04 404.552 2355.98 405.944L2352.91 409.976H2358.57V413H2349.04ZM2365.83 413.264C2364.42 413.264 2363.29 412.816 2362.42 411.92C2361.11 410.608 2360.46 408.312 2360.46 405.032V404.792C2360.46 401.592 2360.99 399.208 2362.06 397.64C2363.15 396.056 2364.67 395.264 2366.62 395.264C2367.95 395.264 2369.18 395.68 2370.32 396.512L2368.93 399.176C2368.22 398.552 2367.45 398.24 2366.6 398.24C2365.74 398.24 2365.05 398.624 2364.54 399.392C2364.04 400.16 2363.76 401.28 2363.7 402.752C2364.51 402.08 2365.47 401.744 2366.58 401.744C2367.81 401.744 2368.86 402.208 2369.72 403.136C2370.6 404.064 2371.04 405.416 2371.04 407.192V407.264C2371.04 409.024 2370.54 410.464 2369.53 411.584C2368.54 412.704 2367.3 413.264 2365.83 413.264ZM2364.25 409.592C2364.62 410.12 2365.14 410.384 2365.81 410.384C2366.48 410.384 2367 410.12 2367.37 409.592C2367.74 409.064 2367.92 408.344 2367.92 407.432V407.408C2367.92 406.496 2367.73 405.784 2367.34 405.272C2366.98 404.744 2366.46 404.48 2365.81 404.48C2365.15 404.48 2364.63 404.744 2364.25 405.272C2363.88 405.784 2363.7 406.496 2363.7 407.408V407.432C2363.7 408.344 2363.88 409.064 2364.25 409.592Z" fill="#D9D9D9"/>
<path id="n-325_2" d="M2190.48 413V395.528H2193.7V402.704H2198.16V395.528H2201.38V413H2198.16V405.728H2193.7V413H2190.48ZM2212.73 413.264C2210.94 413.264 2209.43 412.688 2208.2 411.536L2209.78 409.04C2210.61 409.872 2211.53 410.288 2212.54 410.288C2213.26 410.288 2213.85 410.064 2214.29 409.616C2214.76 409.152 2214.99 408.536 2214.99 407.768V407.72C2214.99 406.888 2214.67 406.248 2214.03 405.8C2213.41 405.336 2212.49 405.104 2211.29 405.104H2210.93L2210.69 403.016L2214.2 398.528H2208.97V395.528H2217.97V398.216L2214.22 402.8C2215.37 403.072 2216.32 403.616 2217.05 404.432C2217.81 405.232 2218.18 406.296 2218.18 407.624V407.72C2218.18 409.368 2217.66 410.704 2216.62 411.728C2215.6 412.752 2214.3 413.264 2212.73 413.264ZM2220 413V410.336L2224.44 404.36C2225.19 403.336 2225.7 402.536 2225.98 401.96C2226.26 401.384 2226.41 400.824 2226.41 400.28C2226.41 399.688 2226.22 399.216 2225.86 398.864C2225.49 398.512 2225.03 398.336 2224.49 398.336C2223.61 398.336 2222.68 398.936 2221.7 400.136L2219.83 397.904C2221.18 396.144 2222.83 395.264 2224.8 395.264C2226.22 395.264 2227.38 395.688 2228.28 396.536C2229.19 397.368 2229.65 398.52 2229.65 399.992V400.04C2229.65 401 2229.46 401.88 2229.07 402.68C2228.7 403.464 2227.99 404.552 2226.94 405.944L2223.86 409.976H2229.53V413H2220ZM2235.59 413.264C2233.89 413.264 2232.4 412.688 2231.12 411.536L2232.73 409.016C2233.64 409.832 2234.56 410.24 2235.49 410.24C2236.23 410.24 2236.82 409.992 2237.27 409.496C2237.72 408.984 2237.94 408.296 2237.94 407.432V407.408C2237.94 406.576 2237.7 405.928 2237.22 405.464C2236.74 404.984 2236.12 404.744 2235.37 404.744C2234.78 404.744 2234.16 404.896 2233.52 405.2L2231.8 404.072L2232.28 395.528H2240.44V398.528H2234.87L2234.65 402.032C2235.2 401.888 2235.73 401.816 2236.26 401.816C2237.64 401.816 2238.79 402.272 2239.72 403.184C2240.66 404.08 2241.13 405.44 2241.13 407.264V407.336C2241.13 409.16 2240.61 410.608 2239.57 411.68C2238.53 412.736 2237.2 413.264 2235.59 413.264Z" fill="#D9D9D9"/>
<path id="n-324_2" d="M2044.46 413V395.528H2047.68V402.704H2052.14V395.528H2055.36V413H2052.14V405.728H2047.68V413H2044.46ZM2066.72 413.264C2064.93 413.264 2063.41 412.688 2062.18 411.536L2063.77 409.04C2064.6 409.872 2065.52 410.288 2066.53 410.288C2067.25 410.288 2067.83 410.064 2068.28 409.616C2068.74 409.152 2068.97 408.536 2068.97 407.768V407.72C2068.97 406.888 2068.65 406.248 2068.01 405.8C2067.39 405.336 2066.48 405.104 2065.28 405.104H2064.92L2064.68 403.016L2068.18 398.528H2062.95V395.528H2071.95V398.216L2068.21 402.8C2069.36 403.072 2070.3 403.616 2071.04 404.432C2071.79 405.232 2072.17 406.296 2072.17 407.624V407.72C2072.17 409.368 2071.65 410.704 2070.61 411.728C2069.58 412.752 2068.29 413.264 2066.72 413.264ZM2073.98 413V410.336L2078.42 404.36C2079.18 403.336 2079.69 402.536 2079.96 401.96C2080.25 401.384 2080.39 400.824 2080.39 400.28C2080.39 399.688 2080.21 399.216 2079.84 398.864C2079.47 398.512 2079.02 398.336 2078.47 398.336C2077.59 398.336 2076.66 398.936 2075.69 400.136L2073.82 397.904C2075.16 396.144 2076.82 395.264 2078.78 395.264C2080.21 395.264 2081.37 395.688 2082.26 396.536C2083.18 397.368 2083.63 398.52 2083.63 399.992V400.04C2083.63 401 2083.44 401.88 2083.06 402.68C2082.69 403.464 2081.98 404.552 2080.92 405.944L2077.85 409.976H2083.51V413H2073.98ZM2091.45 413V409.544H2085.04L2084.78 407.168L2091.48 395.456H2094.45V406.784H2096.3V409.544H2094.45V413H2091.45ZM2088 406.784H2091.45V400.64L2088 406.784Z" fill="#D9D9D9"/>
<path id="n-323_2" d="M1895.56 413V395.528H1898.78V402.704H1903.24V395.528H1906.46V413H1903.24V405.728H1898.78V413H1895.56ZM1917.82 413.264C1916.02 413.264 1914.51 412.688 1913.28 411.536L1914.86 409.04C1915.7 409.872 1916.62 410.288 1917.62 410.288C1918.34 410.288 1918.93 410.064 1919.38 409.616C1919.84 409.152 1920.07 408.536 1920.07 407.768V407.72C1920.07 406.888 1919.75 406.248 1919.11 405.8C1918.49 405.336 1917.58 405.104 1916.38 405.104H1916.02L1915.78 403.016L1919.28 398.528H1914.05V395.528H1923.05V398.216L1919.3 402.8C1920.46 403.072 1921.4 403.616 1922.14 404.432C1922.89 405.232 1923.26 406.296 1923.26 407.624V407.72C1923.26 409.368 1922.74 410.704 1921.7 411.728C1920.68 412.752 1919.38 413.264 1917.82 413.264ZM1925.08 413V410.336L1929.52 404.36C1930.27 403.336 1930.79 402.536 1931.06 401.96C1931.35 401.384 1931.49 400.824 1931.49 400.28C1931.49 399.688 1931.31 399.216 1930.94 398.864C1930.57 398.512 1930.11 398.336 1929.57 398.336C1928.69 398.336 1927.76 398.936 1926.79 400.136L1924.91 397.904C1926.26 396.144 1927.91 395.264 1929.88 395.264C1931.31 395.264 1932.47 395.688 1933.36 396.536C1934.27 397.368 1934.73 398.52 1934.73 399.992V400.04C1934.73 401 1934.54 401.88 1934.15 402.68C1933.79 403.464 1933.07 404.552 1932.02 405.944L1928.95 409.976H1934.61V413H1925.08ZM1940.55 413.264C1938.76 413.264 1937.25 412.688 1936.01 411.536L1937.6 409.04C1938.43 409.872 1939.35 410.288 1940.36 410.288C1941.08 410.288 1941.66 410.064 1942.11 409.616C1942.57 409.152 1942.81 408.536 1942.81 407.768V407.72C1942.81 406.888 1942.49 406.248 1941.85 405.8C1941.22 405.336 1940.31 405.104 1939.11 405.104H1938.75L1938.51 403.016L1942.01 398.528H1936.78V395.528H1945.78V398.216L1942.04 402.8C1943.19 403.072 1944.13 403.616 1944.87 404.432C1945.62 405.232 1946 406.296 1946 407.624V407.72C1946 409.368 1945.48 410.704 1944.44 411.728C1943.41 412.752 1942.12 413.264 1940.55 413.264Z" fill="#D9D9D9"/>
<path id="n-322_2" d="M2914.93 993V975.528H2918.15V982.704H2922.61V975.528H2925.83V993H2922.61V985.728H2918.15V993H2914.93ZM2937.19 993.264C2935.39 993.264 2933.88 992.688 2932.65 991.536L2934.23 989.04C2935.07 989.872 2935.99 990.288 2936.99 990.288C2937.71 990.288 2938.3 990.064 2938.75 989.616C2939.21 989.152 2939.44 988.536 2939.44 987.768V987.72C2939.44 986.888 2939.12 986.248 2938.48 985.8C2937.86 985.336 2936.95 985.104 2935.75 985.104H2935.39L2935.15 983.016L2938.65 978.528H2933.42V975.528H2942.42V978.216L2938.67 982.8C2939.83 983.072 2940.77 983.616 2941.51 984.432C2942.26 985.232 2942.63 986.296 2942.63 987.624V987.72C2942.63 989.368 2942.11 990.704 2941.07 991.728C2940.05 992.752 2938.75 993.264 2937.19 993.264ZM2944.45 993V990.336L2948.89 984.36C2949.65 983.336 2950.16 982.536 2950.43 981.96C2950.72 981.384 2950.86 980.824 2950.86 980.28C2950.86 979.688 2950.68 979.216 2950.31 978.864C2949.94 978.512 2949.49 978.336 2948.94 978.336C2948.06 978.336 2947.13 978.936 2946.16 980.136L2944.29 977.904C2945.63 976.144 2947.29 975.264 2949.25 975.264C2950.68 975.264 2951.84 975.688 2952.73 976.536C2953.65 977.368 2954.1 978.52 2954.1 979.992V980.04C2954.1 981 2953.91 981.88 2953.53 982.68C2953.16 983.464 2952.45 984.552 2951.39 985.944L2948.32 989.976H2953.98V993H2944.45ZM2955.98 993V990.336L2960.42 984.36C2961.18 983.336 2961.69 982.536 2961.96 981.96C2962.25 981.384 2962.39 980.824 2962.39 980.28C2962.39 979.688 2962.21 979.216 2961.84 978.864C2961.47 978.512 2961.02 978.336 2960.47 978.336C2959.59 978.336 2958.66 978.936 2957.69 980.136L2955.82 977.904C2957.16 976.144 2958.82 975.264 2960.78 975.264C2962.21 975.264 2963.37 975.688 2964.26 976.536C2965.18 977.368 2965.63 978.52 2965.63 979.992V980.04C2965.63 981 2965.44 981.88 2965.06 982.68C2964.69 983.464 2963.98 984.552 2962.92 985.944L2959.85 989.976H2965.51V993H2955.98Z" fill="#D9D9D9"/>
<path id="n-321_2" d="M2551.73 993V975.528H2554.94V982.704H2559.41V975.528H2562.62V993H2559.41V985.728H2554.94V993H2551.73ZM2573.98 993.264C2572.19 993.264 2570.68 992.688 2569.44 991.536L2571.03 989.04C2571.86 989.872 2572.78 990.288 2573.79 990.288C2574.51 990.288 2575.09 990.064 2575.54 989.616C2576 989.152 2576.24 988.536 2576.24 987.768V987.72C2576.24 986.888 2575.92 986.248 2575.28 985.8C2574.65 985.336 2573.74 985.104 2572.54 985.104H2572.18L2571.94 983.016L2575.44 978.528H2570.21V975.528H2579.21V978.216L2575.47 982.8C2576.62 983.072 2577.56 983.616 2578.3 984.432C2579.05 985.232 2579.43 986.296 2579.43 987.624V987.72C2579.43 989.368 2578.91 990.704 2577.87 991.728C2576.84 992.752 2575.55 993.264 2573.98 993.264ZM2581.25 993V990.336L2585.69 984.36C2586.44 983.336 2586.95 982.536 2587.22 981.96C2587.51 981.384 2587.65 980.824 2587.65 980.28C2587.65 979.688 2587.47 979.216 2587.1 978.864C2586.73 978.512 2586.28 978.336 2585.73 978.336C2584.85 978.336 2583.93 978.936 2582.95 980.136L2581.08 977.904C2582.42 976.144 2584.08 975.264 2586.05 975.264C2587.47 975.264 2588.63 975.688 2589.53 976.536C2590.44 977.368 2590.89 978.52 2590.89 979.992V980.04C2590.89 981 2590.7 981.88 2590.32 982.68C2589.95 983.464 2589.24 984.552 2588.18 985.944L2585.11 989.976H2590.77V993H2581.25ZM2594.84 993V978.816L2592.59 979.488L2592.3 976.512L2595.8 975.408H2598.06V993H2594.84Z" fill="#D9D9D9"/>
<path id="n-320_2" d="M2913.54 779V761.528H2916.76V768.704H2921.22V761.528H2924.44V779H2921.22V771.728H2916.76V779H2913.54ZM2935.8 779.264C2934 779.264 2932.49 778.688 2931.26 777.536L2932.84 775.04C2933.68 775.872 2934.6 776.288 2935.6 776.288C2936.32 776.288 2936.91 776.064 2937.36 775.616C2937.82 775.152 2938.05 774.536 2938.05 773.768V773.72C2938.05 772.888 2937.73 772.248 2937.09 771.8C2936.47 771.336 2935.56 771.104 2934.36 771.104H2934L2933.76 769.016L2937.26 764.528H2932.03V761.528H2941.03V764.216L2937.28 768.8C2938.44 769.072 2939.38 769.616 2940.12 770.432C2940.87 771.232 2941.24 772.296 2941.24 773.624V773.72C2941.24 775.368 2940.72 776.704 2939.68 777.728C2938.66 778.752 2937.36 779.264 2935.8 779.264ZM2943.06 779V776.336L2947.5 770.36C2948.25 769.336 2948.77 768.536 2949.04 767.96C2949.33 767.384 2949.47 766.824 2949.47 766.28C2949.47 765.688 2949.29 765.216 2948.92 764.864C2948.55 764.512 2948.09 764.336 2947.55 764.336C2946.67 764.336 2945.74 764.936 2944.77 766.136L2942.89 763.904C2944.24 762.144 2945.89 761.264 2947.86 761.264C2949.29 761.264 2950.45 761.688 2951.34 762.536C2952.25 763.368 2952.71 764.52 2952.71 765.992V766.04C2952.71 767 2952.52 767.88 2952.13 768.68C2951.77 769.464 2951.05 770.552 2950 771.944L2946.93 775.976H2952.59V779H2943.06ZM2960.23 779.264C2958.43 779.264 2957.03 778.52 2956.03 777.032C2955.04 775.544 2954.55 773.392 2954.55 770.576V769.976C2954.55 767.144 2955.04 764.984 2956.03 763.496C2957.04 762.008 2958.45 761.264 2960.26 761.264C2962.05 761.264 2963.44 762.008 2964.43 763.496C2965.43 764.984 2965.92 767.136 2965.92 769.952V770.552C2965.92 773.384 2965.42 775.544 2964.41 777.032C2963.42 778.52 2962.03 779.264 2960.23 779.264ZM2960.26 776.288C2961.87 776.288 2962.68 774.352 2962.68 770.48V770.072C2962.68 768.056 2962.46 766.584 2962.01 765.656C2961.56 764.712 2960.97 764.24 2960.23 764.24C2958.62 764.24 2957.81 766.176 2957.81 770.048V770.456C2957.81 774.344 2958.63 776.288 2960.26 776.288Z" fill="#D9D9D9"/>
<path id="n-319_2" d="M2550.77 673V655.528H2553.98V662.704H2558.45V655.528H2561.66V673H2558.45V665.728H2553.98V673H2550.77ZM2573.02 673.264C2571.23 673.264 2569.72 672.688 2568.49 671.536L2570.07 669.04C2570.9 669.872 2571.82 670.288 2572.83 670.288C2573.55 670.288 2574.13 670.064 2574.58 669.616C2575.05 669.152 2575.28 668.536 2575.28 667.768V667.72C2575.28 666.888 2574.96 666.248 2574.32 665.8C2573.69 665.336 2572.78 665.104 2571.58 665.104H2571.22L2570.98 663.016L2574.49 658.528H2569.25V655.528H2578.25V658.216L2574.51 662.8C2575.66 663.072 2576.61 663.616 2577.34 664.432C2578.09 665.232 2578.47 666.296 2578.47 667.624V667.72C2578.47 669.368 2577.95 670.704 2576.91 671.728C2575.89 672.752 2574.59 673.264 2573.02 673.264ZM2582.42 673V658.816L2580.17 659.488L2579.88 656.512L2583.38 655.408H2585.64V673H2582.42ZM2592.6 670.288C2593.46 670.288 2594.14 669.92 2594.64 669.184C2595.14 668.448 2595.42 667.392 2595.48 666.016C2594.7 666.656 2593.75 666.976 2592.65 666.976C2591.4 666.976 2590.34 666.504 2589.46 665.56C2588.59 664.616 2588.16 663.24 2588.16 661.432V661.36C2588.16 659.568 2588.66 658.104 2589.65 656.968C2590.66 655.832 2591.9 655.264 2593.37 655.264C2594.78 655.264 2595.91 655.712 2596.78 656.608C2597.43 657.296 2597.92 658.168 2598.24 659.224C2598.58 660.28 2598.74 661.704 2598.74 663.496V663.736C2598.74 666.936 2598.2 669.328 2597.11 670.912C2596.04 672.48 2594.53 673.264 2592.58 673.264C2591.18 673.264 2589.86 672.784 2588.62 671.824L2590.01 669.16C2590.94 669.912 2591.8 670.288 2592.6 670.288ZM2593.39 664.24C2594.06 664.24 2594.58 663.976 2594.95 663.448C2595.34 662.92 2595.53 662.176 2595.53 661.216V661.192C2595.53 660.232 2595.34 659.488 2594.95 658.96C2594.58 658.416 2594.06 658.144 2593.39 658.144C2592.72 658.144 2592.2 658.416 2591.83 658.96C2591.46 659.488 2591.28 660.232 2591.28 661.192V661.216C2591.28 662.176 2591.46 662.92 2591.83 663.448C2592.22 663.976 2592.74 664.24 2593.39 664.24Z" fill="#D9D9D9"/>
<path id="n-318_2" d="M2915.84 519V501.528H2919.05V508.704H2923.52V501.528H2926.73V519H2923.52V511.728H2919.05V519H2915.84ZM2938.09 519.264C2936.3 519.264 2934.79 518.688 2933.56 517.536L2935.14 515.04C2935.97 515.872 2936.89 516.288 2937.9 516.288C2938.62 516.288 2939.2 516.064 2939.65 515.616C2940.12 515.152 2940.35 514.536 2940.35 513.768V513.72C2940.35 512.888 2940.03 512.248 2939.39 511.8C2938.76 511.336 2937.85 511.104 2936.65 511.104H2936.29L2936.05 509.016L2939.56 504.528H2934.32V501.528H2943.32V504.216L2939.58 508.8C2940.73 509.072 2941.68 509.616 2942.41 510.432C2943.16 511.232 2943.54 512.296 2943.54 513.624V513.72C2943.54 515.368 2943.02 516.704 2941.98 517.728C2940.96 518.752 2939.66 519.264 2938.09 519.264ZM2947.49 519V504.816L2945.24 505.488L2944.95 502.512L2948.45 501.408H2950.71V519H2947.49ZM2958.49 519.264C2956.94 519.264 2955.66 518.816 2954.67 517.92C2953.68 517.008 2953.18 515.792 2953.18 514.272V514.152C2953.18 512.248 2953.99 510.848 2955.61 509.952C2954.25 509.12 2953.57 507.832 2953.57 506.088V505.968C2953.57 504.592 2954.02 503.464 2954.94 502.584C2955.86 501.704 2957.05 501.264 2958.49 501.264C2959.93 501.264 2961.1 501.704 2962.02 502.584C2962.94 503.464 2963.41 504.592 2963.41 505.968V506.088C2963.41 507.816 2962.74 509.104 2961.39 509.952C2963.01 510.848 2963.82 512.248 2963.82 514.152V514.272C2963.82 515.792 2963.32 517.008 2962.33 517.92C2961.34 518.816 2960.06 519.264 2958.49 519.264ZM2957.12 508.008C2957.49 508.456 2957.94 508.68 2958.49 508.68C2959.03 508.68 2959.49 508.456 2959.86 508.008C2960.22 507.56 2960.41 506.968 2960.41 506.232V506.208C2960.41 505.472 2960.22 504.904 2959.86 504.504C2959.49 504.088 2959.03 503.88 2958.49 503.88C2957.94 503.88 2957.49 504.088 2957.12 504.504C2956.75 504.904 2956.57 505.472 2956.57 506.208V506.232C2956.57 506.968 2956.75 507.56 2957.12 508.008ZM2956.9 515.928C2957.32 516.392 2957.85 516.624 2958.49 516.624C2959.13 516.624 2959.66 516.392 2960.07 515.928C2960.49 515.464 2960.7 514.816 2960.7 513.984V513.936C2960.7 513.136 2960.49 512.504 2960.07 512.04C2959.66 511.576 2959.13 511.344 2958.49 511.344C2957.85 511.344 2957.32 511.576 2956.9 512.04C2956.5 512.504 2956.3 513.136 2956.3 513.936V513.984C2956.3 514.816 2956.5 515.464 2956.9 515.928Z" fill="#D9D9D9"/>
<path id="n-317_2" d="M2466.82 141V123.528H2470.03V130.704H2474.5V123.528H2477.71V141H2474.5V133.728H2470.03V141H2466.82ZM2489.07 141.264C2487.28 141.264 2485.77 140.688 2484.54 139.536L2486.12 137.04C2486.95 137.872 2487.87 138.288 2488.88 138.288C2489.6 138.288 2490.18 138.064 2490.63 137.616C2491.1 137.152 2491.33 136.536 2491.33 135.768V135.72C2491.33 134.888 2491.01 134.248 2490.37 133.8C2489.74 133.336 2488.83 133.104 2487.63 133.104H2487.27L2487.03 131.016L2490.54 126.528H2485.3V123.528H2494.3V126.216L2490.56 130.8C2491.71 131.072 2492.66 131.616 2493.39 132.432C2494.14 133.232 2494.52 134.296 2494.52 135.624V135.72C2494.52 137.368 2494 138.704 2492.96 139.728C2491.94 140.752 2490.64 141.264 2489.07 141.264ZM2498.47 141V126.816L2496.22 127.488L2495.93 124.512L2499.43 123.408H2501.69V141H2498.47ZM2504.98 141L2510.43 126.624H2504.28V123.528H2513.74V125.904L2508.36 141H2504.98Z" fill="#D9D9D9"/>
<path id="n-316_2" d="M2625.74 141V123.528H2628.96V130.704H2633.42V123.528H2636.64V141H2633.42V133.728H2628.96V141H2625.74ZM2648 141.264C2646.21 141.264 2644.69 140.688 2643.46 139.536L2645.05 137.04C2645.88 137.872 2646.8 138.288 2647.81 138.288C2648.53 138.288 2649.11 138.064 2649.56 137.616C2650.02 137.152 2650.25 136.536 2650.25 135.768V135.72C2650.25 134.888 2649.93 134.248 2649.29 133.8C2648.67 133.336 2647.76 133.104 2646.56 133.104H2646.2L2645.96 131.016L2649.46 126.528H2644.23V123.528H2653.23V126.216L2649.49 130.8C2650.64 131.072 2651.58 131.616 2652.32 132.432C2653.07 133.232 2653.45 134.296 2653.45 135.624V135.72C2653.45 137.368 2652.93 138.704 2651.89 139.728C2650.86 140.752 2649.57 141.264 2648 141.264ZM2657.4 141V126.816L2655.14 127.488L2654.86 124.512L2658.36 123.408H2660.62V141H2657.4ZM2668.61 141.264C2667.2 141.264 2666.07 140.816 2665.2 139.92C2663.89 138.608 2663.23 136.312 2663.23 133.032V132.792C2663.23 129.592 2663.77 127.208 2664.84 125.64C2665.93 124.056 2667.45 123.264 2669.4 123.264C2670.73 123.264 2671.96 123.68 2673.1 124.512L2671.71 127.176C2671 126.552 2670.23 126.24 2669.38 126.24C2668.51 126.24 2667.83 126.624 2667.31 127.392C2666.82 128.16 2666.54 129.28 2666.47 130.752C2667.29 130.08 2668.25 129.744 2669.35 129.744C2670.59 129.744 2671.63 130.208 2672.5 131.136C2673.38 132.064 2673.82 133.416 2673.82 135.192V135.264C2673.82 137.024 2673.31 138.464 2672.31 139.584C2671.31 140.704 2670.08 141.264 2668.61 141.264ZM2667.03 137.592C2667.39 138.12 2667.91 138.384 2668.59 138.384C2669.26 138.384 2669.78 138.12 2670.15 137.592C2670.51 137.064 2670.7 136.344 2670.7 135.432V135.408C2670.7 134.496 2670.51 133.784 2670.12 133.272C2669.75 132.744 2669.24 132.48 2668.59 132.48C2667.93 132.48 2667.41 132.744 2667.03 133.272C2666.66 133.784 2666.47 134.496 2666.47 135.408V135.432C2666.47 136.344 2666.66 137.064 2667.03 137.592Z" fill="#D9D9D9"/>
<path id="n-315_2" d="M1345.74 989V971.528H1348.95V978.704H1353.42V971.528H1356.63V989H1353.42V981.728H1348.95V989H1345.74ZM1367.99 989.264C1366.2 989.264 1364.69 988.688 1363.45 987.536L1365.04 985.04C1365.87 985.872 1366.79 986.288 1367.8 986.288C1368.52 986.288 1369.1 986.064 1369.55 985.616C1370.01 985.152 1370.25 984.536 1370.25 983.768V983.72C1370.25 982.888 1369.93 982.248 1369.29 981.8C1368.66 981.336 1367.75 981.104 1366.55 981.104H1366.19L1365.95 979.016L1369.45 974.528H1364.22V971.528H1373.22V974.216L1369.48 978.8C1370.63 979.072 1371.57 979.616 1372.31 980.432C1373.06 981.232 1373.44 982.296 1373.44 983.624V983.72C1373.44 985.368 1372.92 986.704 1371.88 987.728C1370.85 988.752 1369.56 989.264 1367.99 989.264ZM1377.39 989V974.816L1375.14 975.488L1374.85 972.512L1378.35 971.408H1380.61V989H1377.39ZM1387.33 989.264C1385.63 989.264 1384.15 988.688 1382.87 987.536L1384.47 985.016C1385.39 985.832 1386.31 986.24 1387.23 986.24C1387.97 986.24 1388.56 985.992 1389.01 985.496C1389.46 984.984 1389.68 984.296 1389.68 983.432V983.408C1389.68 982.576 1389.44 981.928 1388.96 981.464C1388.48 980.984 1387.87 980.744 1387.11 980.744C1386.52 980.744 1385.91 980.896 1385.27 981.2L1383.54 980.072L1384.02 971.528H1392.18V974.528H1386.61L1386.39 978.032C1386.94 977.888 1387.47 977.816 1388 977.816C1389.38 977.816 1390.53 978.272 1391.46 979.184C1392.4 980.08 1392.87 981.44 1392.87 983.264V983.336C1392.87 985.16 1392.35 986.608 1391.31 987.68C1390.27 988.736 1388.95 989.264 1387.33 989.264Z" fill="#D9D9D9"/>
<path id="n-314_2" d="M1716.57 989V971.528H1719.78V978.704H1724.25V971.528H1727.46V989H1724.25V981.728H1719.78V989H1716.57ZM1738.82 989.264C1737.03 989.264 1735.52 988.688 1734.29 987.536L1735.87 985.04C1736.7 985.872 1737.62 986.288 1738.63 986.288C1739.35 986.288 1739.93 986.064 1740.38 985.616C1740.85 985.152 1741.08 984.536 1741.08 983.768V983.72C1741.08 982.888 1740.76 982.248 1740.12 981.8C1739.49 981.336 1738.58 981.104 1737.38 981.104H1737.02L1736.78 979.016L1740.29 974.528H1735.05V971.528H1744.05V974.216L1740.31 978.8C1741.46 979.072 1742.41 979.616 1743.14 980.432C1743.89 981.232 1744.27 982.296 1744.27 983.624V983.72C1744.27 985.368 1743.75 986.704 1742.71 987.728C1741.69 988.752 1740.39 989.264 1738.82 989.264ZM1748.22 989V974.816L1745.97 975.488L1745.68 972.512L1749.18 971.408H1751.44V989H1748.22ZM1760.35 989V985.544H1753.94L1753.67 983.168L1760.37 971.456H1763.35V982.784H1765.19V985.544H1763.35V989H1760.35ZM1756.89 982.784H1760.35V976.64L1756.89 982.784Z" fill="#D9D9D9"/>
<path id="n-313_2" d="M1345.82 764V746.528H1349.03V753.704H1353.5V746.528H1356.71V764H1353.5V756.728H1349.03V764H1345.82ZM1368.07 764.264C1366.28 764.264 1364.77 763.688 1363.54 762.536L1365.12 760.04C1365.95 760.872 1366.87 761.288 1367.88 761.288C1368.6 761.288 1369.18 761.064 1369.63 760.616C1370.1 760.152 1370.33 759.536 1370.33 758.768V758.72C1370.33 757.888 1370.01 757.248 1369.37 756.8C1368.74 756.336 1367.83 756.104 1366.63 756.104H1366.27L1366.03 754.016L1369.54 749.528H1364.3V746.528H1373.3V749.216L1369.56 753.8C1370.71 754.072 1371.66 754.616 1372.39 755.432C1373.14 756.232 1373.52 757.296 1373.52 758.624V758.72C1373.52 760.368 1373 761.704 1371.96 762.728C1370.94 763.752 1369.64 764.264 1368.07 764.264ZM1377.47 764V749.816L1375.22 750.488L1374.93 747.512L1378.43 746.408H1380.69V764H1377.47ZM1387.29 764.264C1385.5 764.264 1383.99 763.688 1382.76 762.536L1384.34 760.04C1385.17 760.872 1386.09 761.288 1387.1 761.288C1387.82 761.288 1388.4 761.064 1388.85 760.616C1389.32 760.152 1389.55 759.536 1389.55 758.768V758.72C1389.55 757.888 1389.23 757.248 1388.59 756.8C1387.96 756.336 1387.05 756.104 1385.85 756.104H1385.49L1385.25 754.016L1388.76 749.528H1383.52V746.528H1392.52V749.216L1388.78 753.8C1389.93 754.072 1390.88 754.616 1391.61 755.432C1392.36 756.232 1392.74 757.296 1392.74 758.624V758.72C1392.74 760.368 1392.22 761.704 1391.18 762.728C1390.16 763.752 1388.86 764.264 1387.29 764.264Z" fill="#D9D9D9"/>
<path id="n-312_2" d="M1716.69 764V746.528H1719.91V753.704H1724.37V746.528H1727.59V764H1724.37V756.728H1719.91V764H1716.69ZM1738.94 764.264C1737.15 764.264 1735.64 763.688 1734.41 762.536L1735.99 760.04C1736.82 760.872 1737.74 761.288 1738.75 761.288C1739.47 761.288 1740.06 761.064 1740.5 760.616C1740.97 760.152 1741.2 759.536 1741.2 758.768V758.72C1741.2 757.888 1740.88 757.248 1740.24 756.8C1739.62 756.336 1738.7 756.104 1737.5 756.104H1737.14L1736.9 754.016L1740.41 749.528H1735.18V746.528H1744.18V749.216L1740.43 753.8C1741.58 754.072 1742.53 754.616 1743.26 755.432C1744.02 756.232 1744.39 757.296 1744.39 758.624V758.72C1744.39 760.368 1743.87 761.704 1742.83 762.728C1741.81 763.752 1740.51 764.264 1738.94 764.264ZM1748.35 764V749.816L1746.09 750.488L1745.8 747.512L1749.31 746.408H1751.56V764H1748.35ZM1754.23 764V761.336L1758.67 755.36C1759.42 754.336 1759.93 753.536 1760.2 752.96C1760.49 752.384 1760.63 751.824 1760.63 751.28C1760.63 750.688 1760.45 750.216 1760.08 749.864C1759.71 749.512 1759.26 749.336 1758.71 749.336C1757.83 749.336 1756.91 749.936 1755.93 751.136L1754.06 748.904C1755.4 747.144 1757.06 746.264 1759.03 746.264C1760.45 746.264 1761.61 746.688 1762.51 747.536C1763.42 748.368 1763.87 749.52 1763.87 750.992V751.04C1763.87 752 1763.68 752.88 1763.3 753.68C1762.93 754.464 1762.22 755.552 1761.16 756.944L1758.09 760.976H1763.75V764H1754.23Z" fill="#D9D9D9"/>
<path id="n-311_2" d="M1347.48 509V491.528H1350.7V498.704H1355.16V491.528H1358.38V509H1355.16V501.728H1350.7V509H1347.48ZM1369.74 509.264C1367.94 509.264 1366.43 508.688 1365.2 507.536L1366.78 505.04C1367.62 505.872 1368.54 506.288 1369.54 506.288C1370.26 506.288 1370.85 506.064 1371.3 505.616C1371.76 505.152 1371.99 504.536 1371.99 503.768V503.72C1371.99 502.888 1371.67 502.248 1371.03 501.8C1370.41 501.336 1369.5 501.104 1368.3 501.104H1367.94L1367.7 499.016L1371.2 494.528H1365.97V491.528H1374.97V494.216L1371.22 498.8C1372.38 499.072 1373.32 499.616 1374.06 500.432C1374.81 501.232 1375.18 502.296 1375.18 503.624V503.72C1375.18 505.368 1374.66 506.704 1373.62 507.728C1372.6 508.752 1371.3 509.264 1369.74 509.264ZM1379.14 509V494.816L1376.88 495.488L1376.59 492.512L1380.1 491.408H1382.35V509H1379.14ZM1387.08 509V494.816L1384.83 495.488L1384.54 492.512L1388.04 491.408H1390.3V509H1387.08Z" fill="#D9D9D9"/>
<path id="n-310_2" d="M1715.8 509V491.528H1719.02V498.704H1723.48V491.528H1726.7V509H1723.48V501.728H1719.02V509H1715.8ZM1738.05 509.264C1736.26 509.264 1734.75 508.688 1733.52 507.536L1735.1 505.04C1735.93 505.872 1736.85 506.288 1737.86 506.288C1738.58 506.288 1739.17 506.064 1739.61 505.616C1740.08 505.152 1740.31 504.536 1740.31 503.768V503.72C1740.31 502.888 1739.99 502.248 1739.35 501.8C1738.73 501.336 1737.81 501.104 1736.61 501.104H1736.25L1736.01 499.016L1739.52 494.528H1734.29V491.528H1743.29V494.216L1739.54 498.8C1740.69 499.072 1741.64 499.616 1742.37 500.432C1743.13 501.232 1743.5 502.296 1743.5 503.624V503.72C1743.5 505.368 1742.98 506.704 1741.94 507.728C1740.92 508.752 1739.62 509.264 1738.05 509.264ZM1747.45 509V494.816L1745.2 495.488L1744.91 492.512L1748.41 491.408H1750.67V509H1747.45ZM1758.98 509.264C1757.17 509.264 1755.77 508.52 1754.78 507.032C1753.78 505.544 1753.29 503.392 1753.29 500.576V499.976C1753.29 497.144 1753.78 494.984 1754.78 493.496C1755.78 492.008 1757.19 491.264 1759 491.264C1760.79 491.264 1762.18 492.008 1763.18 493.496C1764.17 494.984 1764.66 497.136 1764.66 499.952V500.552C1764.66 503.384 1764.16 505.544 1763.15 507.032C1762.16 508.52 1760.77 509.264 1758.98 509.264ZM1759 506.288C1760.62 506.288 1761.42 504.352 1761.42 500.48V500.072C1761.42 498.056 1761.2 496.584 1760.75 495.656C1760.3 494.712 1759.71 494.24 1758.98 494.24C1757.36 494.24 1756.55 496.176 1756.55 500.048V500.456C1756.55 504.344 1757.37 506.288 1759 506.288Z" fill="#D9D9D9"/>
<path id="n-309_2" d="M1043.58 413V395.528H1046.8V402.704H1051.26V395.528H1054.48V413H1051.26V405.728H1046.8V413H1043.58ZM1065.84 413.264C1064.05 413.264 1062.53 412.688 1061.3 411.536L1062.89 409.04C1063.72 409.872 1064.64 410.288 1065.65 410.288C1066.37 410.288 1066.95 410.064 1067.4 409.616C1067.86 409.152 1068.09 408.536 1068.09 407.768V407.72C1068.09 406.888 1067.77 406.248 1067.13 405.8C1066.51 405.336 1065.6 405.104 1064.4 405.104H1064.04L1063.8 403.016L1067.3 398.528H1062.07V395.528H1071.07V398.216L1067.33 402.8C1068.48 403.072 1069.42 403.616 1070.16 404.432C1070.91 405.232 1071.29 406.296 1071.29 407.624V407.72C1071.29 409.368 1070.77 410.704 1069.73 411.728C1068.7 412.752 1067.41 413.264 1065.84 413.264ZM1078.82 413.264C1077.01 413.264 1075.61 412.52 1074.62 411.032C1073.62 409.544 1073.13 407.392 1073.13 404.576V403.976C1073.13 401.144 1073.62 398.984 1074.62 397.496C1075.62 396.008 1077.03 395.264 1078.84 395.264C1080.63 395.264 1082.02 396.008 1083.02 397.496C1084.01 398.984 1084.5 401.136 1084.5 403.952V404.552C1084.5 407.384 1084 409.544 1082.99 411.032C1082 412.52 1080.61 413.264 1078.82 413.264ZM1078.84 410.288C1080.46 410.288 1081.26 408.352 1081.26 404.48V404.072C1081.26 402.056 1081.04 400.584 1080.59 399.656C1080.14 398.712 1079.55 398.24 1078.82 398.24C1077.2 398.24 1076.39 400.176 1076.39 404.048V404.456C1076.39 408.344 1077.21 410.288 1078.84 410.288ZM1090.78 410.288C1091.65 410.288 1092.33 409.92 1092.82 409.184C1093.32 408.448 1093.6 407.392 1093.66 406.016C1092.88 406.656 1091.94 406.976 1090.83 406.976C1089.58 406.976 1088.52 406.504 1087.64 405.56C1086.78 404.616 1086.34 403.24 1086.34 401.432V401.36C1086.34 399.568 1086.84 398.104 1087.83 396.968C1088.84 395.832 1090.08 395.264 1091.55 395.264C1092.96 395.264 1094.1 395.712 1094.96 396.608C1095.62 397.296 1096.1 398.168 1096.42 399.224C1096.76 400.28 1096.93 401.704 1096.93 403.496V403.736C1096.93 406.936 1096.38 409.328 1095.3 410.912C1094.22 412.48 1092.71 413.264 1090.76 413.264C1089.37 413.264 1088.05 412.784 1086.8 411.824L1088.19 409.16C1089.12 409.912 1089.98 410.288 1090.78 410.288ZM1091.58 404.24C1092.25 404.24 1092.77 403.976 1093.14 403.448C1093.52 402.92 1093.71 402.176 1093.71 401.216V401.192C1093.71 400.232 1093.52 399.488 1093.14 398.96C1092.77 398.416 1092.25 398.144 1091.58 398.144C1090.9 398.144 1090.38 398.416 1090.02 398.96C1089.65 399.488 1089.46 400.232 1089.46 401.192V401.216C1089.46 402.176 1089.65 402.92 1090.02 403.448C1090.4 403.976 1090.92 404.24 1091.58 404.24Z" fill="#D9D9D9"/>
<path id="n-308_2" d="M753.655 413V395.528H756.871V402.704H761.335V395.528H764.551V413H761.335V405.728H756.871V413H753.655ZM775.909 413.264C774.117 413.264 772.605 412.688 771.373 411.536L772.957 409.04C773.789 409.872 774.709 410.288 775.717 410.288C776.437 410.288 777.021 410.064 777.469 409.616C777.933 409.152 778.165 408.536 778.165 407.768V407.72C778.165 406.888 777.845 406.248 777.205 405.8C776.581 405.336 775.669 405.104 774.469 405.104H774.109L773.869 403.016L777.373 398.528H772.141V395.528H781.141V398.216L777.397 402.8C778.549 403.072 779.493 403.616 780.229 404.432C780.981 405.232 781.357 406.296 781.357 407.624V407.72C781.357 409.368 780.837 410.704 779.797 411.728C778.773 412.752 777.477 413.264 775.909 413.264ZM788.886 413.264C787.078 413.264 785.678 412.52 784.686 411.032C783.694 409.544 783.198 407.392 783.198 404.576V403.976C783.198 401.144 783.694 398.984 784.686 397.496C785.694 396.008 787.102 395.264 788.91 395.264C790.702 395.264 792.094 396.008 793.086 397.496C794.078 398.984 794.574 401.136 794.574 403.952V404.552C794.574 407.384 794.07 409.544 793.062 411.032C792.07 412.52 790.678 413.264 788.886 413.264ZM788.91 410.288C790.526 410.288 791.334 408.352 791.334 404.48V404.072C791.334 402.056 791.11 400.584 790.662 399.656C790.214 398.712 789.622 398.24 788.886 398.24C787.27 398.24 786.462 400.176 786.462 404.048V404.456C786.462 408.344 787.278 410.288 788.91 410.288ZM801.671 413.264C800.119 413.264 798.847 412.816 797.855 411.92C796.863 411.008 796.367 409.792 796.367 408.272V408.152C796.367 406.248 797.175 404.848 798.791 403.952C797.431 403.12 796.751 401.832 796.751 400.088V399.968C796.751 398.592 797.207 397.464 798.119 396.584C799.047 395.704 800.231 395.264 801.671 395.264C803.111 395.264 804.287 395.704 805.199 396.584C806.127 397.464 806.591 398.592 806.591 399.968V400.088C806.591 401.816 805.919 403.104 804.575 403.952C806.191 404.848 806.999 406.248 806.999 408.152V408.272C806.999 409.792 806.503 411.008 805.511 411.92C804.519 412.816 803.239 413.264 801.671 413.264ZM800.303 402.008C800.671 402.456 801.127 402.68 801.671 402.68C802.215 402.68 802.671 402.456 803.039 402.008C803.407 401.56 803.591 400.968 803.591 400.232V400.208C803.591 399.472 803.407 398.904 803.039 398.504C802.671 398.088 802.215 397.88 801.671 397.88C801.127 397.88 800.671 398.088 800.303 398.504C799.935 398.904 799.751 399.472 799.751 400.208V400.232C799.751 400.968 799.935 401.56 800.303 402.008ZM800.087 409.928C800.503 410.392 801.031 410.624 801.671 410.624C802.311 410.624 802.839 410.392 803.255 409.928C803.671 409.464 803.879 408.816 803.879 407.984V407.936C803.879 407.136 803.671 406.504 803.255 406.04C802.839 405.576 802.311 405.344 801.671 405.344C801.031 405.344 800.503 405.576 800.087 406.04C799.687 406.504 799.487 407.136 799.487 407.936V407.984C799.487 408.816 799.687 409.464 800.087 409.928Z" fill="#D9D9D9"/>
<path id="n-307_2" d="M503.835 988V970.528H507.051V977.704H511.515V970.528H514.731V988H511.515V980.728H507.051V988H503.835ZM526.089 988.264C524.297 988.264 522.785 987.688 521.553 986.536L523.137 984.04C523.969 984.872 524.889 985.288 525.897 985.288C526.617 985.288 527.201 985.064 527.649 984.616C528.113 984.152 528.345 983.536 528.345 982.768V982.72C528.345 981.888 528.025 981.248 527.385 980.8C526.761 980.336 525.849 980.104 524.649 980.104H524.289L524.049 978.016L527.553 973.528H522.321V970.528H531.321V973.216L527.577 977.8C528.729 978.072 529.673 978.616 530.409 979.432C531.161 980.232 531.537 981.296 531.537 982.624V982.72C531.537 984.368 531.017 985.704 529.977 986.728C528.953 987.752 527.657 988.264 526.089 988.264ZM539.066 988.264C537.258 988.264 535.858 987.52 534.866 986.032C533.874 984.544 533.378 982.392 533.378 979.576V978.976C533.378 976.144 533.874 973.984 534.866 972.496C535.874 971.008 537.282 970.264 539.09 970.264C540.882 970.264 542.274 971.008 543.266 972.496C544.258 973.984 544.754 976.136 544.754 978.952V979.552C544.754 982.384 544.25 984.544 543.242 986.032C542.25 987.52 540.858 988.264 539.066 988.264ZM539.09 985.288C540.706 985.288 541.514 983.352 541.514 979.48V979.072C541.514 977.056 541.29 975.584 540.842 974.656C540.394 973.712 539.802 973.24 539.066 973.24C537.45 973.24 536.642 975.176 536.642 979.048V979.456C536.642 983.344 537.458 985.288 539.09 985.288ZM546.964 988L552.412 973.624H546.268V970.528H555.724V972.904L550.348 988H546.964Z" fill="#D9D9D9"/>
<path id="n-306_2" d="M503.561 763V745.528H506.777V752.704H511.241V745.528H514.457V763H511.241V755.728H506.777V763H503.561ZM525.815 763.264C524.023 763.264 522.511 762.688 521.279 761.536L522.863 759.04C523.695 759.872 524.615 760.288 525.623 760.288C526.343 760.288 526.927 760.064 527.375 759.616C527.839 759.152 528.071 758.536 528.071 757.768V757.72C528.071 756.888 527.751 756.248 527.111 755.8C526.487 755.336 525.575 755.104 524.375 755.104H524.015L523.775 753.016L527.279 748.528H522.047V745.528H531.047V748.216L527.303 752.8C528.455 753.072 529.399 753.616 530.135 754.432C530.887 755.232 531.263 756.296 531.263 757.624V757.72C531.263 759.368 530.743 760.704 529.703 761.728C528.679 762.752 527.383 763.264 525.815 763.264ZM538.793 763.264C536.985 763.264 535.585 762.52 534.593 761.032C533.601 759.544 533.105 757.392 533.105 754.576V753.976C533.105 751.144 533.601 748.984 534.593 747.496C535.601 746.008 537.009 745.264 538.817 745.264C540.609 745.264 542.001 746.008 542.993 747.496C543.985 748.984 544.481 751.136 544.481 753.952V754.552C544.481 757.384 543.977 759.544 542.969 761.032C541.977 762.52 540.585 763.264 538.793 763.264ZM538.817 760.288C540.433 760.288 541.241 758.352 541.241 754.48V754.072C541.241 752.056 541.017 750.584 540.569 749.656C540.121 748.712 539.529 748.24 538.793 748.24C537.177 748.24 536.369 750.176 536.369 754.048V754.456C536.369 758.344 537.185 760.288 538.817 760.288ZM551.793 763.264C550.385 763.264 549.249 762.816 548.385 761.92C547.073 760.608 546.417 758.312 546.417 755.032V754.792C546.417 751.592 546.953 749.208 548.025 747.64C549.113 746.056 550.633 745.264 552.585 745.264C553.913 745.264 555.145 745.68 556.281 746.512L554.889 749.176C554.185 748.552 553.409 748.24 552.561 748.24C551.697 748.24 551.009 748.624 550.497 749.392C550.001 750.16 549.721 751.28 549.657 752.752C550.473 752.08 551.433 751.744 552.537 751.744C553.769 751.744 554.817 752.208 555.681 753.136C556.561 754.064 557.001 755.416 557.001 757.192V757.264C557.001 759.024 556.497 760.464 555.489 761.584C554.497 762.704 553.265 763.264 551.793 763.264ZM550.209 759.592C550.577 760.12 551.097 760.384 551.769 760.384C552.441 760.384 552.961 760.12 553.329 759.592C553.697 759.064 553.881 758.344 553.881 757.432V757.408C553.881 756.496 553.689 755.784 553.305 755.272C552.937 754.744 552.425 754.48 551.769 754.48C551.113 754.48 550.593 754.744 550.209 755.272C549.841 755.784 549.657 756.496 549.657 757.408V757.432C549.657 758.344 549.841 759.064 550.209 759.592Z" fill="#D9D9D9"/>
<path id="n-305_2" d="M141.553 988V970.528H144.769V977.704H149.233V970.528H152.449V988H149.233V980.728H144.769V988H141.553ZM163.807 988.264C162.015 988.264 160.503 987.688 159.271 986.536L160.855 984.04C161.687 984.872 162.607 985.288 163.615 985.288C164.335 985.288 164.919 985.064 165.367 984.616C165.831 984.152 166.063 983.536 166.063 982.768V982.72C166.063 981.888 165.743 981.248 165.103 980.8C164.479 980.336 163.567 980.104 162.367 980.104H162.007L161.767 978.016L165.271 973.528H160.039V970.528H169.039V973.216L165.295 977.8C166.447 978.072 167.391 978.616 168.127 979.432C168.879 980.232 169.255 981.296 169.255 982.624V982.72C169.255 984.368 168.735 985.704 167.695 986.728C166.671 987.752 165.375 988.264 163.807 988.264ZM176.785 988.264C174.977 988.264 173.577 987.52 172.585 986.032C171.593 984.544 171.097 982.392 171.097 979.576V978.976C171.097 976.144 171.593 973.984 172.585 972.496C173.593 971.008 175.001 970.264 176.809 970.264C178.601 970.264 179.993 971.008 180.985 972.496C181.977 973.984 182.473 976.136 182.473 978.952V979.552C182.473 982.384 181.969 984.544 180.961 986.032C179.969 987.52 178.577 988.264 176.785 988.264ZM176.809 985.288C178.425 985.288 179.233 983.352 179.233 979.48V979.072C179.233 977.056 179.009 975.584 178.561 974.656C178.113 973.712 177.521 973.24 176.785 973.24C175.169 973.24 174.361 975.176 174.361 979.048V979.456C174.361 983.344 175.177 985.288 176.809 985.288ZM188.513 988.264C186.817 988.264 185.329 987.688 184.049 986.536L185.657 984.016C186.569 984.832 187.489 985.24 188.417 985.24C189.153 985.24 189.745 984.992 190.193 984.496C190.641 983.984 190.865 983.296 190.865 982.432V982.408C190.865 981.576 190.625 980.928 190.145 980.464C189.665 979.984 189.049 979.744 188.297 979.744C187.705 979.744 187.089 979.896 186.449 980.2L184.721 979.072L185.201 970.528H193.361V973.528H187.793L187.577 977.032C188.121 976.888 188.657 976.816 189.185 976.816C190.561 976.816 191.713 977.272 192.641 978.184C193.585 979.08 194.057 980.44 194.057 982.264V982.336C194.057 984.16 193.537 985.608 192.497 986.68C191.457 987.736 190.129 988.264 188.513 988.264Z" fill="#D9D9D9"/>
<path id="n-304_2" d="M502.885 508V490.528H506.101V497.704H510.565V490.528H513.781V508H510.565V500.728H506.101V508H502.885ZM525.139 508.264C523.347 508.264 521.835 507.688 520.603 506.536L522.187 504.04C523.019 504.872 523.939 505.288 524.947 505.288C525.667 505.288 526.251 505.064 526.699 504.616C527.163 504.152 527.395 503.536 527.395 502.768V502.72C527.395 501.888 527.075 501.248 526.435 500.8C525.811 500.336 524.899 500.104 523.699 500.104H523.339L523.099 498.016L526.603 493.528H521.371V490.528H530.371V493.216L526.627 497.8C527.779 498.072 528.723 498.616 529.459 499.432C530.211 500.232 530.587 501.296 530.587 502.624V502.72C530.587 504.368 530.067 505.704 529.027 506.728C528.003 507.752 526.707 508.264 525.139 508.264ZM538.117 508.264C536.309 508.264 534.909 507.52 533.917 506.032C532.925 504.544 532.429 502.392 532.429 499.576V498.976C532.429 496.144 532.925 493.984 533.917 492.496C534.925 491.008 536.333 490.264 538.141 490.264C539.933 490.264 541.325 491.008 542.317 492.496C543.309 493.984 543.805 496.136 543.805 498.952V499.552C543.805 502.384 543.301 504.544 542.293 506.032C541.301 507.52 539.909 508.264 538.117 508.264ZM538.141 505.288C539.757 505.288 540.565 503.352 540.565 499.48V499.072C540.565 497.056 540.341 495.584 539.893 494.656C539.445 493.712 538.853 493.24 538.117 493.24C536.501 493.24 535.693 495.176 535.693 499.048V499.456C535.693 503.344 536.509 505.288 538.141 505.288ZM552.029 508V504.544H545.621L545.357 502.168L552.053 490.456H555.029V501.784H556.877V504.544H555.029V508H552.029ZM548.573 501.784H552.029V495.64L548.573 501.784Z" fill="#D9D9D9"/>
<path id="n-303&#208;&#177;" d="M134.854 763V745.528H138.07V752.704H142.534V745.528H145.75V763H142.534V755.728H138.07V763H134.854ZM157.108 763.264C155.316 763.264 153.804 762.688 152.572 761.536L154.156 759.04C154.988 759.872 155.908 760.288 156.916 760.288C157.636 760.288 158.22 760.064 158.668 759.616C159.132 759.152 159.364 758.536 159.364 757.768V757.72C159.364 756.888 159.044 756.248 158.404 755.8C157.78 755.336 156.868 755.104 155.668 755.104H155.308L155.068 753.016L158.572 748.528H153.34V745.528H162.34V748.216L158.596 752.8C159.748 753.072 160.692 753.616 161.428 754.432C162.18 755.232 162.556 756.296 162.556 757.624V757.72C162.556 759.368 162.036 760.704 160.996 761.728C159.972 762.752 158.676 763.264 157.108 763.264ZM170.086 763.264C168.278 763.264 166.878 762.52 165.886 761.032C164.894 759.544 164.398 757.392 164.398 754.576V753.976C164.398 751.144 164.894 748.984 165.886 747.496C166.894 746.008 168.302 745.264 170.11 745.264C171.902 745.264 173.294 746.008 174.286 747.496C175.278 748.984 175.773 751.136 175.773 753.952V754.552C175.773 757.384 175.27 759.544 174.262 761.032C173.27 762.52 171.878 763.264 170.086 763.264ZM170.11 760.288C171.726 760.288 172.534 758.352 172.534 754.48V754.072C172.534 752.056 172.31 750.584 171.862 749.656C171.414 748.712 170.822 748.24 170.086 748.24C168.47 748.24 167.662 750.176 167.662 754.048V754.456C167.662 758.344 168.478 760.288 170.11 760.288ZM181.507 763.264C179.715 763.264 178.203 762.688 176.971 761.536L178.555 759.04C179.387 759.872 180.307 760.288 181.315 760.288C182.035 760.288 182.619 760.064 183.067 759.616C183.531 759.152 183.763 758.536 183.763 757.768V757.72C183.763 756.888 183.443 756.248 182.803 755.8C182.179 755.336 181.267 755.104 180.067 755.104H179.707L179.467 753.016L182.971 748.528H177.739V745.528H186.739V748.216L182.995 752.8C184.147 753.072 185.091 753.616 185.827 754.432C186.579 755.232 186.955 756.296 186.955 757.624V757.72C186.955 759.368 186.435 760.704 185.395 761.728C184.371 762.752 183.075 763.264 181.507 763.264ZM189.276 763V745.528H198.708V748.48H192.444V752.224H193.956C195.78 752.224 197.212 752.664 198.252 753.544C199.292 754.424 199.812 755.728 199.812 757.456V757.504C199.812 759.264 199.276 760.624 198.204 761.584C197.132 762.528 195.62 763 193.668 763H189.276ZM192.444 760.072H193.884C194.764 760.072 195.436 759.848 195.9 759.4C196.364 758.936 196.596 758.328 196.596 757.576V757.552C196.596 756.784 196.38 756.176 195.948 755.728C195.516 755.28 194.844 755.064 193.932 755.08H192.444V760.072Z" fill="#D9D9D9"/>
<path id="n-303&#208;&#176;" d="M134.874 508V490.528H138.09V497.704H142.554V490.528H145.77V508H142.554V500.728H138.09V508H134.874ZM157.128 508.264C155.336 508.264 153.824 507.688 152.592 506.536L154.176 504.04C155.008 504.872 155.928 505.288 156.936 505.288C157.656 505.288 158.24 505.064 158.688 504.616C159.152 504.152 159.384 503.536 159.384 502.768V502.72C159.384 501.888 159.064 501.248 158.424 500.8C157.8 500.336 156.888 500.104 155.688 500.104H155.328L155.088 498.016L158.592 493.528H153.36V490.528H162.36V493.216L158.616 497.8C159.768 498.072 160.712 498.616 161.448 499.432C162.2 500.232 162.576 501.296 162.576 502.624V502.72C162.576 504.368 162.056 505.704 161.016 506.728C159.992 507.752 158.696 508.264 157.128 508.264ZM170.105 508.264C168.297 508.264 166.897 507.52 165.905 506.032C164.913 504.544 164.417 502.392 164.417 499.576V498.976C164.417 496.144 164.913 493.984 165.905 492.496C166.913 491.008 168.321 490.264 170.129 490.264C171.921 490.264 173.313 491.008 174.305 492.496C175.297 493.984 175.793 496.136 175.793 498.952V499.552C175.793 502.384 175.289 504.544 174.281 506.032C173.289 507.52 171.897 508.264 170.105 508.264ZM170.129 505.288C171.745 505.288 172.553 503.352 172.553 499.48V499.072C172.553 497.056 172.329 495.584 171.881 494.656C171.433 493.712 170.841 493.24 170.105 493.24C168.489 493.24 167.681 495.176 167.681 499.048V499.456C167.681 503.344 168.497 505.288 170.129 505.288ZM181.526 508.264C179.734 508.264 178.222 507.688 176.99 506.536L178.574 504.04C179.406 504.872 180.326 505.288 181.334 505.288C182.054 505.288 182.638 505.064 183.086 504.616C183.55 504.152 183.782 503.536 183.782 502.768V502.72C183.782 501.888 183.462 501.248 182.822 500.8C182.198 500.336 181.286 500.104 180.086 500.104H179.726L179.486 498.016L182.99 493.528H177.758V490.528H186.758V493.216L183.014 497.8C184.166 498.072 185.11 498.616 185.846 499.432C186.598 500.232 186.974 501.296 186.974 502.624V502.72C186.974 504.368 186.454 505.704 185.414 506.728C184.39 507.752 183.094 508.264 181.526 508.264ZM188.215 508L193.087 490.456H196.327L201.223 508H197.935L196.951 504.28H192.343L191.383 508H188.215ZM193.111 501.424H196.183L194.671 495.424L193.111 501.424Z" fill="#D9D9D9"/>
<path id="n-302_2" d="M228.624 141V123.528H231.84V130.704H236.304V123.528H239.52V141H236.304V133.728H231.84V141H228.624ZM250.878 141.264C249.086 141.264 247.574 140.688 246.342 139.536L247.926 137.04C248.758 137.872 249.678 138.288 250.686 138.288C251.406 138.288 251.99 138.064 252.438 137.616C252.902 137.152 253.134 136.536 253.134 135.768V135.72C253.134 134.888 252.814 134.248 252.174 133.8C251.55 133.336 250.638 133.104 249.438 133.104H249.078L248.838 131.016L252.342 126.528H247.11V123.528H256.11V126.216L252.366 130.8C253.518 131.072 254.462 131.616 255.198 132.432C255.95 133.232 256.326 134.296 256.326 135.624V135.72C256.326 137.368 255.806 138.704 254.766 139.728C253.742 140.752 252.446 141.264 250.878 141.264ZM263.855 141.264C262.047 141.264 260.647 140.52 259.655 139.032C258.663 137.544 258.167 135.392 258.167 132.576V131.976C258.167 129.144 258.663 126.984 259.655 125.496C260.663 124.008 262.071 123.264 263.879 123.264C265.671 123.264 267.063 124.008 268.055 125.496C269.047 126.984 269.543 129.136 269.543 131.952V132.552C269.543 135.384 269.039 137.544 268.031 139.032C267.039 140.52 265.647 141.264 263.855 141.264ZM263.879 138.288C265.495 138.288 266.303 136.352 266.303 132.48V132.072C266.303 130.056 266.079 128.584 265.631 127.656C265.183 126.712 264.591 126.24 263.855 126.24C262.239 126.24 261.431 128.176 261.431 132.048V132.456C261.431 136.344 262.247 138.288 263.879 138.288ZM271.293 141V138.336L275.733 132.36C276.485 131.336 276.997 130.536 277.269 129.96C277.557 129.384 277.701 128.824 277.701 128.28C277.701 127.688 277.517 127.216 277.149 126.864C276.781 126.512 276.325 126.336 275.781 126.336C274.901 126.336 273.973 126.936 272.997 128.136L271.125 125.904C272.469 124.144 274.125 123.264 276.093 123.264C277.517 123.264 278.677 123.688 279.573 124.536C280.485 125.368 280.941 126.52 280.941 127.992V128.04C280.941 129 280.749 129.88 280.365 130.68C279.997 131.464 279.285 132.552 278.229 133.944L275.157 137.976H280.821V141H271.293Z" fill="#D9D9D9"/>
<path id="n-301_2" d="M62.8931 141V123.528H66.1091V130.704H70.5731V123.528H73.7891V141H70.5731V133.728H66.1091V141H62.8931ZM85.1471 141.264C83.3551 141.264 81.8431 140.688 80.6111 139.536L82.1951 137.04C83.0271 137.872 83.9471 138.288 84.9551 138.288C85.6751 138.288 86.2591 138.064 86.7071 137.616C87.1711 137.152 87.4031 136.536 87.4031 135.768V135.72C87.4031 134.888 87.0831 134.248 86.4431 133.8C85.8191 133.336 84.9071 133.104 83.7071 133.104H83.3471L83.1071 131.016L86.6111 126.528H81.3791V123.528H90.3791V126.216L86.6351 130.8C87.7871 131.072 88.7311 131.616 89.4671 132.432C90.2191 133.232 90.5951 134.296 90.5951 135.624V135.72C90.5951 137.368 90.0751 138.704 89.0351 139.728C88.0111 140.752 86.7151 141.264 85.1471 141.264ZM98.1246 141.264C96.3166 141.264 94.9166 140.52 93.9246 139.032C92.9326 137.544 92.4366 135.392 92.4366 132.576V131.976C92.4366 129.144 92.9326 126.984 93.9246 125.496C94.9326 124.008 96.3406 123.264 98.1486 123.264C99.9406 123.264 101.333 124.008 102.325 125.496C103.317 126.984 103.813 129.136 103.813 131.952V132.552C103.813 135.384 103.309 137.544 102.301 139.032C101.309 140.52 99.9166 141.264 98.1246 141.264ZM98.1486 138.288C99.7646 138.288 100.573 136.352 100.573 132.48V132.072C100.573 130.056 100.349 128.584 99.9006 127.656C99.4526 126.712 98.8606 126.24 98.1246 126.24C96.5086 126.24 95.7006 128.176 95.7006 132.048V132.456C95.7006 136.344 96.5166 138.288 98.1486 138.288ZM107.674 141V126.816L105.418 127.488L105.13 124.512L108.634 123.408H110.89V141H107.674Z" fill="#D9D9D9"/>
</g>
<g id="Entrances">
<circle id="39" cx="2367" cy="350" r="10" fill="#9CBBFF" fill-opacity="0.01"/>
<circle id="38" cx="2493" cy="350" r="10" fill="#9CBBFF" fill-opacity="0.01"/>
<circle id="37" cx="2493" cy="260" r="10" fill="#9CBBFF" fill-opacity="0.01"/>
<circle id="36" cx="2647" cy="260" r="10" fill="#9CBBFF" fill-opacity="0.01"/>
<circle id="35" cx="2830" cy="602" r="10" fill="#9CBBFF" fill-opacity="0.01"/>
<circle id="34" cx="2830" cy="717" r="10" fill="#9CBBFF" fill-opacity="0.01"/>
<circle id="33" cx="2740" cy="537" r="10" fill="#9CBBFF" fill-opacity="0.01"/>
<circle id="32" cx="2740" cy="933" r="10" fill="#9CBBFF" fill-opacity="0.01"/>
<circle id="31" cx="2830" cy="983" r="10" fill="#9CBBFF" fill-opacity="0.01"/>
<circle id="30" cx="2780" cy="260" r="10" fill="#9CBBFF" fill-opacity="0.01"/>
<circle id="29" cx="2935" cy="260" r="10" fill="#9CBBFF" fill-opacity="0.01"/>
<circle id="28" cx="2859" cy="260" r="10" fill="#9CBBFF" fill-opacity="0.01"/>
<circle id="27" cx="2193" cy="350" r="10" fill="#9CBBFF" fill-opacity="0.01"/>
<circle id="26" cx="2107" cy="350" r="10" fill="#9CBBFF" fill-opacity="0.01"/>
<circle id="25" cx="1891" cy="350" r="10" fill="#9CBBFF" fill-opacity="0.01"/>
<circle id="24" cx="430" cy="563" r="10" fill="#9CBBFF" fill-opacity="0.01"/>
<circle id="23" cx="430" cy="703" r="10" fill="#9CBBFF" fill-opacity="0.01"/>
<circle id="22" cx="430" cy="1038" r="10" fill="#9CBBFF" fill-opacity="0.01"/>
<circle id="21" cx="330" cy="908" r="10" fill="#9CBBFF" fill-opacity="0.01"/>
<circle id="20" cx="330" cy="768" r="10" fill="#9CBBFF" fill-opacity="0.01"/>
<circle id="19" cx="330" cy="483" r="10" fill="#9CBBFF" fill-opacity="0.01"/>
<circle id="18" cx="3011" cy="260" r="10" fill="#9CBBFF" fill-opacity="0.01"/>
<circle id="16" cx="380" cy="260" r="10" fill="#9CBBFF" fill-opacity="0.01"/>
<circle id="13" cx="693" cy="350" r="10" fill="#9CBBFF" fill-opacity="0.01"/>
<circle id="12" cx="1148" cy="350" r="10" fill="#9CBBFF" fill-opacity="0.01"/>
<circle id="11" cx="1630" cy="777" r="10" fill="#9CBBFF" fill-opacity="0.01"/>
<circle id="10" cx="1630" cy="1007" r="10" fill="#9CBBFF" fill-opacity="0.01"/>
<circle id="9" cx="1530" cy="933" r="10" fill="#9CBBFF" fill-opacity="0.01"/>
<circle id="8" cx="1530" cy="737" r="10" fill="#9CBBFF" fill-opacity="0.01"/>
<circle id="7" cx="1530" cy="523" r="10" fill="#9CBBFF" fill-opacity="0.01"/>
<circle id="6" cx="1630" cy="584" r="10" fill="#9CBBFF" fill-opacity="0.01"/>
<circle id="5" cx="1580" cy="260" r="10" fill="#9CBBFF" fill-opacity="0.01"/>
<circle id="4" cx="1477" cy="260" r="10" fill="#9CBBFF" fill-opacity="0.01"/>
<circle id="3" cx="1271" cy="260" r="10" fill="#9CBBFF" fill-opacity="0.01"/>
<circle id="2" cx="240" cy="260" r="10" fill="#9CBBFF" fill-opacity="0.01"/>
<circle id="1" cx="84" cy="260" r="10" fill="#9CBBFF" fill-opacity="0.01"/>
</g>
<g id="Icons">
<g id="Stair">
<g id="Stair frame">
<path id="Vector 152" d="M1782 57H1757V72H1742V87H1727V102H1702" stroke="#9CD9BC" stroke-width="5" stroke-linecap="round" stroke-linejoin="round"/>
<path id="Vector 154" d="M1714 57H1729M1729 57L1726 71M1729 57L1702 78" stroke="#9CD9BC" stroke-width="3" stroke-linecap="round" stroke-linejoin="round"/>
<path id="Vector 155" d="M1770 102H1755M1755 102L1758 88M1755 102L1782 81" stroke="#9CD9BC" stroke-width="3" stroke-linecap="round" stroke-linejoin="round"/>
</g>
</g>
<g id="Elevator">
<g id="Vector">
<path d="M2874 212L2868 206L2862 212H2874Z" fill="#A091F8"/>
<path d="M2874 216L2868 222L2862 216H2874Z" fill="#A091F8"/>
<path d="M2856 212C2856 209 2854 206 2851 206H2847C2844 206 2842 209 2842 212V217C2842 219 2843.5 220.5 2845 220.5V230C2845 231.6 2846.33 232 2847 232H2851C2851.67 232 2853 231.6 2853 230V220.5C2854.5 220.5 2856 219 2856 217V212Z" fill="#A091F8"/>
<path d="M2853 199C2853 201.209 2851.21 203 2849 203C2846.79 203 2845 201.209 2845 199C2845 196.791 2846.79 195 2849 195C2851.21 195 2853 196.791 2853 199Z" fill="#A091F8"/>
</g>
<path id="Vector 201" d="M2845.5 242.5H2833.5V187.5H2882.5V242.5H2870.5" stroke="#A091F8" stroke-width="5" stroke-linecap="round" stroke-linejoin="round"/>
</g>
<g id="Elevator_2">
<g id="Vector_2">
<path d="M2951 212L2945 206L2939 212H2951Z" fill="#A091F8"/>
<path d="M2951 216L2945 222L2939 216H2951Z" fill="#A091F8"/>
<path d="M2933 212C2933 209 2931 206 2928 206H2924C2921 206 2919 209 2919 212V217C2919 219 2920.5 220.5 2922 220.5V230C2922 231.6 2923.33 232 2924 232H2928C2928.67 232 2930 231.6 2930 230V220.5C2931.5 220.5 2933 219 2933 217V212Z" fill="#A091F8"/>
<path d="M2930 199C2930 201.209 2928.21 203 2926 203C2923.79 203 2922 201.209 2922 199C2922 196.791 2923.79 195 2926 195C2928.21 195 2930 196.791 2930 199Z" fill="#A091F8"/>
</g>
<path id="Vector 201_2" d="M2922.5 242.5H2910.5V187.5H2959.5V242.5H2947.5" stroke="#A091F8" stroke-width="5" stroke-linecap="round" stroke-linejoin="round"/>
</g>
<g id="Elevator_3">
<g id="Vector_3">
<path d="M3027 212L3021 206L3015 212H3027Z" fill="#A091F8"/>
<path d="M3027 216L3021 222L3015 216H3027Z" fill="#A091F8"/>
<path d="M3009 212C3009 209 3007 206 3004 206H3000C2997 206 2995 209 2995 212V217C2995 219 2996.5 220.5 2998 220.5V230C2998 231.6 2999.33 232 3000 232H3004C3004.67 232 3006 231.6 3006 230V220.5C3007.5 220.5 3009 219 3009 217V212Z" fill="#A091F8"/>
<path d="M3006 199C3006 201.209 3004.21 203 3002 203C2999.79 203 2998 201.209 2998 199C2998 196.791 2999.79 195 3002 195C3004.21 195 3006 196.791 3006 199Z" fill="#A091F8"/>
</g>
<path id="Vector 201_3" d="M2998.5 242.5H2986.5V187.5H3035.5V242.5H3023.5" stroke="#A091F8" stroke-width="5" stroke-linecap="round" stroke-linejoin="round"/>
</g>
<g id="Woman">
<g id="Group 5">
<path id="Vector 200" d="M1295.5 134L1304 155.5H1276L1284.5 134" stroke="#F783CB" stroke-width="5" stroke-linecap="round" stroke-linejoin="round"/>
<circle id="Ellipse 9" cx="1290" cy="116" r="8" stroke="#F783CB" stroke-width="5" stroke-linecap="round" stroke-linejoin="round"/>
</g>
</g>
<g id="Men">
<g id="Group 6">
<path id="Vector 200_2" d="M1455.5 155.5L1464 134H1436L1444.5 155.5" stroke="#9CBBFF" stroke-width="5" stroke-linecap="round" stroke-linejoin="round"/>
<circle id="Ellipse 9_2" cx="1450" cy="116" r="8" stroke="#9CBBFF" stroke-width="5" stroke-linecap="round" stroke-linejoin="round"/>
</g>
</g>
<g id="Stair_2">
<g id="Stair frame_2">
<path id="Vector 152_2" d="M2975 65H2950V80H2935V95H2920V110H2895" stroke="#9CD9BC" stroke-width="5" stroke-linecap="round" stroke-linejoin="round"/>
<path id="Vector 154_2" d="M2907 65H2922M2922 65L2919 79M2922 65L2895 86" stroke="#9CD9BC" stroke-width="3" stroke-linecap="round" stroke-linejoin="round"/>
<path id="Vector 155_2" d="M2963 110H2948M2948 110L2951 96M2948 110L2975 89" stroke="#9CD9BC" stroke-width="3" stroke-linecap="round" stroke-linejoin="round"/>
</g>
</g>
<g id="Stair_3">
<g id="Stair frame_3">
<path id="Vector 152_3" d="M570 50H545V65H530V80H515V95H490" stroke="#9CD9BC" stroke-width="5" stroke-linecap="round" stroke-linejoin="round"/>
<path id="Vector 154_3" d="M502 50H517M517 50L514 64M517 50L490 71" stroke="#9CD9BC" stroke-width="3" stroke-linecap="round" stroke-linejoin="round"/>
<path id="Vector 155_3" d="M558 95H543M543 95L546 81M543 95L570 74" stroke="#9CD9BC" stroke-width="3" stroke-linecap="round" stroke-linejoin="round"/>
</g>
</g>
<g id="Doors">
<path id="Vector 301" d="M374 269L346 262H340" stroke="#A5A5A7" stroke-width="6"/>
<path id="Vector 302" d="M386 269L414 262H420" stroke="#A5A5A7" stroke-width="6"/>
</g>
<g id="Doors_2">
<path id="Vector 301_2" d="M2775.5 269L2754.5 262H2750" stroke="#A5A5A7" stroke-width="6"/>
<path id="Vector 302_2" d="M2784.5 269L2805.5 262H2810" stroke="#A5A5A7" stroke-width="6"/>
</g>
<g id="Doors_3">
<path id="Vector 301_3" d="M1574 269L1546 262H1540" stroke="#A5A5A7" stroke-width="6"/>
<path id="Vector 302_3" d="M1586 269L1614 262H1620" stroke="#A5A5A7" stroke-width="6"/>
</g>
</g>
</g>
</g>
</svg>
