<svg width="20" height="20" viewBox="0 0 20 20" fill="none" xmlns="http://www.w3.org/2000/svg">
<path d="M15.0068 0C17.7644 0.000246849 19.9998 2.23563 20 4.99316V15.0068C19.9998 17.7644 17.7644 19.9998 15.0068 20H4.99316C2.23563 19.9998 0.000246849 17.7644 0 15.0068V4.99316C0.000246333 2.23563 2.23563 0.000246334 4.99316 0H15.0068ZM10.124 2.38965C5.91199 2.38967 2.35742 5.64992 2.35742 9.98242C2.35748 11.7961 2.69268 13.0478 2.98828 14.1719C3.23645 15.0843 3.456 15.9202 3.45605 16.9092C3.56191 18.2268 5.98821 17.4571 6.75488 16.4717C7.96662 17.3477 8.66403 17.5664 10.1641 17.5664C14.3108 17.5443 17.6565 14.1692 17.6426 10.0225C17.6426 5.8104 14.3397 2.38965 10.124 2.38965ZM10.2266 6.13477V6.13867C12.3522 6.26058 13.9883 8.06289 13.9053 10.1904C13.7624 12.3133 11.9465 13.9312 9.82129 13.8291C9.15589 13.7758 8.51602 13.5474 7.9668 13.168C7.63484 13.4999 7.10257 13.9304 6.89062 13.8799C6.44901 13.7631 5.93078 11.519 6.22266 9.67578C6.5767 7.4493 8.17528 6.02893 10.2266 6.13477Z" fill="#A0A4AD"/>
</svg>
