<svg width="20" height="20" viewBox="0 0 20 20" fill="none" xmlns="http://www.w3.org/2000/svg">
<g clip-path="url(#clip0_4_43)">
<path d="M10 0C8.02219 0 6.08879 0.58649 4.4443 1.6853C2.79981 2.78412 1.51809 4.34591 0.761209 6.17317C0.00433286 8.00043 -0.193701 10.0111 0.192152 11.9509C0.578004 13.8907 1.53041 15.6725 2.92894 17.0711C4.32746 18.4696 6.10929 19.422 8.0491 19.8079C9.98891 20.1937 11.9996 19.9957 13.8268 19.2388C15.6541 18.4819 17.2159 17.2002 18.3147 15.5557C19.4135 13.9112 20 11.9778 20 10C19.9971 7.34872 18.9426 4.80684 17.0679 2.9321C15.1932 1.05736 12.6513 0.00286757 10 0ZM10 18.3333C8.35183 18.3333 6.74066 17.8446 5.37025 16.9289C3.99984 16.0132 2.93174 14.7117 2.30101 13.189C1.67028 11.6663 1.50525 9.99076 1.82679 8.37425C2.14834 6.75774 2.94201 5.27288 4.10745 4.10744C5.27289 2.94201 6.75774 2.14833 8.37425 1.82679C9.99076 1.50525 11.6663 1.67027 13.189 2.301C14.7118 2.93173 16.0132 3.99984 16.9289 5.37025C17.8446 6.74066 18.3333 8.35182 18.3333 10C18.3309 12.2094 17.4522 14.3276 15.8899 15.8899C14.3276 17.4522 12.2094 18.3309 10 18.3333Z" fill="#A0A4AD"/>
<path d="M10.5975 4.21916C10.1169 4.1316 9.623 4.15073 9.15065 4.27519C8.6783 4.39965 8.23908 4.62641 7.86407 4.93941C7.48906 5.25241 7.18742 5.64401 6.9805 6.08649C6.77358 6.52897 6.66644 7.01152 6.66666 7.49999C6.66666 7.721 6.75445 7.93297 6.91073 8.08925C7.06701 8.24553 7.27898 8.33332 7.49999 8.33332C7.721 8.33332 7.93297 8.24553 8.08925 8.08925C8.24553 7.93297 8.33332 7.721 8.33332 7.49999C8.33311 7.2548 8.387 7.01259 8.49115 6.79062C8.5953 6.56865 8.74714 6.3724 8.93584 6.21585C9.12454 6.0593 9.34546 5.94631 9.58284 5.88494C9.82023 5.82358 10.0682 5.81534 10.3092 5.86082C10.6384 5.92473 10.941 6.08531 11.1785 6.32206C11.416 6.55882 11.5776 6.86099 11.6425 7.18999C11.7081 7.53533 11.6628 7.89255 11.5131 8.2106C11.3634 8.52866 11.1171 8.79124 10.8092 8.96082C10.2993 9.25621 9.87798 9.68292 9.5891 10.1965C9.30021 10.7101 9.15433 11.2917 9.16666 11.8808V12.5C9.16666 12.721 9.25445 12.933 9.41073 13.0892C9.56702 13.2455 9.77898 13.3333 9.99999 13.3333C10.221 13.3333 10.433 13.2455 10.5892 13.0892C10.7455 12.933 10.8333 12.721 10.8333 12.5V11.8808C10.8229 11.5908 10.889 11.3032 11.025 11.0469C11.1611 10.7906 11.3623 10.5747 11.6083 10.4208C12.2121 10.0892 12.6983 9.5787 13.0001 8.95949C13.3018 8.34028 13.4044 7.64279 13.2936 6.96293C13.1827 6.28307 12.864 5.65423 12.3812 5.1629C11.8985 4.67157 11.2753 4.34188 10.5975 4.21916Z" fill="#A0A4AD"/>
<path d="M10.8333 15C10.8333 14.5398 10.4602 14.1667 9.99999 14.1667C9.53975 14.1667 9.16666 14.5398 9.16666 15C9.16666 15.4602 9.53975 15.8333 9.99999 15.8333C10.4602 15.8333 10.8333 15.4602 10.8333 15Z" fill="#A0A4AD"/>
</g>
<defs>
<clipPath id="clip0_4_43">
<rect width="20" height="20" fill="white"/>
</clipPath>
</defs>
</svg>
