<svg width="20" height="20" viewBox="0 0 20 20" fill="none" xmlns="http://www.w3.org/2000/svg">
<path d="M14.5815 1.33333C13.6435 1.34792 12.726 1.60977 11.9215 2.09242C11.1171 2.57507 10.4543 3.26145 10 4.08222C9.54572 3.26145 8.8829 2.57507 8.07847 2.09242C7.27405 1.60977 6.35651 1.34792 5.41852 1.33333C3.92324 1.3983 2.51444 2.05242 1.49991 3.15279C0.485388 4.25316 -0.0524034 5.71034 0.00403263 7.20596C0.00403263 10.9936 3.99076 15.1303 7.33441 17.935C8.08096 18.5623 9.02486 18.9063 10 18.9063C10.9751 18.9063 11.919 18.5623 12.6656 17.935C16.0092 15.1303 19.996 10.9936 19.996 7.20596C20.0524 5.71034 19.5146 4.25316 18.5001 3.15279C17.4856 2.05242 16.0768 1.3983 14.5815 1.33333ZM11.5952 16.6605C11.1487 17.0365 10.5837 17.2427 10 17.2427C9.41628 17.2427 8.85131 17.0365 8.40481 16.6605C4.12487 13.0694 1.67003 9.62416 1.67003 7.20596C1.61308 6.15199 1.97521 5.11825 2.67742 4.33021C3.37964 3.54217 4.36497 3.06376 5.41852 2.99933C6.47206 3.06376 7.45739 3.54217 8.15961 4.33021C8.86182 5.11825 9.22395 6.15199 9.167 7.20596C9.167 7.42689 9.25477 7.63877 9.41098 7.79498C9.5672 7.9512 9.77908 8.03896 10 8.03896C10.2209 8.03896 10.4328 7.9512 10.589 7.79498C10.7452 7.63877 10.833 7.42689 10.833 7.20596C10.7761 6.15199 11.1382 5.11825 11.8404 4.33021C12.5426 3.54217 13.5279 3.06376 14.5815 2.99933C15.635 3.06376 16.6204 3.54217 17.3226 4.33021C18.0248 5.11825 18.3869 6.15199 18.33 7.20596C18.33 9.62416 15.8751 13.0694 11.5952 16.6572V16.6605Z" fill="#A0A4AD"/>
</svg>
