<svg width="24" height="24" viewBox="0 0 24 24" fill="none" xmlns="http://www.w3.org/2000/svg">
  <path
    d="M15.5 3.25C14.7 3.3 13.8 3.75 13.25 4.35C12.75 4.9 12.4 5.75 12.5 6.55C13.3 6.6 14.15 6.15 14.7 5.55C15.2 5 15.6 4.15 15.5 3.25ZM18.2 8.25C17.25 7.1 16 6.45 14.85 6.45C13.35 6.45 12.7 7.15 11.7 7.15C10.65 7.15 9.85 6.45 8.55 6.45C7.25 6.45 5.85 7.25 4.9 8.6C3.6 10.45 3.85 13.7 5.65 16.35C6.45 17.55 7.45 18.85 8.8 18.85C10.1 18.85 10.55 18 12.15 18C13.75 18 14.15 18.85 15.5 18.85C16.85 18.85 17.9 17.45 18.7 16.25C19.25 15.45 19.45 15.05 19.85 14.15C17.65 13.3 17.25 10.4 18.2 8.25Z"
    fill="currentColor"
  />
</svg>

