<svg width="20" height="20" viewBox="0 0 20 20" fill="none" xmlns="http://www.w3.org/2000/svg">
<g clip-path="url(#clip0_14233_2502)">
<path d="M13.75 15H13.3333V3.75C13.3333 1.6825 11.6508 0 9.58333 0H3.75C1.6825 0 0 1.6825 0 3.75V17.0833C0 18.6917 1.3075 19.9992 2.915 20H13.3333C14.7117 20 15.8333 18.8783 15.8333 17.5V17.0833C15.8333 15.9342 14.8992 15 13.75 15ZM4.16667 17.0833C4.16667 17.7725 3.60583 18.3333 2.91667 18.3333C2.2275 18.3333 1.66667 17.7725 1.66667 17.0833V3.75C1.66667 2.60083 2.60083 1.66667 3.75 1.66667H9.58333C10.7325 1.66667 11.6667 2.60083 11.6667 3.75V15H6.25C5.10083 15 4.16667 15.9342 4.16667 17.0833ZM14.1667 17.5C14.1667 17.96 13.7933 18.3333 13.3333 18.3333H5.55167C5.7325 17.9542 5.83333 17.53 5.83333 17.0833C5.83333 16.8542 6.02083 16.6667 6.25 16.6667H13.75C13.9792 16.6667 14.1667 16.8542 14.1667 17.0833V17.5ZM17.5 0C16.1217 0 15 1.12167 15 2.5V11.1192C15 12.2325 15.4342 13.2792 16.2208 14.0658L16.9108 14.7558C17.0733 14.9183 17.2867 15 17.5 15C17.7133 15 17.9267 14.9183 18.0892 14.7558L18.7792 14.0658C19.5658 13.2792 20 12.2325 20 11.1192V2.5C20 1.12167 18.8783 0 17.5 0ZM18.3333 11.1192C18.3333 11.7875 18.0725 12.4158 17.6008 12.8875L17.5 12.9883L17.3992 12.8875C16.9275 12.4158 16.6667 11.7875 16.6667 11.1192V2.5C16.6667 2.04 17.04 1.66667 17.5 1.66667C17.96 1.66667 18.3333 2.04 18.3333 2.5V11.1192ZM2.74417 5.91417C2.41833 5.58833 2.41833 5.06083 2.74417 4.73583C3.07 4.41 3.59667 4.41 3.9225 4.73583L4.99583 5.81C5.02333 5.8375 5.08333 5.8375 5.11167 5.81L6.9275 3.99417C7.25333 3.66833 7.78 3.66833 8.10583 3.99417C8.43167 4.32 8.43167 4.84667 8.10583 5.1725L6.29 6.98833C5.94917 7.32917 5.50167 7.49917 5.05417 7.49917C4.60667 7.49917 4.15917 7.32917 3.81833 6.98833L2.74417 5.91417ZM6.29 11.9883C5.94917 12.3292 5.50167 12.4992 5.05417 12.4992C4.60667 12.4992 4.15917 12.3292 3.81833 11.9883L2.745 10.9142C2.41917 10.5883 2.41917 10.0608 2.745 9.73583C3.07083 9.41 3.5975 9.41 3.92333 9.73583L4.99667 10.81C5.02417 10.8375 5.08417 10.8375 5.1125 10.81L6.92833 8.99417C7.25417 8.66833 7.78083 8.66833 8.10667 8.99417C8.4325 9.32 8.4325 9.84667 8.10667 10.1725L6.29 11.9883Z" fill="#A0A4AD"/>
</g>
<defs>
<clipPath id="clip0_14233_2502">
<rect width="20" height="20" fill="white"/>
</clipPath>
</defs>
</svg>
