<svg width="20" height="20" viewBox="0 0 20 20" fill="none" xmlns="http://www.w3.org/2000/svg">
<g clip-path="url(#clip0_14268_1132)">
<path d="M14.1667 15.8333C14.1667 18.1333 12.3 20 10 20H4.16667C1.86667 20 0 18.1333 0 15.8333V9.99999C0 7.69999 1.86667 5.83332 4.16667 5.83332H5C5.45833 5.83332 5.83333 6.20832 5.83333 6.66665C5.83333 7.12499 5.45833 7.49999 5 7.49999H4.16667C2.79167 7.49999 1.66667 8.62499 1.66667 9.99999V15.8333C1.66667 17.2083 2.79167 18.3333 4.16667 18.3333H10C11.375 18.3333 12.5 17.2083 12.5 15.8333C12.5 15.375 12.875 15 13.3333 15C13.7917 15 14.1667 15.375 14.1667 15.8333ZM19.275 4.90832L14.7667 0.249987C14.45 -0.0833461 13.9167 -0.0916794 13.5917 0.233321C13.2667 0.558321 13.25 1.08332 13.575 1.40832L17.8583 5.82499H10.8333C8.53333 5.82499 6.66667 7.69165 6.66667 9.99165V14.1583C6.66667 14.6167 7.04167 14.9917 7.5 14.9917C7.95833 14.9917 8.33333 14.6167 8.33333 14.1583V9.99165C8.33333 8.61665 9.45833 7.49165 10.8333 7.49165H17.85L13.5667 11.9083C13.25 12.2417 13.25 12.7667 13.5833 13.0833C13.7417 13.2417 13.9583 13.3167 14.1667 13.3167C14.375 13.3167 14.6 13.2333 14.7667 13.0667L19.2667 8.42499C20.2417 7.44999 20.2417 5.86665 19.275 4.89999V4.90832Z" fill="#A0A4AD"/>
</g>
<defs>
<clipPath id="clip0_14268_1132">
<rect width="20" height="20" fill="white"/>
</clipPath>
</defs>
</svg>
