<svg width="60.000000" height="60.000000" viewBox="0 0 60 60" fill="none" xmlns="http://www.w3.org/2000/svg" xmlns:xlink="http://www.w3.org/1999/xlink">
	<desc>
			Created with Pixso.
	</desc>
	<defs/>
	<path id="Vector" d="M57.5 27.5L32.5 27.5L32.5 2.5C32.5 1.83691 32.2366 1.20117 31.7678 0.732178C31.2988 0.263428 30.6631 0 30 0C29.3369 0 28.7012 0.263428 28.2322 0.732178C27.7634 1.20117 27.5 1.83691 27.5 2.5L27.5 27.5L2.5 27.5C1.83691 27.5 1.20117 27.7634 0.732178 28.2322C0.263428 28.7012 0 29.3369 0 30C0 30.6631 0.263428 31.2988 0.732178 31.7678C1.20117 32.2366 1.83691 32.5 2.5 32.5L27.5 32.5L27.5 57.5C27.5 58.1631 27.7634 58.7988 28.2322 59.2678C28.7012 59.7366 29.3369 60 30 60C30.6631 60 31.2988 59.7366 31.7678 59.2678C32.2366 58.7988 32.5 58.1631 32.5 57.5L32.5 32.5L57.5 32.5C58.1631 32.5 58.7988 32.2366 59.2678 31.7678C59.7366 31.2988 60 30.6631 60 30C60 29.3369 59.7366 28.7012 59.2678 28.2322C58.7988 27.7634 58.1631 27.5 57.5 27.5Z" fill="#A0A4AD" fill-opacity="1.000000" fill-rule="nonzero"/>
</svg>
