<svg width="60.000000" height="60.000000" viewBox="0 0 60 60" fill="none" xmlns="http://www.w3.org/2000/svg" xmlns:xlink="http://www.w3.org/1999/xlink">
	<defs/>
	<rect id="Heart" width="60.000000" height="60.000000" fill="#FFFFFF" fill-opacity="0"/>
	<path id="Vector" d="M43.7444 4C40.9304 4.04395 38.1777 4.8291 35.7646 6.27734C33.3513 7.7251 31.3628 9.78418 30 12.2466C28.6372 9.78418 26.6487 7.7251 24.2354 6.27734C21.8223 4.8291 19.0696 4.04395 16.2556 4C11.7698 4.19482 7.54321 6.15723 4.49976 9.4585C1.45605 12.7593 -0.157227 17.1309 0.012207 21.6177C0.012207 32.981 11.9722 45.3906 22.0032 53.8047C24.2429 55.687 27.0745 56.7188 30 56.7188C32.9255 56.7188 35.7571 55.687 37.9968 53.8047C48.0278 45.3906 59.9878 32.981 59.9878 21.6177C60.1572 17.1309 58.5439 12.7593 55.5002 9.4585C52.4568 6.15723 48.2302 4.19482 43.7444 4ZM34.7856 49.9814C33.446 51.1094 31.7512 51.728 30 51.728C28.2488 51.728 26.554 51.1094 25.2144 49.9814C12.3745 39.2085 5.01001 28.8726 5.01001 21.6177C4.83936 18.4561 5.92554 15.355 8.03223 12.9907C10.1389 10.6265 13.095 9.19141 16.2556 8.99805C19.4163 9.19141 22.3721 10.6265 24.4788 12.9907C26.5854 15.355 27.6719 18.4561 27.501 21.6177C27.501 22.2808 27.7644 22.9165 28.2329 23.3848C28.7017 23.8535 29.3372 24.1167 30 24.1167C30.6628 24.1167 31.2983 23.8535 31.7671 23.3848C32.2356 22.9165 32.499 22.2808 32.499 21.6177C32.3281 18.4561 33.4146 15.355 35.5212 12.9907C37.6279 10.6265 40.5837 9.19141 43.7444 8.99805C46.905 9.19141 49.8611 10.6265 51.9678 12.9907C54.0745 15.355 55.1606 18.4561 54.99 21.6177C54.99 28.8726 47.6255 39.2085 34.7856 49.9717L34.7856 49.9814Z" fill="#A0A4AD" fill-opacity="1.000000" fill-rule="nonzero"/>
</svg>
