<svg width="60.000000" height="60.000000" viewBox="0 0 60 60" fill="none" xmlns="http://www.w3.org/2000/svg" xmlns:xlink="http://www.w3.org/1999/xlink">
	<defs/>
	<rect id="Home" width="60.000000" height="60.000000" fill="#FFFFFF" fill-opacity="0"/>
	<path id="Vector" d="M57.8025 22.6191L38.8401 3.6543C36.4932 1.31396 33.3142 0 30 0C26.6858 0 23.5068 1.31396 21.1599 3.6543L2.19751 22.6191C1.49854 23.3135 0.944336 24.1396 0.567139 25.0498C0.189941 25.9604 -0.00268555 26.936 0 27.9214L0 52.4639C0 54.4531 0.790283 56.3608 2.19678 57.7671C3.60327 59.1738 5.51099 59.9639 7.5 59.9639L52.5 59.9639C54.489 59.9639 56.3967 59.1738 57.8032 57.7671C59.2097 56.3608 60 54.4531 60 52.4639L60 27.9214C60.0027 26.936 59.8101 25.9604 59.4329 25.0498C59.0557 24.1396 58.5015 23.3135 57.8025 22.6191ZM37.5 54.9639L22.5 54.9639L22.5 45.1289C22.5 43.1401 23.2903 41.2324 24.6968 39.8257C26.1033 38.4194 28.011 37.6289 30 37.6289C31.989 37.6289 33.8967 38.4194 35.3032 39.8257C36.7097 41.2324 37.5 43.1401 37.5 45.1289L37.5 54.9639ZM55 52.4639C55 53.127 54.7366 53.7627 54.2678 54.2319C53.7988 54.7007 53.1631 54.9639 52.5 54.9639L42.5 54.9639L42.5 45.1289C42.5 41.814 41.1831 38.6343 38.8389 36.29C36.4946 33.9458 33.3152 32.6289 30 32.6289C26.6848 32.6289 23.5054 33.9458 21.1611 36.29C18.8169 38.6343 17.5 41.814 17.5 45.1289L17.5 54.9639L7.5 54.9639C6.83691 54.9639 6.20117 54.7007 5.73218 54.2319C5.26343 53.7627 5 53.127 5 52.4639L5 27.9214C5.00244 27.2588 5.26538 26.624 5.73242 26.1538L24.6951 7.19678C26.1042 5.79395 28.0117 5.00635 30 5.00635C31.9883 5.00635 33.8958 5.79395 35.3049 7.19678L54.2676 26.1616C54.7327 26.6299 54.9956 27.2617 55 27.9214L55 52.4639Z" fill="#A0A4AD" fill-opacity="1.000000" fill-rule="nonzero"/>
</svg>
