<svg width="20" height="20" viewBox="0 0 20 20" fill="none" xmlns="http://www.w3.org/2000/svg">
<g clip-path="url(#clip0_57_1842)">
<path d="M8.44445 17.7778V17C8.44445 15.7136 7.39756 14.6667 6.11112 14.6667H5.821C6.33667 13.6921 6.88889 12.5169 6.88889 11.9444C6.88889 10.8703 6.01856 10.0389 4.94445 10.0389C3.87034 10.0389 3.00001 10.8703 3.00001 11.9444C3.00001 12.5169 3.55223 13.6921 4.06789 14.6667H3.77778C2.49134 14.6667 1.44445 15.7136 1.44445 17V17.7778C1.01434 17.7778 0.666672 18.1254 0.666672 18.5556C0.666672 18.9857 1.01434 19.3333 1.44445 19.3333H8.44445C8.87456 19.3333 9.22223 18.9857 9.22223 18.5556C9.22223 18.1254 8.87456 17.7778 8.44445 17.7778ZM6.88889 17.7778H3.00001V17C3.00001 16.5707 3.34845 16.2222 3.77778 16.2222H6.11112C6.54045 16.2222 6.88889 16.5707 6.88889 17V17.7778ZM13.1111 9.22222H10C9.56989 9.22222 9.22223 8.87456 9.22223 8.44444C9.22223 8.01433 9.56989 7.66667 10 7.66667H13.1111C13.5412 7.66667 13.8889 8.01433 13.8889 8.44444C13.8889 8.87456 13.5412 9.22222 13.1111 9.22222ZM19.3333 4.55556V15.4444C19.3333 17.5888 17.5888 19.3333 15.4444 19.3333H11.5556C11.1254 19.3333 10.7778 18.9857 10.7778 18.5556C10.7778 18.1254 11.1254 17.7778 11.5556 17.7778H15.4444C16.7309 17.7778 17.7778 16.7309 17.7778 15.4444V4.55556C17.7778 3.26911 16.7309 2.22222 15.4444 2.22222H9.22223C7.93578 2.22222 6.88889 3.26911 6.88889 4.55556V7.70633C6.88889 8.13644 6.54123 8.48411 6.11112 8.48411C5.68101 8.48411 5.33334 8.13644 5.33334 7.70633V4.55556C5.33334 2.41122 7.07789 0.666667 9.22223 0.666667H15.4444C17.5888 0.666667 19.3333 2.41122 19.3333 4.55556ZM10.7778 13.5C10.7778 15.0011 11.9989 16.2222 13.5 16.2222C15.0011 16.2222 16.2222 15.0011 16.2222 13.5C16.2222 11.9989 15.0011 10.7778 13.5 10.7778C11.9989 10.7778 10.7778 11.9989 10.7778 13.5ZM14.6667 13.5C14.6667 14.1432 14.1432 14.6667 13.5 14.6667C12.8568 14.6667 12.3333 14.1432 12.3333 13.5C12.3333 12.8568 12.8568 12.3333 13.5 12.3333C14.1432 12.3333 14.6667 12.8568 14.6667 13.5ZM15.4444 5.33333C15.4444 5.76344 15.0968 6.11111 14.6667 6.11111H10C9.56989 6.11111 9.22223 5.76344 9.22223 5.33333C9.22223 4.90322 9.56989 4.55556 10 4.55556H14.6667C15.0968 4.55556 15.4444 4.90322 15.4444 5.33333Z" fill="#C9CCD2"/>
</g>
<defs>
<clipPath id="clip0_57_1842">
<rect width="20" height="20" fill="white"/>
</clipPath>
</defs>
</svg>
