<svg width="20" height="20" viewBox="0 0 20 20" fill="none" xmlns="http://www.w3.org/2000/svg">
<g clip-path="url(#clip0_49_197)">
<path d="M9.99996 6.66666C9.34069 6.66666 8.69622 6.86215 8.14806 7.22842C7.5999 7.5947 7.17265 8.11529 6.92036 8.72438C6.66807 9.33347 6.60206 10.0037 6.73068 10.6503C6.85929 11.2969 7.17676 11.8908 7.64294 12.357C8.10911 12.8232 8.70306 13.1407 9.34966 13.2693C9.99626 13.3979 10.6665 13.3319 11.2756 13.0796C11.8847 12.8273 12.4053 12.4001 12.7715 11.8519C13.1378 11.3037 13.3333 10.6593 13.3333 9.99999C13.3333 9.11593 12.9821 8.26809 12.357 7.64297C11.7319 7.01785 10.884 6.66666 9.99996 6.66666ZM9.99996 11.6667C9.67033 11.6667 9.34809 11.5689 9.07401 11.3858C8.79993 11.2026 8.58631 10.9423 8.46016 10.6378C8.33402 10.3333 8.30101 9.99814 8.36532 9.67484C8.42963 9.35154 8.58836 9.05457 8.82145 8.82148C9.05454 8.58839 9.35151 8.42966 9.67481 8.36535C9.99811 8.30104 10.3332 8.33404 10.6378 8.46019C10.9423 8.58634 11.2026 8.79996 11.3857 9.07404C11.5689 9.34812 11.6666 9.67035 11.6666 9.99999C11.6666 10.442 11.491 10.8659 11.1785 11.1785C10.8659 11.4911 10.442 11.6667 9.99996 11.6667Z" fill="#9CBBFF"/>
<path d="M17.745 11.5833L17.375 11.37C17.5416 10.4637 17.5416 9.53462 17.375 8.62832L17.745 8.41499C18.0296 8.25084 18.279 8.03225 18.479 7.77171C18.6791 7.51116 18.8259 7.21377 18.911 6.8965C18.9961 6.57924 19.0179 6.24831 18.9751 5.92262C18.9324 5.59693 18.8259 5.28285 18.6617 4.99832C18.4976 4.71379 18.279 4.46438 18.0184 4.26432C17.7579 4.06427 17.4605 3.91749 17.1432 3.83237C16.826 3.74725 16.495 3.72546 16.1693 3.76823C15.8436 3.811 15.5296 3.9175 15.245 4.08166L14.8742 4.29582C14.1738 3.69742 13.3689 3.23353 12.5 2.92749V2.49999C12.5 1.83695 12.2366 1.20106 11.7678 0.732222C11.299 0.263381 10.6631 -1.14441e-05 10 -1.14441e-05C9.33699 -1.14441e-05 8.70111 0.263381 8.23227 0.732222C7.76343 1.20106 7.50004 1.83695 7.50004 2.49999V2.92749C6.63119 3.23463 5.82658 3.69966 5.1267 4.29916L4.7542 4.08332C4.17957 3.7518 3.49677 3.66213 2.85602 3.83404C2.21527 4.00595 1.66906 4.42535 1.33754 4.99999C1.00602 5.57462 0.916346 6.25742 1.08825 6.89817C1.26016 7.53892 1.67957 8.08513 2.2542 8.41666L2.6242 8.62999C2.45763 9.53629 2.45763 10.4654 2.6242 11.3717L2.2542 11.585C1.67957 11.9165 1.26016 12.4627 1.08825 13.1035C0.916346 13.7442 1.00602 14.427 1.33754 15.0017C1.66906 15.5763 2.21527 15.9957 2.85602 16.1676C3.49677 16.3395 4.17957 16.2498 4.7542 15.9183L5.12504 15.7042C5.82567 16.3026 6.63085 16.7665 7.50004 17.0725V17.5C7.50004 18.163 7.76343 18.7989 8.23227 19.2678C8.70111 19.7366 9.33699 20 10 20C10.6631 20 11.299 19.7366 11.7678 19.2678C12.2366 18.7989 12.5 18.163 12.5 17.5V17.0725C13.3689 16.7653 14.1735 16.3003 14.8734 15.7008L15.2459 15.9158C15.8205 16.2473 16.5033 16.337 17.1441 16.1651C17.7848 15.9932 18.331 15.5738 18.6625 14.9992C18.9941 14.4245 19.0837 13.7417 18.9118 13.101C18.7399 12.4602 18.3205 11.914 17.7459 11.5825L17.745 11.5833ZM15.6217 8.43666C15.9039 9.45921 15.9039 10.5391 15.6217 11.5617C15.5724 11.7396 15.5837 11.9289 15.6537 12.0998C15.7236 12.2707 15.8484 12.4135 16.0084 12.5058L16.9117 13.0275C17.1032 13.138 17.243 13.3201 17.3003 13.5336C17.3575 13.7472 17.3276 13.9747 17.2171 14.1662C17.1066 14.3577 16.9246 14.4975 16.711 14.5548C16.4974 14.6121 16.2699 14.5822 16.0784 14.4717L15.1734 13.9483C15.0133 13.8556 14.8269 13.8188 14.6436 13.8437C14.4603 13.8686 14.2904 13.9538 14.1609 14.0858C13.4191 14.843 12.4847 15.3833 11.4584 15.6483C11.2792 15.6944 11.1205 15.7987 11.0072 15.9449C10.8939 16.0911 10.8324 16.2709 10.8325 16.4558V17.5C10.8325 17.721 10.7447 17.933 10.5885 18.0892C10.4322 18.2455 10.2202 18.3333 9.9992 18.3333C9.77819 18.3333 9.56623 18.2455 9.40995 18.0892C9.25367 17.933 9.16587 17.721 9.16587 17.5V16.4567C9.16596 16.2717 9.10451 16.092 8.99121 15.9458C8.8779 15.7996 8.71917 15.6952 8.54004 15.6492C7.51366 15.3831 6.57948 14.8416 5.83837 14.0833C5.70881 13.9513 5.53898 13.8661 5.35567 13.8412C5.17235 13.8163 4.98596 13.8531 4.82587 13.9458L3.92254 14.4683C3.82773 14.5239 3.72286 14.5602 3.61397 14.5751C3.50509 14.59 3.39433 14.5832 3.28808 14.5551C3.18183 14.527 3.08219 14.4782 2.99489 14.4114C2.90759 14.3446 2.83435 14.2613 2.7794 14.1661C2.72445 14.0709 2.68887 13.9658 2.6747 13.8568C2.66053 13.7478 2.66807 13.6371 2.69686 13.5311C2.72566 13.425 2.77514 13.3257 2.84248 13.2388C2.90981 13.152 2.99366 13.0793 3.0892 13.025L3.99254 12.5033C4.15249 12.411 4.27726 12.2682 4.34725 12.0973C4.41724 11.9264 4.42848 11.7371 4.3792 11.5592C4.097 10.5366 4.097 9.45671 4.3792 8.43416C4.42759 8.25656 4.41582 8.06793 4.34571 7.89773C4.27561 7.72753 4.15113 7.58533 3.9917 7.49332L3.08837 6.97166C2.89686 6.86115 2.75709 6.67909 2.69982 6.46553C2.64254 6.25198 2.67245 6.02441 2.78295 5.8329C2.89346 5.6414 3.07552 5.50163 3.28907 5.44435C3.50263 5.38708 3.73019 5.41698 3.9217 5.52749L4.8267 6.05082C4.98635 6.14375 5.17235 6.181 5.35548 6.15671C5.5386 6.13243 5.70846 6.04798 5.83837 5.91666C6.58011 5.15944 7.51456 4.61917 8.54087 4.35416C8.72056 4.30796 8.8797 4.20311 8.99306 4.05624C9.10643 3.90936 9.16754 3.72886 9.1667 3.54332V2.49999C9.1667 2.27897 9.2545 2.06701 9.41078 1.91073C9.56706 1.75445 9.77902 1.66666 10 1.66666C10.221 1.66666 10.433 1.75445 10.5893 1.91073C10.7456 2.06701 10.8334 2.27897 10.8334 2.49999V3.54332C10.8333 3.72829 10.8947 3.90803 11.008 4.05422C11.1213 4.20042 11.2801 4.30477 11.4592 4.35082C12.4859 4.61678 13.4204 5.15822 14.1617 5.91666C14.2913 6.04871 14.4611 6.1339 14.6444 6.15879C14.8277 6.18369 15.0141 6.14688 15.1742 6.05415L16.0775 5.53166C16.1723 5.47607 16.2772 5.4398 16.3861 5.42491C16.495 5.41002 16.6057 5.41682 16.712 5.44491C16.8182 5.473 16.9179 5.52183 17.0052 5.58858C17.0925 5.65534 17.1657 5.73871 17.2207 5.83388C17.2756 5.92906 17.3112 6.03416 17.3254 6.14315C17.3395 6.25213 17.332 6.36284 17.3032 6.4689C17.2744 6.57496 17.2249 6.67428 17.1576 6.76113C17.0903 6.84799 17.0064 6.92067 16.9109 6.97499L16.0075 7.49666C15.8484 7.58891 15.7243 7.73122 15.6545 7.9014C15.5847 8.07158 15.5732 8.26007 15.6217 8.43749V8.43666Z" fill="#9CBBFF"/>
</g>
<defs>
<clipPath id="clip0_49_197">
<rect width="20" height="20" fill="white"/>
</clipPath>
</defs>
</svg>
