<svg width="60.000000" height="60.000000" viewBox="0 0 60 60" fill="none" xmlns="http://www.w3.org/2000/svg" xmlns:xlink="http://www.w3.org/1999/xlink">
	<desc>
			Created with Pixso.
	</desc>
	<defs/>
	<path id="Vector" d="M59.2988 55.7666L44.3887 40.8564C48.4517 35.8872 50.4495 29.5459 49.9685 23.145C49.4875 16.7437 46.5647 10.7725 41.8047 6.46582C37.0444 2.15967 30.8113 -0.152832 24.394 0.0078125C17.9771 0.168457 11.8669 2.78906 7.32812 7.32812C2.78906 11.8672 0.168213 17.9771 0.0078125 24.394C-0.152588 30.811 2.15942 37.0444 6.46606 41.8047C10.7725 46.5649 16.7439 49.4878 23.145 49.9688C29.5459 50.4497 35.887 48.4517 40.8564 44.3887L55.7666 59.2988C56.2378 59.7539 56.8689 60.0054 57.5237 60C58.1787 59.9941 58.8052 59.7314 59.2683 59.2686C59.7314 58.8052 59.9941 58.1787 60 57.5239C60.0056 56.8687 59.7539 56.2378 59.2988 55.7666ZM25.0593 45.043C21.1069 45.043 17.2434 43.8711 13.957 41.6753C10.6709 39.4795 8.10962 36.3584 6.59692 32.707C5.08447 29.0552 4.68872 25.0371 5.45972 21.1606C6.23096 17.2842 8.13403 13.7236 10.929 10.9287C13.7236 8.13428 17.2844 6.23096 21.1609 5.45996C25.0374 4.68896 29.0552 5.08447 32.7068 6.59717C36.3584 8.10938 39.4792 10.6709 41.6753 13.957C43.8711 17.2437 45.043 21.1069 45.043 25.0596C45.0371 30.3574 42.9297 35.437 39.1833 39.1836C35.437 42.9297 30.3577 45.0371 25.0593 45.043Z" fill="#A0A4AD" fill-opacity="1.000000" fill-rule="nonzero"/>
</svg>
