<svg width="20" height="20" viewBox="0 0 20 20" fill="none" xmlns="http://www.w3.org/2000/svg">
<g clip-path="url(#clip0_691_1101)">
<path d="M8.44446 17.7778V17C8.44446 15.7136 7.39758 14.6667 6.11113 14.6667H5.82102C6.33669 13.6921 6.88891 12.5169 6.88891 11.9445C6.88891 10.8704 6.01858 10.0389 4.94446 10.0389C3.87035 10.0389 3.00002 10.8704 3.00002 11.9445C3.00002 12.5169 3.55224 13.6921 4.06791 14.6667H3.7778C2.49135 14.6667 1.44446 15.7136 1.44446 17V17.7778C1.01435 17.7778 0.666687 18.1255 0.666687 18.5556C0.666687 18.9857 1.01435 19.3334 1.44446 19.3334H8.44446C8.87458 19.3334 9.22224 18.9857 9.22224 18.5556C9.22224 18.1255 8.87458 17.7778 8.44446 17.7778ZM6.88891 17.7778H3.00002V17C3.00002 16.5707 3.34846 16.2222 3.7778 16.2222H6.11113C6.54046 16.2222 6.88891 16.5707 6.88891 17V17.7778ZM13.1111 9.22224H10C9.56991 9.22224 9.22224 8.87458 9.22224 8.44446C9.22224 8.01435 9.56991 7.66669 10 7.66669H13.1111C13.5412 7.66669 13.8889 8.01435 13.8889 8.44446C13.8889 8.87458 13.5412 9.22224 13.1111 9.22224ZM19.3334 4.55558V15.4445C19.3334 17.5888 17.5888 19.3334 15.4445 19.3334H11.5556C11.1255 19.3334 10.7778 18.9857 10.7778 18.5556C10.7778 18.1255 11.1255 17.7778 11.5556 17.7778H15.4445C16.7309 17.7778 17.7778 16.7309 17.7778 15.4445V4.55558C17.7778 3.26913 16.7309 2.22224 15.4445 2.22224H9.22224C7.9358 2.22224 6.88891 3.26913 6.88891 4.55558V7.70635C6.88891 8.13646 6.54124 8.48413 6.11113 8.48413C5.68102 8.48413 5.33335 8.13646 5.33335 7.70635V4.55558C5.33335 2.41124 7.07791 0.666687 9.22224 0.666687H15.4445C17.5888 0.666687 19.3334 2.41124 19.3334 4.55558ZM10.7778 13.5C10.7778 15.0011 11.9989 16.2222 13.5 16.2222C15.0011 16.2222 16.2222 15.0011 16.2222 13.5C16.2222 11.9989 15.0011 10.7778 13.5 10.7778C11.9989 10.7778 10.7778 11.9989 10.7778 13.5ZM14.6667 13.5C14.6667 14.1432 14.1432 14.6667 13.5 14.6667C12.8568 14.6667 12.3334 14.1432 12.3334 13.5C12.3334 12.8568 12.8568 12.3334 13.5 12.3334C14.1432 12.3334 14.6667 12.8568 14.6667 13.5ZM15.4445 5.33335C15.4445 5.76346 15.0968 6.11113 14.6667 6.11113H10C9.56991 6.11113 9.22224 5.76346 9.22224 5.33335C9.22224 4.90324 9.56991 4.55558 10 4.55558H14.6667C15.0968 4.55558 15.4445 4.90324 15.4445 5.33335Z" fill="#C9CCD2"/>
</g>
<defs>
<clipPath id="clip0_691_1101">
<rect width="20" height="20" fill="white"/>
</clipPath>
</defs>
</svg>
