<svg width="60" height="60" viewBox="0 0 60 60" fill="none" xmlns="http://www.w3.org/2000/svg">
<path d="M43.5145 37.8705C42.1372 37.8673 40.7729 38.1369 39.5004 38.6638C38.2278 39.1907 37.0723 39.9645 36.1005 40.9405C33.2766 43.7806 29.9173 46.0323 26.2172 47.5651C22.517 49.098 18.5495 49.8816 14.5445 49.8705H12.2445C11.8007 49.8712 11.3667 49.7401 10.9974 49.4939C10.6282 49.2477 10.3403 48.8975 10.1703 48.4876C10.0002 48.0777 9.95565 47.6265 10.0422 47.1912C10.1288 46.756 10.3425 46.3562 10.6565 46.0425L12.0425 44.6565C15.8881 44.4583 19.5231 42.8389 22.2425 40.1125L30.8945 31.4705C31.7387 31.6974 32.6052 31.8315 33.4785 31.8705C33.6505 31.8705 33.8245 31.8705 34.0005 31.8705C37.1848 31.868 40.2384 30.6037 42.4925 28.3545L44.4925 26.3545C45.6668 25.178 46.5843 23.7708 47.1871 22.2217C47.7899 20.6726 48.0648 19.0153 47.9945 17.3545C47.9277 15.6864 47.5105 14.0511 46.77 12.5549C46.0295 11.0587 44.9823 9.73522 43.6965 8.67051C41.2942 6.76785 38.2707 5.82559 35.2129 6.02664C32.155 6.22769 29.2809 7.5577 27.1485 9.75851L25.8825 11.0265C24.3524 12.5511 23.2379 14.4418 22.6448 16.5188C22.0518 18.5957 22.0001 20.7899 22.4945 22.8925L13.7585 31.6285C11.0306 34.3469 9.41102 37.9825 9.21448 41.8285L7.82848 43.2145C6.95531 44.0876 6.36069 45.2 6.11987 46.4111C5.87904 47.6222 6.00283 48.8775 6.47556 50.0182C6.94829 51.1589 7.74872 52.1338 8.77561 52.8195C9.8025 53.5052 11.0097 53.871 12.2445 53.8705H14.5445C19.0748 53.8828 23.5626 52.9965 27.7481 51.2628C31.9336 49.5292 35.7337 46.9826 38.9285 43.7705C39.8354 42.8637 40.9909 42.2461 42.2488 41.9958C43.5067 41.7455 44.8106 41.8738 45.9956 42.3644C47.1806 42.855 48.1935 43.6859 48.9064 44.7521C49.6192 45.8183 50 47.072 50.0005 48.3545V51.8705C50.0005 52.4009 50.2112 52.9096 50.5863 53.2847C50.9613 53.6598 51.4701 53.8705 52.0005 53.8705C52.5309 53.8705 53.0396 53.6598 53.4147 53.2847C53.7898 52.9096 54.0005 52.4009 54.0005 51.8705V48.3545C53.9968 45.5748 52.8908 42.91 50.925 40.9446C48.9592 38.9792 46.2942 37.8737 43.5145 37.8705ZM28.7145 13.8465L29.9805 12.5785C31.6232 10.9278 33.8517 9.99328 36.1805 9.97851C37.9833 9.96093 39.7341 10.5823 41.1225 11.7325C41.9814 12.4418 42.6815 13.3239 43.1774 14.3214C43.6732 15.3189 43.9536 16.4095 44.0005 17.5225C44.0467 18.6295 43.8631 19.7342 43.4614 20.7668C43.0598 21.7994 42.4486 22.7377 41.6665 23.5225L39.6665 25.5225C38.8807 26.3083 37.9398 26.9218 36.9038 27.3239C35.8678 27.7259 34.7594 27.9077 33.6492 27.8576C32.5391 27.8076 31.4515 27.5268 30.4559 27.0331C29.4602 26.5395 28.5784 25.8438 27.8665 24.9905C26.6025 23.3581 25.9892 21.3148 26.1451 19.2562C26.301 17.1975 27.2151 15.2699 28.7105 13.8465H28.7145ZM16.5865 34.4565L24.2585 26.7825C24.4405 27.0425 24.5865 27.3225 24.7925 27.5685C25.4563 28.3527 26.2163 29.0502 27.0545 29.6445L19.4145 37.2845C17.7701 38.934 15.6665 40.0492 13.3785 40.4845C13.8175 38.1984 14.9355 36.0976 16.5865 34.4565Z" fill="#F783CB"/>
<path d="M28.5 11.5C28.5 15 29 18.5 32 21.5C35 24.5 39 25 42.5 25" stroke="#F783CB" stroke-width="3" stroke-linecap="round" stroke-linejoin="round"/>
</svg>
