<svg width="54" height="60" viewBox="0 0 54 60" fill="none" xmlns="http://www.w3.org/2000/svg">
<path d="M43 27L37 21L31 27H43Z" fill="#A091F8"/>
<path d="M43 31L37 37L31 31H43Z" fill="#A091F8"/>
<path d="M25 27C25 24 23 21 20 21H16C13 21 11 24 11 27V32C11 34 12.5 35.5 14 35.5V45C14 46.6 15.3333 47 16 47H20C20.6667 47 22 46.6 22 45V35.5C23.5 35.5 25 34 25 32V27Z" fill="#A091F8"/>
<path d="M22 14C22 16.2091 20.2091 18 18 18C15.7909 18 14 16.2091 14 14C14 11.7909 15.7909 10 18 10C20.2091 10 22 11.7909 22 14Z" fill="#A091F8"/>
<path d="M14.5 57.5H2.5V2.5H51.5V57.5H39.5" stroke="#A091F8" stroke-width="5" stroke-linecap="round" stroke-linejoin="round"/>
</svg>
