<svg width="60" height="60" viewBox="0 0 60 60" fill="none" xmlns="http://www.w3.org/2000/svg">
<path d="M48 45H12C9.23858 45 6.71255 42.5393 8.20529 40.2161C10.017 37.3966 13.5937 36.6813 17 36C22 35 27 31 30 31C33 31 38 35 43 36C46.4063 36.6813 49.983 37.3966 51.7947 40.2161C53.2875 42.5393 50.7614 45 48 45Z" stroke="#F47B66" stroke-width="5" stroke-linecap="round" stroke-linejoin="round"/>
<path d="M25 16.8136C25.6015 15.8263 26.4961 15.0367 27.5676 14.5473C28.639 14.0579 29.8379 13.8914 31.0085 14.0693C32.1791 14.2472 33.2674 14.7614 34.1319 15.5451C34.9965 16.3287 35.5975 17.3457 35.8568 18.4638C36.1161 19.582 36.0218 20.7497 35.5861 21.8153C35.1504 22.881 34.3934 23.7954 33.4135 24.4397C32.6235 25.0476 30.9352 24.6667 30.091 25.4286V30" stroke="#F47B66" stroke-width="3" stroke-linecap="round" stroke-linejoin="round"/>
</svg>
