<svg width="60.000000" height="60.000000" viewBox="0 0 60 60" fill="none" xmlns="http://www.w3.org/2000/svg" xmlns:xlink="http://www.w3.org/1999/xlink">
	<desc>
			Created with Pixso.
	</desc>
	<defs/>
	<path id="Vector" d="M59.2988 55.7666L44.3887 40.8564C48.4517 35.887 50.4497 29.5459 49.9688 23.145C49.4878 16.7439 46.5649 10.7725 41.8047 6.46606C37.0444 2.15942 30.811 -0.152588 24.394 0.0078125C17.9771 0.168213 11.8672 2.78906 7.32812 7.32812C2.78906 11.8669 0.168457 17.9771 0.0078125 24.394C-0.152832 30.8113 2.15967 37.0444 6.46582 41.8047C10.7725 46.5647 16.7437 49.4875 23.145 49.9685C29.5459 50.4495 35.8872 48.4517 40.8564 44.3887L55.7666 59.2988C56.2378 59.7539 56.8687 60.0056 57.5239 60C58.1787 59.9941 58.8052 59.7314 59.2686 59.2683C59.7314 58.8052 59.9941 58.1787 60 57.5237C60.0054 56.8689 59.7539 56.2378 59.2988 55.7666ZM25.0596 45.043C21.1069 45.043 17.2437 43.8711 13.957 41.6753C10.6709 39.4792 8.10938 36.3584 6.59717 32.7068C5.08447 29.0552 4.68896 25.0374 5.45996 21.1609C6.23096 17.2844 8.13428 13.7236 10.9287 10.929C13.7236 8.13403 17.2842 6.23096 21.1606 5.45972C25.0371 4.68872 29.0552 5.08447 32.707 6.59692C36.3584 8.10962 39.4795 10.6709 41.6753 13.957C43.8711 17.2434 45.043 21.1069 45.043 25.0593C45.0371 30.3577 42.9297 35.437 39.1836 39.1833C35.437 42.9297 30.3574 45.0371 25.0596 45.043Z" fill="#565C67" fill-opacity="1.000000" fill-rule="nonzero"/>
</svg>
