<svg width="16" height="16" viewBox="0 0 16 16" fill="none" xmlns="http://www.w3.org/2000/svg">
<g id="Heart">
<path id="Vector" d="M11.6652 1.06668C10.9148 1.07835 10.1808 1.28783 9.53722 1.67395C8.89368 2.06007 8.36343 2.60917 8 3.26579C7.63657 2.60917 7.10632 2.06007 6.46278 1.67395C5.81924 1.28783 5.08521 1.07835 4.33481 1.06668C3.13859 1.11865 2.01155 1.64195 1.19993 2.52225C0.38831 3.40255 -0.0419227 4.56829 0.0032261 5.76479C0.0032261 8.7949 3.19261 12.1042 5.86753 14.348C6.46476 14.8499 7.21988 15.125 8 15.125C8.78012 15.125 9.53523 14.8499 10.1325 14.348C12.8074 12.1042 15.9968 8.7949 15.9968 5.76479C16.0419 4.56829 15.6117 3.40255 14.8001 2.52225C13.9884 1.64195 12.8614 1.11865 11.6652 1.06668ZM9.27615 13.3284C8.91895 13.6292 8.46698 13.7942 8 13.7942C7.53302 13.7942 7.08105 13.6292 6.72385 13.3284C3.2999 10.4556 1.33602 7.69934 1.33602 5.76479C1.29047 4.9216 1.58017 4.09461 2.14194 3.46418C2.70371 2.83375 3.49197 2.45102 4.33481 2.39948C5.17765 2.45102 5.96591 2.83375 6.52768 3.46418C7.08946 4.09461 7.37916 4.9216 7.3336 5.76479C7.3336 5.94153 7.40381 6.11103 7.52879 6.236C7.65376 6.36097 7.82326 6.43118 8 6.43118C8.17674 6.43118 8.34624 6.36097 8.47121 6.236C8.59619 6.11103 8.6664 5.94153 8.6664 5.76479C8.62084 4.9216 8.91054 4.09461 9.47231 3.46418C10.0341 2.83375 10.8224 2.45102 11.6652 2.39948C12.508 2.45102 13.2963 2.83375 13.8581 3.46418C14.4198 4.09461 14.7095 4.9216 14.664 5.76479C14.664 7.69934 12.7001 10.4556 9.27615 13.3257V13.3284Z" fill="#A0A4AD"/>
</g>
</svg>
