<svg width="20" height="20" viewBox="0 0 20 20" fill="none" xmlns="http://www.w3.org/2000/svg">
<g id="Heart">
<path id="Vector" d="M14.5815 1.33334C13.6435 1.34793 12.726 1.60978 11.9215 2.09243C11.1171 2.57508 10.4543 3.26146 10 4.08223C9.54572 3.26146 8.8829 2.57508 8.07847 2.09243C7.27405 1.60978 6.35651 1.34793 5.41852 1.33334C3.92324 1.39831 2.51444 2.05243 1.49991 3.1528C0.485388 4.25317 -0.0524034 5.71035 0.00403263 7.20597C0.00403263 10.9936 3.99076 15.1303 7.33441 17.935C8.08096 18.5623 9.02486 18.9063 10 18.9063C10.9751 18.9063 11.919 18.5623 12.6656 17.935C16.0092 15.1303 19.996 10.9936 19.996 7.20597C20.0524 5.71035 19.5146 4.25317 18.5001 3.1528C17.4856 2.05243 16.0768 1.39831 14.5815 1.33334ZM11.5952 16.6605C11.1487 17.0365 10.5837 17.2427 10 17.2427C9.41628 17.2427 8.85131 17.0365 8.40481 16.6605C4.12487 13.0694 1.67003 9.62417 1.67003 7.20597C1.61308 6.152 1.97521 5.11826 2.67742 4.33022C3.37964 3.54218 4.36497 3.06377 5.41852 2.99934C6.47206 3.06377 7.45739 3.54218 8.15961 4.33022C8.86182 5.11826 9.22395 6.152 9.167 7.20597C9.167 7.4269 9.25477 7.63878 9.41098 7.79499C9.5672 7.95121 9.77908 8.03897 10 8.03897C10.2209 8.03897 10.4328 7.95121 10.589 7.79499C10.7452 7.63878 10.833 7.4269 10.833 7.20597C10.7761 6.152 11.1382 5.11826 11.8404 4.33022C12.5426 3.54218 13.5279 3.06377 14.5815 2.99934C15.635 3.06377 16.6204 3.54218 17.3226 4.33022C18.0248 5.11826 18.3869 6.152 18.33 7.20597C18.33 9.62417 15.8751 13.0694 11.5952 16.6572V16.6605Z" fill="#A0A4AD"/>
</g>
</svg>
