<svg width="24" height="24" viewBox="0 0 24 24" fill="none" xmlns="http://www.w3.org/2000/svg">
  <path
    d="M8.25 4.5L7.1 3.1C6.95 2.9 6.97 2.63 7.15 2.45C7.33 2.27 7.63 2.28 7.8 2.48L9.1 4.1C9.88 3.8 10.73 3.63 11.62 3.63C12.51 3.63 13.36 3.8 14.14 4.1L15.45 2.48C15.62 2.28 15.92 2.27 16.1 2.45C16.28 2.63 16.3 2.9 16.15 3.1L15 4.5C16.78 5.44 18 7.27 18 9.38V15.75C18 16.99 16.99 18 15.75 18H7.5C6.26 18 5.25 16.99 5.25 15.75V9.38C5.25 7.27 6.47 5.44 8.25 4.5ZM9.5 8C9.09 8 8.75 8.34 8.75 8.75C8.75 9.16 9.09 9.5 9.5 9.5C9.91 9.5 10.25 9.16 10.25 8.75C10.25 8.34 9.91 8 9.5 8ZM13.75 8C13.34 8 13 8.34 13 8.75C13 9.16 13.34 9.5 13.75 9.5C14.16 9.5 14.5 9.16 14.5 8.75C14.5 8.34 14.16 8 13.75 8Z"
    fill="currentColor"
  />
  <path
    d="M4.25 10.25C4.66 10.25 5 10.59 5 11V15.25C5 15.66 4.66 16 4.25 16C3.84 16 3.5 15.66 3.5 15.25V11C3.5 10.59 3.84 10.25 4.25 10.25Z"
    fill="currentColor"
  />
  <path
    d="M18.99 11C18.99 10.59 19.33 10.25 19.74 10.25C20.15 10.25 20.49 10.59 20.49 11V15.25C20.49 15.66 20.15 16 19.74 16C19.33 16 18.99 15.66 18.99 15.25V11Z"
    fill="currentColor"
  />
</svg>

