<svg width="20" height="20" viewBox="0 0 20 20" fill="none" xmlns="http://www.w3.org/2000/svg">
<g clip-path="url(#clip0_625_1046)">
<path d="M12 6.75V3C12 1.89543 11.1046 1 10 1H3C1.89543 1 1 1.89543 1 3V17C1 18.1046 1.89543 19 3 19H10.7778" stroke="#A0A4AD" stroke-width="2" stroke-linecap="round"/>
<path d="M4 5H5" stroke="#A0A4AD" stroke-width="1.5" stroke-linecap="round"/>
<path d="M8 5H9" stroke="#A0A4AD" stroke-width="1.5" stroke-linecap="round"/>
<path d="M4 8.5H5" stroke="#A0A4AD" stroke-width="1.5" stroke-linecap="round"/>
<path d="M8 8.5H9" stroke="#A0A4AD" stroke-width="1.5" stroke-linecap="round"/>
<path d="M4 12H5" stroke="#A0A4AD" stroke-width="1.5" stroke-linecap="round"/>
<path d="M8 12H9" stroke="#A0A4AD" stroke-width="1.5" stroke-linecap="round"/>
<path d="M4 15.5H5" stroke="#A0A4AD" stroke-width="1.5" stroke-linecap="round"/>
<path d="M19 12.5C19 13.3642 18.6395 14.4444 18.0524 15.5936C17.4765 16.721 16.736 17.8133 16.0935 18.6741C15.7831 19.09 15.2169 19.09 14.9065 18.6741C14.264 17.8133 13.5235 16.721 12.9476 15.5936C12.3605 14.4444 12 13.3642 12 12.5C12 10.567 13.567 9 15.5 9C17.433 9 19 10.567 19 12.5Z" stroke="#A0A4AD" stroke-width="2"/>
<circle cx="15.5" cy="12.5" r="1" fill="#A0A4AD"/>
</g>
<defs>
<clipPath id="clip0_625_1046">
<rect width="20" height="20" fill="white"/>
</clipPath>
</defs>
</svg>
