<svg width="20" height="20" viewBox="0 0 20 20" fill="none" xmlns="http://www.w3.org/2000/svg">
<g clip-path="url(#clip0_4_47)">
<path d="M10 6.66666C9.34074 6.66666 8.69627 6.86215 8.14811 7.22842C7.59994 7.5947 7.1727 8.11529 6.92041 8.72438C6.66812 9.33347 6.6021 10.0037 6.73072 10.6503C6.85934 11.2969 7.17681 11.8908 7.64298 12.357C8.10916 12.8232 8.7031 13.1407 9.34971 13.2693C9.99631 13.3979 10.6665 13.3319 11.2756 13.0796C11.8847 12.8273 12.4053 12.4001 12.7716 11.8519C13.1378 11.3037 13.3333 10.6593 13.3333 9.99999C13.3333 9.11593 12.9822 8.26809 12.357 7.64297C11.7319 7.01785 10.8841 6.66666 10 6.66666ZM10 11.6667C9.67037 11.6667 9.34814 11.5689 9.07406 11.3858C8.79997 11.2026 8.58635 10.9423 8.46021 10.6378C8.33406 10.3333 8.30106 9.99814 8.36536 9.67484C8.42967 9.35154 8.58841 9.05457 8.8215 8.82148C9.05458 8.58839 9.35155 8.42966 9.67486 8.36535C9.99816 8.30104 10.3333 8.33404 10.6378 8.46019C10.9424 8.58634 11.2027 8.79996 11.3858 9.07404C11.5689 9.34812 11.6667 9.67035 11.6667 9.99999C11.6667 10.442 11.4911 10.8659 11.1785 11.1785C10.866 11.4911 10.442 11.6667 10 11.6667Z" fill="#A0A4AD"/>
<path d="M17.745 11.5833L17.375 11.37C17.5416 10.4637 17.5416 9.53462 17.375 8.62833L17.745 8.41499C18.0295 8.25084 18.2789 8.03225 18.479 7.77171C18.6791 7.51117 18.8258 7.21377 18.911 6.89651C18.9961 6.57924 19.0179 6.24831 18.9751 5.92262C18.9323 5.59693 18.8258 5.28286 18.6617 4.99833C18.4975 4.7138 18.2789 4.46438 18.0184 4.26433C17.7578 4.06427 17.4605 3.9175 17.1432 3.83238C16.8259 3.74726 16.495 3.72546 16.1693 3.76823C15.8436 3.811 15.5295 3.91751 15.245 4.08166L14.8742 4.29583C14.1738 3.69742 13.3689 3.23353 12.5 2.92749V2.49999C12.5 1.83695 12.2366 1.20107 11.7678 0.732225C11.2989 0.263384 10.663 -7.62939e-06 10 -7.62939e-06C9.33696 -7.62939e-06 8.70108 0.263384 8.23224 0.732225C7.7634 1.20107 7.50001 1.83695 7.50001 2.49999V2.92749C6.63116 3.23463 5.82655 3.69966 5.12667 4.29916L4.75417 4.08333C4.17954 3.75181 3.49674 3.66214 2.85599 3.83404C2.21524 4.00595 1.66903 4.42536 1.33751 4.99999C1.00598 5.57463 0.916315 6.25742 1.08822 6.89817C1.26013 7.53892 1.67954 8.08514 2.25417 8.41666L2.62417 8.62999C2.4576 9.53629 2.4576 10.4654 2.62417 11.3717L2.25417 11.585C1.67954 11.9165 1.26013 12.4627 1.08822 13.1035C0.916315 13.7442 1.00598 14.427 1.33751 15.0017C1.66903 15.5763 2.21524 15.9957 2.85599 16.1676C3.49674 16.3395 4.17954 16.2498 4.75417 15.9183L5.12501 15.7042C5.82564 16.3026 6.63082 16.7665 7.50001 17.0725V17.5C7.50001 18.163 7.7634 18.7989 8.23224 19.2678C8.70108 19.7366 9.33696 20 10 20C10.663 20 11.2989 19.7366 11.7678 19.2678C12.2366 18.7989 12.5 18.163 12.5 17.5V17.0725C13.3688 16.7654 14.1735 16.3003 14.8733 15.7008L15.2458 15.9158C15.8205 16.2473 16.5033 16.337 17.144 16.1651C17.7848 15.9932 18.331 15.5738 18.6625 14.9992C18.994 14.4245 19.0837 13.7417 18.9118 13.101C18.7399 12.4602 18.3205 11.914 17.7458 11.5825L17.745 11.5833ZM15.6217 8.43666C15.9039 9.45921 15.9039 10.5391 15.6217 11.5617C15.5724 11.7396 15.5836 11.9289 15.6536 12.0998C15.7236 12.2707 15.8484 12.4135 16.0083 12.5058L16.9117 13.0275C17.1032 13.138 17.2429 13.3201 17.3002 13.5336C17.3575 13.7472 17.3276 13.9747 17.2171 14.1662C17.1066 14.3578 16.9245 14.4975 16.711 14.5548C16.4974 14.6121 16.2698 14.5822 16.0783 14.4717L15.1733 13.9483C15.0133 13.8556 14.8269 13.8188 14.6435 13.8437C14.4602 13.8686 14.2904 13.9538 14.1608 14.0858C13.4191 14.843 12.4846 15.3833 11.4583 15.6483C11.2792 15.6944 11.1205 15.7987 11.0072 15.9449C10.8939 16.0911 10.8324 16.2709 10.8325 16.4558V17.5C10.8325 17.721 10.7447 17.933 10.5884 18.0892C10.4321 18.2455 10.2202 18.3333 9.99917 18.3333C9.77816 18.3333 9.5662 18.2455 9.40992 18.0892C9.25364 17.933 9.16584 17.721 9.16584 17.5V16.4567C9.16593 16.2717 9.10448 16.092 8.99118 15.9458C8.87787 15.7996 8.71914 15.6952 8.54001 15.6492C7.51363 15.3831 6.57945 14.8416 5.83834 14.0833C5.70878 13.9513 5.53895 13.8661 5.35564 13.8412C5.17232 13.8163 4.98593 13.8531 4.82584 13.9458L3.9225 14.4683C3.8277 14.5239 3.72283 14.5602 3.61394 14.5751C3.50506 14.59 3.3943 14.5832 3.28805 14.5551C3.1818 14.527 3.08216 14.4782 2.99486 14.4114C2.90755 14.3446 2.83432 14.2613 2.77937 14.1661C2.72442 14.0709 2.68884 13.9658 2.67467 13.8568C2.6605 13.7479 2.66804 13.6371 2.69683 13.5311C2.72563 13.425 2.77511 13.3257 2.84245 13.2388C2.90978 13.152 2.99363 13.0793 3.08917 13.025L3.99251 12.5033C4.15246 12.411 4.27723 12.2682 4.34722 12.0973C4.41721 11.9264 4.42845 11.7371 4.37917 11.5592C4.09697 10.5366 4.09697 9.45671 4.37917 8.43416C4.42756 8.25656 4.41578 8.06794 4.34568 7.89774C4.27558 7.72753 4.1511 7.58533 3.99167 7.49333L3.08834 6.97166C2.89683 6.86115 2.75706 6.67909 2.69979 6.46554C2.64251 6.25198 2.67241 6.02442 2.78292 5.83291C2.89343 5.6414 3.07549 5.50163 3.28904 5.44436C3.5026 5.38708 3.73016 5.41699 3.92167 5.52749L4.82667 6.05083C4.98632 6.14375 5.17232 6.181 5.35544 6.15672C5.53857 6.13243 5.70843 6.04799 5.83834 5.91666C6.58008 5.15944 7.51453 4.61918 8.54084 4.35416C8.72053 4.30796 8.87967 4.20312 8.99303 4.05624C9.1064 3.90937 9.16751 3.72886 9.16667 3.54333V2.49999C9.16667 2.27898 9.25447 2.06702 9.41075 1.91074C9.56703 1.75446 9.77899 1.66666 10 1.66666C10.221 1.66666 10.433 1.75446 10.5893 1.91074C10.7455 2.06702 10.8333 2.27898 10.8333 2.49999V3.54333C10.8332 3.72829 10.8947 3.90803 11.008 4.05423C11.1213 4.20042 11.28 4.30477 11.4592 4.35083C12.4858 4.61679 13.4203 5.15823 14.1617 5.91666C14.2912 6.04871 14.4611 6.1339 14.6444 6.1588C14.8277 6.18369 15.0141 6.14688 15.1742 6.05416L16.0775 5.53166C16.1723 5.47608 16.2772 5.4398 16.3861 5.42491C16.495 5.41002 16.6057 5.41682 16.712 5.44491C16.8182 5.473 16.9179 5.52183 17.0052 5.58859C17.0925 5.65534 17.1657 5.73871 17.2206 5.83389C17.2756 5.92906 17.3112 6.03417 17.3253 6.14315C17.3395 6.25213 17.332 6.36284 17.3032 6.4689C17.2744 6.57496 17.2249 6.67428 17.1576 6.76114C17.0902 6.84799 17.0064 6.92067 16.9108 6.97499L16.0075 7.49666C15.8484 7.58891 15.7242 7.73122 15.6545 7.9014C15.5847 8.07159 15.5731 8.26008 15.6217 8.43749V8.43666Z" fill="#A0A4AD"/>
</g>
<defs>
<clipPath id="clip0_4_47">
<rect width="20" height="20" fill="white"/>
</clipPath>
</defs>
</svg>
